<?xml version="1.0" encoding="utf-8" standalone="no"?>
<!DOCTYPE svg PUBLIC "-//W3C//DTD SVG 1.1//EN"
  "http://www.w3.org/Graphics/SVG/1.1/DTD/svg11.dtd">
<svg xmlns:xlink="http://www.w3.org/1999/xlink" width="1728pt" height="576pt" viewBox="0 0 1728 576" xmlns="http://www.w3.org/2000/svg" version="1.1">
 <metadata>
  <rdf:RDF xmlns:dc="http://purl.org/dc/elements/1.1/" xmlns:cc="http://creativecommons.org/ns#" xmlns:rdf="http://www.w3.org/1999/02/22-rdf-syntax-ns#">
   <cc:Work>
    <dc:type rdf:resource="http://purl.org/dc/dcmitype/StillImage"/>
    <dc:date>2024-04-04T23:02:50.229884</dc:date>
    <dc:format>image/svg+xml</dc:format>
    <dc:creator>
     <cc:Agent>
      <dc:title>Matplotlib v3.8.3, https://matplotlib.org/</dc:title>
     </cc:Agent>
    </dc:creator>
   </cc:Work>
  </rdf:RDF>
 </metadata>
 <defs>
  <style type="text/css">*{stroke-linejoin: round; stroke-linecap: butt}</style>
 </defs>
 <g id="figure_1">
  <g id="patch_1">
   <path d="M 0 576 
L 1728 576 
L 1728 0 
L 0 0 
L 0 576 
z
" style="fill: none"/>
  </g>
  <g id="axes_1">
   <g id="patch_2">
    <path d="M 216 512.64 
L 1555.2 512.64 
L 1555.2 69.12 
L 216 69.12 
L 216 512.64 
z
" style="fill: none"/>
   </g>
   <g id="PolyCollection_1">
    <defs>
     <path id="m3132e9af5b" d="M 276.872727 -431.264595 
L 276.872727 -388.004168 
L 327.6 -384.478063 
L 378.327273 -375.670741 
L 429.054545 -364.603032 
L 479.781818 -346.15315 
L 530.509091 -331.213345 
L 581.236364 -312.466524 
L 631.963636 -297.29415 
L 682.690909 -277.699361 
L 733.418182 -268.204533 
L 784.145455 -253.535987 
L 834.872727 -239.301689 
L 885.6 -219.154199 
L 936.327273 -202.054281 
L 987.054545 -185.665386 
L 1037.781818 -173.058728 
L 1088.509091 -154.854158 
L 1139.236364 -139.08986 
L 1189.963636 -123.930448 
L 1240.690909 -114.421654 
L 1291.418182 -104.582646 
L 1342.145455 -94.057561 
L 1392.872727 -93.055565 
L 1443.6 -84.704193 
L 1494.327273 -83.52 
L 1494.327273 -124.666416 
L 1494.327273 -124.666416 
L 1443.6 -130.059629 
L 1392.872727 -137.828277 
L 1342.145455 -139.240366 
L 1291.418182 -152.023467 
L 1240.690909 -167.284706 
L 1189.963636 -175.848533 
L 1139.236364 -195.467949 
L 1088.509091 -218.709507 
L 1037.781818 -236.441405 
L 987.054545 -251.398825 
L 936.327273 -272.97782 
L 885.6 -293.449678 
L 834.872727 -311.574024 
L 784.145455 -324.103923 
L 733.418182 -336.192526 
L 682.690909 -348.280652 
L 631.963636 -364.412953 
L 581.236364 -382.774426 
L 530.509091 -393.625612 
L 479.781818 -406.069307 
L 429.054545 -421.083456 
L 378.327273 -426.41722 
L 327.6 -428.423044 
L 276.872727 -431.264595 
z
" style="stroke: #1f77b4; stroke-opacity: 0.2"/>
    </defs>
    <g clip-path="url(#p8d1e0a5358)">
     <use xlink:href="#m3132e9af5b" x="0" y="576" style="fill: #1f77b4; fill-opacity: 0.2; stroke: #1f77b4; stroke-opacity: 0.2"/>
    </g>
   </g>
   <g id="PolyCollection_2">
    <defs>
     <path id="madae035e1f" d="M 276.872727 -446.375087 
L 276.872727 -403.299168 
L 327.6 -394.07852 
L 378.327273 -360.032869 
L 429.054545 -341.230279 
L 479.781818 -320.506121 
L 530.509091 -294.90695 
L 581.236364 -277.463592 
L 631.963636 -265.063282 
L 682.690909 -255.395552 
L 733.418182 -238.05329 
L 784.145455 -221.879081 
L 834.872727 -201.36012 
L 885.6 -192.69555 
L 936.327273 -179.704242 
L 987.054545 -158.857761 
L 1037.781818 -137.924638 
L 1088.509091 -124.469274 
L 1139.236364 -115.95914 
L 1189.963636 -108.831778 
L 1240.690909 -104.74404 
L 1291.418182 -95.838316 
L 1342.145455 -94.52876 
L 1392.872727 -90.476275 
L 1443.6 -90.464381 
L 1494.327273 -87.024807 
L 1494.327273 -141.890735 
L 1494.327273 -141.890735 
L 1443.6 -149.28642 
L 1392.872727 -151.649649 
L 1342.145455 -150.029196 
L 1291.418182 -157.064048 
L 1240.690909 -170.204015 
L 1189.963636 -168.777064 
L 1139.236364 -173.749121 
L 1088.509091 -184.204989 
L 1037.781818 -203.278417 
L 987.054545 -220.138034 
L 936.327273 -239.10863 
L 885.6 -254.072648 
L 834.872727 -266.299056 
L 784.145455 -281.506908 
L 733.418182 -294.908665 
L 682.690909 -312.097909 
L 631.963636 -327.014734 
L 581.236364 -342.86177 
L 530.509091 -360.010377 
L 479.781818 -382.539262 
L 429.054545 -398.068717 
L 378.327273 -420.441371 
L 327.6 -438.209745 
L 276.872727 -446.375087 
z
" style="stroke: #ff7f0e; stroke-opacity: 0.2"/>
    </defs>
    <g clip-path="url(#p8d1e0a5358)">
     <use xlink:href="#madae035e1f" x="0" y="576" style="fill: #ff7f0e; fill-opacity: 0.2; stroke: #ff7f0e; stroke-opacity: 0.2"/>
    </g>
   </g>
   <g id="PolyCollection_3">
    <defs>
     <path id="m1e535b5f04" d="M 276.872727 -462.640329 
L 276.872727 -414.683289 
L 327.6 -407.985241 
L 378.327273 -378.591199 
L 429.054545 -350.268346 
L 479.781818 -333.935718 
L 530.509091 -317.666839 
L 581.236364 -298.069917 
L 631.963636 -289.595913 
L 682.690909 -273.74627 
L 733.418182 -245.591042 
L 784.145455 -242.279027 
L 834.872727 -230.36752 
L 885.6 -205.748722 
L 936.327273 -196.918285 
L 987.054545 -186.653932 
L 1037.781818 -184.744063 
L 1088.509091 -170.224323 
L 1139.236364 -162.065596 
L 1189.963636 -160.956636 
L 1240.690909 -152.118018 
L 1291.418182 -144.738742 
L 1342.145455 -137.884309 
L 1392.872727 -129.700187 
L 1443.6 -131.224312 
L 1494.327273 -123.507371 
L 1494.327273 -199.968552 
L 1494.327273 -199.968552 
L 1443.6 -206.510708 
L 1392.872727 -213.256172 
L 1342.145455 -225.333705 
L 1291.418182 -228.041015 
L 1240.690909 -238.873018 
L 1189.963636 -248.138955 
L 1139.236364 -257.570142 
L 1088.509091 -263.399172 
L 1037.781818 -283.772221 
L 987.054545 -288.94956 
L 936.327273 -295.882354 
L 885.6 -303.056289 
L 834.872727 -325.825709 
L 784.145455 -334.330134 
L 733.418182 -341.263164 
L 682.690909 -364.497693 
L 631.963636 -380.413941 
L 581.236364 -395.415583 
L 530.509091 -406.414843 
L 479.781818 -419.339224 
L 429.054545 -432.555923 
L 378.327273 -445.477809 
L 327.6 -459.190412 
L 276.872727 -462.640329 
z
" style="stroke: #2ca02c; stroke-opacity: 0.2"/>
    </defs>
    <g clip-path="url(#p8d1e0a5358)">
     <use xlink:href="#m1e535b5f04" x="0" y="576" style="fill: #2ca02c; fill-opacity: 0.2; stroke: #2ca02c; stroke-opacity: 0.2"/>
    </g>
   </g>
   <g id="PolyCollection_4">
    <defs>
     <path id="m2bb6949c59" d="M 276.872727 -471.697648 
L 276.872727 -422.671353 
L 327.6 -416.426785 
L 378.327273 -387.935961 
L 429.054545 -361.383965 
L 479.781818 -352.953763 
L 530.509091 -337.870262 
L 581.236364 -331.235612 
L 631.963636 -315.0171 
L 682.690909 -300.409406 
L 733.418182 -279.426888 
L 784.145455 -271.978915 
L 834.872727 -259.474327 
L 885.6 -255.809977 
L 936.327273 -249.576559 
L 987.054545 -241.511053 
L 1037.781818 -228.071453 
L 1088.509091 -211.759194 
L 1139.236364 -202.374013 
L 1189.963636 -197.334485 
L 1240.690909 -189.169015 
L 1291.418182 -187.250594 
L 1342.145455 -178.848533 
L 1392.872727 -178.082226 
L 1443.6 -178.685002 
L 1494.327273 -176.375537 
L 1494.327273 -267.420707 
L 1494.327273 -267.420707 
L 1443.6 -272.222272 
L 1392.872727 -274.017781 
L 1342.145455 -274.624536 
L 1291.418182 -280.380941 
L 1240.690909 -283.83164 
L 1189.963636 -287.790844 
L 1139.236364 -297.632753 
L 1088.509091 -310.952287 
L 1037.781818 -324.673745 
L 987.054545 -335.851636 
L 936.327273 -335.372085 
L 885.6 -341.374462 
L 834.872727 -345.844817 
L 784.145455 -359.077673 
L 733.418182 -363.747853 
L 682.690909 -384.537248 
L 631.963636 -402.8567 
L 581.236364 -414.304337 
L 530.509091 -422.645476 
L 479.781818 -433.780078 
L 429.054545 -444.217123 
L 378.327273 -453.338388 
L 327.6 -469.029393 
L 276.872727 -471.697648 
z
" style="stroke: #d62728; stroke-opacity: 0.2"/>
    </defs>
    <g clip-path="url(#p8d1e0a5358)">
     <use xlink:href="#m2bb6949c59" x="0" y="576" style="fill: #d62728; fill-opacity: 0.2; stroke: #d62728; stroke-opacity: 0.2"/>
    </g>
   </g>
   <g id="PolyCollection_5">
    <defs>
     <path id="m9872cb2091" d="M 276.872727 -484.435647 
L 276.872727 -451.715585 
L 327.6 -446.485736 
L 378.327273 -404.782768 
L 429.054545 -389.440297 
L 479.781818 -383.99393 
L 530.509091 -362.680425 
L 581.236364 -350.698059 
L 631.963636 -342.945096 
L 682.690909 -325.841243 
L 733.418182 -318.014468 
L 784.145455 -302.399897 
L 834.872727 -287.344038 
L 885.6 -276.745621 
L 936.327273 -272.45911 
L 987.054545 -269.843768 
L 1037.781818 -258.277426 
L 1088.509091 -245.039802 
L 1139.236364 -229.327755 
L 1189.963636 -222.960759 
L 1240.690909 -212.253243 
L 1291.418182 -210.143415 
L 1342.145455 -208.087452 
L 1392.872727 -203.635328 
L 1443.6 -199.779331 
L 1494.327273 -196.573694 
L 1494.327273 -281.189254 
L 1494.327273 -281.189254 
L 1443.6 -285.11656 
L 1392.872727 -291.059359 
L 1342.145455 -294.961088 
L 1291.418182 -297.211959 
L 1240.690909 -301.237879 
L 1189.963636 -303.882715 
L 1139.236364 -315.034902 
L 1088.509091 -329.367358 
L 1037.781818 -337.853102 
L 987.054545 -347.170233 
L 936.327273 -348.325888 
L 885.6 -357.385324 
L 834.872727 -365.334357 
L 784.145455 -379.600198 
L 733.418182 -389.057786 
L 682.690909 -395.972531 
L 631.963636 -413.717419 
L 581.236364 -423.129361 
L 530.509091 -431.636143 
L 479.781818 -449.395759 
L 429.054545 -455.727817 
L 378.327273 -466.301711 
L 327.6 -482.29183 
L 276.872727 -484.435647 
z
" style="stroke: #9467bd; stroke-opacity: 0.2"/>
    </defs>
    <g clip-path="url(#p8d1e0a5358)">
     <use xlink:href="#m9872cb2091" x="0" y="576" style="fill: #9467bd; fill-opacity: 0.2; stroke: #9467bd; stroke-opacity: 0.2"/>
    </g>
   </g>
   <g id="PolyCollection_6">
    <defs>
     <path id="mdb5f56f5cc" d="M 276.872727 -486.72 
L 276.872727 -485.436375 
L 327.6 -474.678012 
L 378.327273 -384.075394 
L 429.054545 -365.704502 
L 479.781818 -362.294337 
L 530.509091 -356.253006 
L 581.236364 -348.312789 
L 631.963636 -332.750623 
L 682.690909 -323.426778 
L 733.418182 -319.45828 
L 784.145455 -314.830988 
L 834.872727 -308.391245 
L 885.6 -302.181941 
L 936.327273 -294.809893 
L 987.054545 -291.793599 
L 1037.781818 -279.885831 
L 1088.509091 -265.094271 
L 1139.236364 -264.193247 
L 1189.963636 -240.74464 
L 1240.690909 -234.685137 
L 1291.418182 -230.771516 
L 1342.145455 -226.136563 
L 1392.872727 -223.335638 
L 1443.6 -216.778848 
L 1494.327273 -218.315236 
L 1494.327273 -301.546076 
L 1494.327273 -301.546076 
L 1443.6 -304.252424 
L 1392.872727 -312.777157 
L 1342.145455 -309.165734 
L 1291.418182 -312.639819 
L 1240.690909 -316.594539 
L 1189.963636 -327.522026 
L 1139.236364 -350.503484 
L 1088.509091 -356.270632 
L 1037.781818 -372.435223 
L 987.054545 -380.92331 
L 936.327273 -390.161595 
L 885.6 -391.974484 
L 834.872727 -399.457101 
L 784.145455 -401.663475 
L 733.418182 -407.403081 
L 682.690909 -407.498574 
L 631.963636 -417.943856 
L 581.236364 -433.630631 
L 530.509091 -444.001582 
L 479.781818 -458.38088 
L 429.054545 -459.036223 
L 378.327273 -469.931545 
L 327.6 -483.348388 
L 276.872727 -486.72 
z
" style="stroke: #8c564b; stroke-opacity: 0.2"/>
    </defs>
    <g clip-path="url(#p8d1e0a5358)">
     <use xlink:href="#mdb5f56f5cc" x="0" y="576" style="fill: #8c564b; fill-opacity: 0.2; stroke: #8c564b; stroke-opacity: 0.2"/>
    </g>
   </g>
   <g id="matplotlib.axis_1">
    <g id="xtick_1">
     <g id="line2d_1">
      <defs>
       <path id="mac2f28e46a" d="M 0 0 
L 0 3.5 
" style="stroke: #000000; stroke-width: 0.8"/>
      </defs>
      <g>
       <use xlink:href="#mac2f28e46a" x="226.145455" y="512.64" style="stroke: #000000; stroke-width: 0.8"/>
      </g>
     </g>
     <g id="text_1">
      <!-- 0 -->
      <g style="fill: #ffffff" transform="translate(219.146705 536.356562) scale(0.22 -0.22)">
       <defs>
        <path id="DejaVuSans-30" d="M 2034 4250 
Q 1547 4250 1301 3770 
Q 1056 3291 1056 2328 
Q 1056 1369 1301 889 
Q 1547 409 2034 409 
Q 2525 409 2770 889 
Q 3016 1369 3016 2328 
Q 3016 3291 2770 3770 
Q 2525 4250 2034 4250 
z
M 2034 4750 
Q 2819 4750 3233 4129 
Q 3647 3509 3647 2328 
Q 3647 1150 3233 529 
Q 2819 -91 2034 -91 
Q 1250 -91 836 529 
Q 422 1150 422 2328 
Q 422 3509 836 4129 
Q 1250 4750 2034 4750 
z
" transform="scale(0.015625)"/>
       </defs>
       <use xlink:href="#DejaVuSans-30"/>
      </g>
     </g>
    </g>
    <g id="xtick_2">
     <g id="line2d_2">
      <g>
       <use xlink:href="#mac2f28e46a" x="479.781818" y="512.64" style="stroke: #000000; stroke-width: 0.8"/>
      </g>
     </g>
     <g id="text_2">
      <!-- 5 -->
      <g style="fill: #ffffff" transform="translate(472.783068 536.356562) scale(0.22 -0.22)">
       <defs>
        <path id="DejaVuSans-35" d="M 691 4666 
L 3169 4666 
L 3169 4134 
L 1269 4134 
L 1269 2991 
Q 1406 3038 1543 3061 
Q 1681 3084 1819 3084 
Q 2600 3084 3056 2656 
Q 3513 2228 3513 1497 
Q 3513 744 3044 326 
Q 2575 -91 1722 -91 
Q 1428 -91 1123 -41 
Q 819 9 494 109 
L 494 744 
Q 775 591 1075 516 
Q 1375 441 1709 441 
Q 2250 441 2565 725 
Q 2881 1009 2881 1497 
Q 2881 1984 2565 2268 
Q 2250 2553 1709 2553 
Q 1456 2553 1204 2497 
Q 953 2441 691 2322 
L 691 4666 
z
" transform="scale(0.015625)"/>
       </defs>
       <use xlink:href="#DejaVuSans-35"/>
      </g>
     </g>
    </g>
    <g id="xtick_3">
     <g id="line2d_3">
      <g>
       <use xlink:href="#mac2f28e46a" x="733.418182" y="512.64" style="stroke: #000000; stroke-width: 0.8"/>
      </g>
     </g>
     <g id="text_3">
      <!-- 10 -->
      <g style="fill: #ffffff" transform="translate(719.420682 536.356562) scale(0.22 -0.22)">
       <defs>
        <path id="DejaVuSans-31" d="M 794 531 
L 1825 531 
L 1825 4091 
L 703 3866 
L 703 4441 
L 1819 4666 
L 2450 4666 
L 2450 531 
L 3481 531 
L 3481 0 
L 794 0 
L 794 531 
z
" transform="scale(0.015625)"/>
       </defs>
       <use xlink:href="#DejaVuSans-31"/>
       <use xlink:href="#DejaVuSans-30" x="63.623047"/>
      </g>
     </g>
    </g>
    <g id="xtick_4">
     <g id="line2d_4">
      <g>
       <use xlink:href="#mac2f28e46a" x="987.054545" y="512.64" style="stroke: #000000; stroke-width: 0.8"/>
      </g>
     </g>
     <g id="text_4">
      <!-- 15 -->
      <g style="fill: #ffffff" transform="translate(973.057045 536.356562) scale(0.22 -0.22)">
       <use xlink:href="#DejaVuSans-31"/>
       <use xlink:href="#DejaVuSans-35" x="63.623047"/>
      </g>
     </g>
    </g>
    <g id="xtick_5">
     <g id="line2d_5">
      <g>
       <use xlink:href="#mac2f28e46a" x="1240.690909" y="512.64" style="stroke: #000000; stroke-width: 0.8"/>
      </g>
     </g>
     <g id="text_5">
      <!-- 20 -->
      <g style="fill: #ffffff" transform="translate(1226.693409 536.356562) scale(0.22 -0.22)">
       <defs>
        <path id="DejaVuSans-32" d="M 1228 531 
L 3431 531 
L 3431 0 
L 469 0 
L 469 531 
Q 828 903 1448 1529 
Q 2069 2156 2228 2338 
Q 2531 2678 2651 2914 
Q 2772 3150 2772 3378 
Q 2772 3750 2511 3984 
Q 2250 4219 1831 4219 
Q 1534 4219 1204 4116 
Q 875 4013 500 3803 
L 500 4441 
Q 881 4594 1212 4672 
Q 1544 4750 1819 4750 
Q 2544 4750 2975 4387 
Q 3406 4025 3406 3419 
Q 3406 3131 3298 2873 
Q 3191 2616 2906 2266 
Q 2828 2175 2409 1742 
Q 1991 1309 1228 531 
z
" transform="scale(0.015625)"/>
       </defs>
       <use xlink:href="#DejaVuSans-32"/>
       <use xlink:href="#DejaVuSans-30" x="63.623047"/>
      </g>
     </g>
    </g>
    <g id="xtick_6">
     <g id="line2d_6">
      <g>
       <use xlink:href="#mac2f28e46a" x="1494.327273" y="512.64" style="stroke: #000000; stroke-width: 0.8"/>
      </g>
     </g>
     <g id="text_6">
      <!-- 25 -->
      <g style="fill: #ffffff" transform="translate(1480.329773 536.356562) scale(0.22 -0.22)">
       <use xlink:href="#DejaVuSans-32"/>
       <use xlink:href="#DejaVuSans-35" x="63.623047"/>
      </g>
     </g>
    </g>
    <g id="text_7">
     <!-- Num_Experiments -->
     <g style="fill: #ffffff" transform="translate(784.896719 561.648438) scale(0.22 -0.22)">
      <defs>
       <path id="DejaVuSans-4e" d="M 628 4666 
L 1478 4666 
L 3547 763 
L 3547 4666 
L 4159 4666 
L 4159 0 
L 3309 0 
L 1241 3903 
L 1241 0 
L 628 0 
L 628 4666 
z
" transform="scale(0.015625)"/>
       <path id="DejaVuSans-75" d="M 544 1381 
L 544 3500 
L 1119 3500 
L 1119 1403 
Q 1119 906 1312 657 
Q 1506 409 1894 409 
Q 2359 409 2629 706 
Q 2900 1003 2900 1516 
L 2900 3500 
L 3475 3500 
L 3475 0 
L 2900 0 
L 2900 538 
Q 2691 219 2414 64 
Q 2138 -91 1772 -91 
Q 1169 -91 856 284 
Q 544 659 544 1381 
z
M 1991 3584 
L 1991 3584 
z
" transform="scale(0.015625)"/>
       <path id="DejaVuSans-6d" d="M 3328 2828 
Q 3544 3216 3844 3400 
Q 4144 3584 4550 3584 
Q 5097 3584 5394 3201 
Q 5691 2819 5691 2113 
L 5691 0 
L 5113 0 
L 5113 2094 
Q 5113 2597 4934 2840 
Q 4756 3084 4391 3084 
Q 3944 3084 3684 2787 
Q 3425 2491 3425 1978 
L 3425 0 
L 2847 0 
L 2847 2094 
Q 2847 2600 2669 2842 
Q 2491 3084 2119 3084 
Q 1678 3084 1418 2786 
Q 1159 2488 1159 1978 
L 1159 0 
L 581 0 
L 581 3500 
L 1159 3500 
L 1159 2956 
Q 1356 3278 1631 3431 
Q 1906 3584 2284 3584 
Q 2666 3584 2933 3390 
Q 3200 3197 3328 2828 
z
" transform="scale(0.015625)"/>
       <path id="DejaVuSans-5f" d="M 3263 -1063 
L 3263 -1509 
L -63 -1509 
L -63 -1063 
L 3263 -1063 
z
" transform="scale(0.015625)"/>
       <path id="DejaVuSans-45" d="M 628 4666 
L 3578 4666 
L 3578 4134 
L 1259 4134 
L 1259 2753 
L 3481 2753 
L 3481 2222 
L 1259 2222 
L 1259 531 
L 3634 531 
L 3634 0 
L 628 0 
L 628 4666 
z
" transform="scale(0.015625)"/>
       <path id="DejaVuSans-78" d="M 3513 3500 
L 2247 1797 
L 3578 0 
L 2900 0 
L 1881 1375 
L 863 0 
L 184 0 
L 1544 1831 
L 300 3500 
L 978 3500 
L 1906 2253 
L 2834 3500 
L 3513 3500 
z
" transform="scale(0.015625)"/>
       <path id="DejaVuSans-70" d="M 1159 525 
L 1159 -1331 
L 581 -1331 
L 581 3500 
L 1159 3500 
L 1159 2969 
Q 1341 3281 1617 3432 
Q 1894 3584 2278 3584 
Q 2916 3584 3314 3078 
Q 3713 2572 3713 1747 
Q 3713 922 3314 415 
Q 2916 -91 2278 -91 
Q 1894 -91 1617 61 
Q 1341 213 1159 525 
z
M 3116 1747 
Q 3116 2381 2855 2742 
Q 2594 3103 2138 3103 
Q 1681 3103 1420 2742 
Q 1159 2381 1159 1747 
Q 1159 1113 1420 752 
Q 1681 391 2138 391 
Q 2594 391 2855 752 
Q 3116 1113 3116 1747 
z
" transform="scale(0.015625)"/>
       <path id="DejaVuSans-65" d="M 3597 1894 
L 3597 1613 
L 953 1613 
Q 991 1019 1311 708 
Q 1631 397 2203 397 
Q 2534 397 2845 478 
Q 3156 559 3463 722 
L 3463 178 
Q 3153 47 2828 -22 
Q 2503 -91 2169 -91 
Q 1331 -91 842 396 
Q 353 884 353 1716 
Q 353 2575 817 3079 
Q 1281 3584 2069 3584 
Q 2775 3584 3186 3129 
Q 3597 2675 3597 1894 
z
M 3022 2063 
Q 3016 2534 2758 2815 
Q 2500 3097 2075 3097 
Q 1594 3097 1305 2825 
Q 1016 2553 972 2059 
L 3022 2063 
z
" transform="scale(0.015625)"/>
       <path id="DejaVuSans-72" d="M 2631 2963 
Q 2534 3019 2420 3045 
Q 2306 3072 2169 3072 
Q 1681 3072 1420 2755 
Q 1159 2438 1159 1844 
L 1159 0 
L 581 0 
L 581 3500 
L 1159 3500 
L 1159 2956 
Q 1341 3275 1631 3429 
Q 1922 3584 2338 3584 
Q 2397 3584 2469 3576 
Q 2541 3569 2628 3553 
L 2631 2963 
z
" transform="scale(0.015625)"/>
       <path id="DejaVuSans-69" d="M 603 3500 
L 1178 3500 
L 1178 0 
L 603 0 
L 603 3500 
z
M 603 4863 
L 1178 4863 
L 1178 4134 
L 603 4134 
L 603 4863 
z
" transform="scale(0.015625)"/>
       <path id="DejaVuSans-6e" d="M 3513 2113 
L 3513 0 
L 2938 0 
L 2938 2094 
Q 2938 2591 2744 2837 
Q 2550 3084 2163 3084 
Q 1697 3084 1428 2787 
Q 1159 2491 1159 1978 
L 1159 0 
L 581 0 
L 581 3500 
L 1159 3500 
L 1159 2956 
Q 1366 3272 1645 3428 
Q 1925 3584 2291 3584 
Q 2894 3584 3203 3211 
Q 3513 2838 3513 2113 
z
" transform="scale(0.015625)"/>
       <path id="DejaVuSans-74" d="M 1172 4494 
L 1172 3500 
L 2356 3500 
L 2356 3053 
L 1172 3053 
L 1172 1153 
Q 1172 725 1289 603 
Q 1406 481 1766 481 
L 2356 481 
L 2356 0 
L 1766 0 
Q 1100 0 847 248 
Q 594 497 594 1153 
L 594 3053 
L 172 3053 
L 172 3500 
L 594 3500 
L 594 4494 
L 1172 4494 
z
" transform="scale(0.015625)"/>
       <path id="DejaVuSans-73" d="M 2834 3397 
L 2834 2853 
Q 2591 2978 2328 3040 
Q 2066 3103 1784 3103 
Q 1356 3103 1142 2972 
Q 928 2841 928 2578 
Q 928 2378 1081 2264 
Q 1234 2150 1697 2047 
L 1894 2003 
Q 2506 1872 2764 1633 
Q 3022 1394 3022 966 
Q 3022 478 2636 193 
Q 2250 -91 1575 -91 
Q 1294 -91 989 -36 
Q 684 19 347 128 
L 347 722 
Q 666 556 975 473 
Q 1284 391 1588 391 
Q 1994 391 2212 530 
Q 2431 669 2431 922 
Q 2431 1156 2273 1281 
Q 2116 1406 1581 1522 
L 1381 1569 
Q 847 1681 609 1914 
Q 372 2147 372 2553 
Q 372 3047 722 3315 
Q 1072 3584 1716 3584 
Q 2034 3584 2315 3537 
Q 2597 3491 2834 3397 
z
" transform="scale(0.015625)"/>
      </defs>
      <use xlink:href="#DejaVuSans-4e"/>
      <use xlink:href="#DejaVuSans-75" x="74.804688"/>
      <use xlink:href="#DejaVuSans-6d" x="138.183594"/>
      <use xlink:href="#DejaVuSans-5f" x="235.595703"/>
      <use xlink:href="#DejaVuSans-45" x="285.595703"/>
      <use xlink:href="#DejaVuSans-78" x="348.779297"/>
      <use xlink:href="#DejaVuSans-70" x="407.958984"/>
      <use xlink:href="#DejaVuSans-65" x="471.435547"/>
      <use xlink:href="#DejaVuSans-72" x="532.958984"/>
      <use xlink:href="#DejaVuSans-69" x="574.072266"/>
      <use xlink:href="#DejaVuSans-6d" x="601.855469"/>
      <use xlink:href="#DejaVuSans-65" x="699.267578"/>
      <use xlink:href="#DejaVuSans-6e" x="760.791016"/>
      <use xlink:href="#DejaVuSans-74" x="824.169922"/>
      <use xlink:href="#DejaVuSans-73" x="863.378906"/>
     </g>
    </g>
   </g>
   <g id="matplotlib.axis_2">
    <g id="ytick_1">
     <g id="line2d_7">
      <defs>
       <path id="m93bb90fbf3" d="M 0 0 
L -3.5 0 
" style="stroke: #000000; stroke-width: 0.8"/>
      </defs>
      <g>
       <use xlink:href="#m93bb90fbf3" x="216" y="493.237148" style="stroke: #000000; stroke-width: 0.8"/>
      </g>
     </g>
     <g id="text_8">
      <!-- −3.0 -->
      <g style="fill: #ffffff" transform="translate(155.577812 501.595429) scale(0.22 -0.22)">
       <defs>
        <path id="DejaVuSans-2212" d="M 678 2272 
L 4684 2272 
L 4684 1741 
L 678 1741 
L 678 2272 
z
" transform="scale(0.015625)"/>
        <path id="DejaVuSans-33" d="M 2597 2516 
Q 3050 2419 3304 2112 
Q 3559 1806 3559 1356 
Q 3559 666 3084 287 
Q 2609 -91 1734 -91 
Q 1441 -91 1130 -33 
Q 819 25 488 141 
L 488 750 
Q 750 597 1062 519 
Q 1375 441 1716 441 
Q 2309 441 2620 675 
Q 2931 909 2931 1356 
Q 2931 1769 2642 2001 
Q 2353 2234 1838 2234 
L 1294 2234 
L 1294 2753 
L 1863 2753 
Q 2328 2753 2575 2939 
Q 2822 3125 2822 3475 
Q 2822 3834 2567 4026 
Q 2313 4219 1838 4219 
Q 1578 4219 1281 4162 
Q 984 4106 628 3988 
L 628 4550 
Q 988 4650 1302 4700 
Q 1616 4750 1894 4750 
Q 2613 4750 3031 4423 
Q 3450 4097 3450 3541 
Q 3450 3153 3228 2886 
Q 3006 2619 2597 2516 
z
" transform="scale(0.015625)"/>
        <path id="DejaVuSans-2e" d="M 684 794 
L 1344 794 
L 1344 0 
L 684 0 
L 684 794 
z
" transform="scale(0.015625)"/>
       </defs>
       <use xlink:href="#DejaVuSans-2212"/>
       <use xlink:href="#DejaVuSans-33" x="83.789062"/>
       <use xlink:href="#DejaVuSans-2e" x="147.412109"/>
       <use xlink:href="#DejaVuSans-30" x="179.199219"/>
      </g>
     </g>
    </g>
    <g id="ytick_2">
     <g id="line2d_8">
      <g>
       <use xlink:href="#m93bb90fbf3" x="216" y="425.832242" style="stroke: #000000; stroke-width: 0.8"/>
      </g>
     </g>
     <g id="text_9">
      <!-- −2.5 -->
      <g style="fill: #ffffff" transform="translate(155.577812 434.190524) scale(0.22 -0.22)">
       <use xlink:href="#DejaVuSans-2212"/>
       <use xlink:href="#DejaVuSans-32" x="83.789062"/>
       <use xlink:href="#DejaVuSans-2e" x="147.412109"/>
       <use xlink:href="#DejaVuSans-35" x="179.199219"/>
      </g>
     </g>
    </g>
    <g id="ytick_3">
     <g id="line2d_9">
      <g>
       <use xlink:href="#m93bb90fbf3" x="216" y="358.427337" style="stroke: #000000; stroke-width: 0.8"/>
      </g>
     </g>
     <g id="text_10">
      <!-- −2.0 -->
      <g style="fill: #ffffff" transform="translate(155.577812 366.785618) scale(0.22 -0.22)">
       <use xlink:href="#DejaVuSans-2212"/>
       <use xlink:href="#DejaVuSans-32" x="83.789062"/>
       <use xlink:href="#DejaVuSans-2e" x="147.412109"/>
       <use xlink:href="#DejaVuSans-30" x="179.199219"/>
      </g>
     </g>
    </g>
    <g id="ytick_4">
     <g id="line2d_10">
      <g>
       <use xlink:href="#m93bb90fbf3" x="216" y="291.022431" style="stroke: #000000; stroke-width: 0.8"/>
      </g>
     </g>
     <g id="text_11">
      <!-- −1.5 -->
      <g style="fill: #ffffff" transform="translate(155.577812 299.380712) scale(0.22 -0.22)">
       <use xlink:href="#DejaVuSans-2212"/>
       <use xlink:href="#DejaVuSans-31" x="83.789062"/>
       <use xlink:href="#DejaVuSans-2e" x="147.412109"/>
       <use xlink:href="#DejaVuSans-35" x="179.199219"/>
      </g>
     </g>
    </g>
    <g id="ytick_5">
     <g id="line2d_11">
      <g>
       <use xlink:href="#m93bb90fbf3" x="216" y="223.617525" style="stroke: #000000; stroke-width: 0.8"/>
      </g>
     </g>
     <g id="text_12">
      <!-- −1.0 -->
      <g style="fill: #ffffff" transform="translate(155.577812 231.975806) scale(0.22 -0.22)">
       <use xlink:href="#DejaVuSans-2212"/>
       <use xlink:href="#DejaVuSans-31" x="83.789062"/>
       <use xlink:href="#DejaVuSans-2e" x="147.412109"/>
       <use xlink:href="#DejaVuSans-30" x="179.199219"/>
      </g>
     </g>
    </g>
    <g id="ytick_6">
     <g id="line2d_12">
      <g>
       <use xlink:href="#m93bb90fbf3" x="216" y="156.212619" style="stroke: #000000; stroke-width: 0.8"/>
      </g>
     </g>
     <g id="text_13">
      <!-- −0.5 -->
      <g style="fill: #ffffff" transform="translate(155.577812 164.570901) scale(0.22 -0.22)">
       <use xlink:href="#DejaVuSans-2212"/>
       <use xlink:href="#DejaVuSans-30" x="83.789062"/>
       <use xlink:href="#DejaVuSans-2e" x="147.412109"/>
       <use xlink:href="#DejaVuSans-35" x="179.199219"/>
      </g>
     </g>
    </g>
    <g id="ytick_7">
     <g id="line2d_13">
      <g>
       <use xlink:href="#m93bb90fbf3" x="216" y="88.807714" style="stroke: #000000; stroke-width: 0.8"/>
      </g>
     </g>
     <g id="text_14">
      <!-- 0.0 -->
      <g style="fill: #ffffff" transform="translate(174.013125 97.165995) scale(0.22 -0.22)">
       <use xlink:href="#DejaVuSans-30"/>
       <use xlink:href="#DejaVuSans-2e" x="63.623047"/>
       <use xlink:href="#DejaVuSans-30" x="95.410156"/>
      </g>
     </g>
    </g>
    <g id="text_15">
     <!-- Target_CumBest -->
     <g style="fill: #ffffff" transform="translate(146.390625 380.143281) rotate(-90) scale(0.22 -0.22)">
      <defs>
       <path id="DejaVuSans-54" d="M -19 4666 
L 3928 4666 
L 3928 4134 
L 2272 4134 
L 2272 0 
L 1638 0 
L 1638 4134 
L -19 4134 
L -19 4666 
z
" transform="scale(0.015625)"/>
       <path id="DejaVuSans-61" d="M 2194 1759 
Q 1497 1759 1228 1600 
Q 959 1441 959 1056 
Q 959 750 1161 570 
Q 1363 391 1709 391 
Q 2188 391 2477 730 
Q 2766 1069 2766 1631 
L 2766 1759 
L 2194 1759 
z
M 3341 1997 
L 3341 0 
L 2766 0 
L 2766 531 
Q 2569 213 2275 61 
Q 1981 -91 1556 -91 
Q 1019 -91 701 211 
Q 384 513 384 1019 
Q 384 1609 779 1909 
Q 1175 2209 1959 2209 
L 2766 2209 
L 2766 2266 
Q 2766 2663 2505 2880 
Q 2244 3097 1772 3097 
Q 1472 3097 1187 3025 
Q 903 2953 641 2809 
L 641 3341 
Q 956 3463 1253 3523 
Q 1550 3584 1831 3584 
Q 2591 3584 2966 3190 
Q 3341 2797 3341 1997 
z
" transform="scale(0.015625)"/>
       <path id="DejaVuSans-67" d="M 2906 1791 
Q 2906 2416 2648 2759 
Q 2391 3103 1925 3103 
Q 1463 3103 1205 2759 
Q 947 2416 947 1791 
Q 947 1169 1205 825 
Q 1463 481 1925 481 
Q 2391 481 2648 825 
Q 2906 1169 2906 1791 
z
M 3481 434 
Q 3481 -459 3084 -895 
Q 2688 -1331 1869 -1331 
Q 1566 -1331 1297 -1286 
Q 1028 -1241 775 -1147 
L 775 -588 
Q 1028 -725 1275 -790 
Q 1522 -856 1778 -856 
Q 2344 -856 2625 -561 
Q 2906 -266 2906 331 
L 2906 616 
Q 2728 306 2450 153 
Q 2172 0 1784 0 
Q 1141 0 747 490 
Q 353 981 353 1791 
Q 353 2603 747 3093 
Q 1141 3584 1784 3584 
Q 2172 3584 2450 3431 
Q 2728 3278 2906 2969 
L 2906 3500 
L 3481 3500 
L 3481 434 
z
" transform="scale(0.015625)"/>
       <path id="DejaVuSans-43" d="M 4122 4306 
L 4122 3641 
Q 3803 3938 3442 4084 
Q 3081 4231 2675 4231 
Q 1875 4231 1450 3742 
Q 1025 3253 1025 2328 
Q 1025 1406 1450 917 
Q 1875 428 2675 428 
Q 3081 428 3442 575 
Q 3803 722 4122 1019 
L 4122 359 
Q 3791 134 3420 21 
Q 3050 -91 2638 -91 
Q 1578 -91 968 557 
Q 359 1206 359 2328 
Q 359 3453 968 4101 
Q 1578 4750 2638 4750 
Q 3056 4750 3426 4639 
Q 3797 4528 4122 4306 
z
" transform="scale(0.015625)"/>
       <path id="DejaVuSans-42" d="M 1259 2228 
L 1259 519 
L 2272 519 
Q 2781 519 3026 730 
Q 3272 941 3272 1375 
Q 3272 1813 3026 2020 
Q 2781 2228 2272 2228 
L 1259 2228 
z
M 1259 4147 
L 1259 2741 
L 2194 2741 
Q 2656 2741 2882 2914 
Q 3109 3088 3109 3444 
Q 3109 3797 2882 3972 
Q 2656 4147 2194 4147 
L 1259 4147 
z
M 628 4666 
L 2241 4666 
Q 2963 4666 3353 4366 
Q 3744 4066 3744 3513 
Q 3744 3084 3544 2831 
Q 3344 2578 2956 2516 
Q 3422 2416 3680 2098 
Q 3938 1781 3938 1306 
Q 3938 681 3513 340 
Q 3088 0 2303 0 
L 628 0 
L 628 4666 
z
" transform="scale(0.015625)"/>
      </defs>
      <use xlink:href="#DejaVuSans-54"/>
      <use xlink:href="#DejaVuSans-61" x="44.583984"/>
      <use xlink:href="#DejaVuSans-72" x="105.863281"/>
      <use xlink:href="#DejaVuSans-67" x="145.226562"/>
      <use xlink:href="#DejaVuSans-65" x="208.703125"/>
      <use xlink:href="#DejaVuSans-74" x="270.226562"/>
      <use xlink:href="#DejaVuSans-5f" x="309.435547"/>
      <use xlink:href="#DejaVuSans-43" x="359.435547"/>
      <use xlink:href="#DejaVuSans-75" x="429.259766"/>
      <use xlink:href="#DejaVuSans-6d" x="492.638672"/>
      <use xlink:href="#DejaVuSans-42" x="590.050781"/>
      <use xlink:href="#DejaVuSans-65" x="658.654297"/>
      <use xlink:href="#DejaVuSans-73" x="720.177734"/>
      <use xlink:href="#DejaVuSans-74" x="772.277344"/>
     </g>
    </g>
   </g>
   <g id="line2d_14">
    <path d="M 276.872727 164.77281 
L 327.6 166.957553 
L 378.327273 172.913467 
L 429.054545 182.117541 
L 479.781818 198.261503 
L 530.509091 212.235207 
L 581.236364 226.798791 
L 631.963636 243.471145 
L 682.690909 260.560645 
L 733.418182 271.772492 
L 784.145455 287.583218 
L 834.872727 299.736315 
L 885.6 320.112114 
L 936.327273 338.898149 
L 987.054545 356.952384 
L 1037.781818 371.21443 
L 1088.509091 389.838457 
L 1139.236364 410.189049 
L 1189.963636 427.699944 
L 1240.690909 437.978806 
L 1291.418182 450.697384 
L 1342.145455 461.103988 
L 1392.872727 463.362782 
L 1443.6 472.187932 
L 1494.327273 474.152735 
" clip-path="url(#p8d1e0a5358)" style="fill: none; stroke: #1f77b4; stroke-width: 1.5; stroke-linecap: square"/>
    <defs>
     <path id="m219787afac" d="M 0 5 
C 1.326016 5 2.597899 4.473168 3.535534 3.535534 
C 4.473168 2.597899 5 1.326016 5 0 
C 5 -1.326016 4.473168 -2.597899 3.535534 -3.535534 
C 2.597899 -4.473168 1.326016 -5 0 -5 
C -1.326016 -5 -2.597899 -4.473168 -3.535534 -3.535534 
C -4.473168 -2.597899 -5 -1.326016 -5 0 
C -5 1.326016 -4.473168 2.597899 -3.535534 3.535534 
C -2.597899 4.473168 -1.326016 5 0 5 
z
" style="stroke: #ffffff; stroke-width: 0.75"/>
    </defs>
    <g clip-path="url(#p8d1e0a5358)">
     <use xlink:href="#m219787afac" x="276.872727" y="164.77281" style="fill: #1f77b4; stroke: #ffffff; stroke-width: 0.75"/>
     <use xlink:href="#m219787afac" x="327.6" y="166.957553" style="fill: #1f77b4; stroke: #ffffff; stroke-width: 0.75"/>
     <use xlink:href="#m219787afac" x="378.327273" y="172.913467" style="fill: #1f77b4; stroke: #ffffff; stroke-width: 0.75"/>
     <use xlink:href="#m219787afac" x="429.054545" y="182.117541" style="fill: #1f77b4; stroke: #ffffff; stroke-width: 0.75"/>
     <use xlink:href="#m219787afac" x="479.781818" y="198.261503" style="fill: #1f77b4; stroke: #ffffff; stroke-width: 0.75"/>
     <use xlink:href="#m219787afac" x="530.509091" y="212.235207" style="fill: #1f77b4; stroke: #ffffff; stroke-width: 0.75"/>
     <use xlink:href="#m219787afac" x="581.236364" y="226.798791" style="fill: #1f77b4; stroke: #ffffff; stroke-width: 0.75"/>
     <use xlink:href="#m219787afac" x="631.963636" y="243.471145" style="fill: #1f77b4; stroke: #ffffff; stroke-width: 0.75"/>
     <use xlink:href="#m219787afac" x="682.690909" y="260.560645" style="fill: #1f77b4; stroke: #ffffff; stroke-width: 0.75"/>
     <use xlink:href="#m219787afac" x="733.418182" y="271.772492" style="fill: #1f77b4; stroke: #ffffff; stroke-width: 0.75"/>
     <use xlink:href="#m219787afac" x="784.145455" y="287.583218" style="fill: #1f77b4; stroke: #ffffff; stroke-width: 0.75"/>
     <use xlink:href="#m219787afac" x="834.872727" y="299.736315" style="fill: #1f77b4; stroke: #ffffff; stroke-width: 0.75"/>
     <use xlink:href="#m219787afac" x="885.6" y="320.112114" style="fill: #1f77b4; stroke: #ffffff; stroke-width: 0.75"/>
     <use xlink:href="#m219787afac" x="936.327273" y="338.898149" style="fill: #1f77b4; stroke: #ffffff; stroke-width: 0.75"/>
     <use xlink:href="#m219787afac" x="987.054545" y="356.952384" style="fill: #1f77b4; stroke: #ffffff; stroke-width: 0.75"/>
     <use xlink:href="#m219787afac" x="1037.781818" y="371.21443" style="fill: #1f77b4; stroke: #ffffff; stroke-width: 0.75"/>
     <use xlink:href="#m219787afac" x="1088.509091" y="389.838457" style="fill: #1f77b4; stroke: #ffffff; stroke-width: 0.75"/>
     <use xlink:href="#m219787afac" x="1139.236364" y="410.189049" style="fill: #1f77b4; stroke: #ffffff; stroke-width: 0.75"/>
     <use xlink:href="#m219787afac" x="1189.963636" y="427.699944" style="fill: #1f77b4; stroke: #ffffff; stroke-width: 0.75"/>
     <use xlink:href="#m219787afac" x="1240.690909" y="437.978806" style="fill: #1f77b4; stroke: #ffffff; stroke-width: 0.75"/>
     <use xlink:href="#m219787afac" x="1291.418182" y="450.697384" style="fill: #1f77b4; stroke: #ffffff; stroke-width: 0.75"/>
     <use xlink:href="#m219787afac" x="1342.145455" y="461.103988" style="fill: #1f77b4; stroke: #ffffff; stroke-width: 0.75"/>
     <use xlink:href="#m219787afac" x="1392.872727" y="463.362782" style="fill: #1f77b4; stroke: #ffffff; stroke-width: 0.75"/>
     <use xlink:href="#m219787afac" x="1443.6" y="472.187932" style="fill: #1f77b4; stroke: #ffffff; stroke-width: 0.75"/>
     <use xlink:href="#m219787afac" x="1494.327273" y="474.152735" style="fill: #1f77b4; stroke: #ffffff; stroke-width: 0.75"/>
    </g>
   </g>
   <g id="line2d_15">
    <path d="M 276.872727 149.774557 
L 327.6 159.559523 
L 378.327273 185.227839 
L 429.054545 207.226916 
L 479.781818 224.80134 
L 530.509091 249.394543 
L 581.236364 265.269098 
L 631.963636 280.616431 
L 682.690909 292.202001 
L 733.418182 308.899868 
L 784.145455 324.073463 
L 834.872727 342.985148 
L 885.6 352.937852 
L 936.327273 366.712332 
L 987.054545 386.526212 
L 1037.781818 406.691793 
L 1088.509091 424.885205 
L 1139.236364 432.46167 
L 1189.963636 438.143941 
L 1240.690909 442.336952 
L 1291.418182 452.160957 
L 1342.145455 455.430956 
L 1392.872727 458.610935 
L 1443.6 459.265104 
L 1494.327273 463.063424 
" clip-path="url(#p8d1e0a5358)" style="fill: none; stroke: #ff7f0e; stroke-width: 1.5; stroke-linecap: square"/>
    <defs>
     <path id="m1f3d5de352" d="M 0 5 
C 1.326016 5 2.597899 4.473168 3.535534 3.535534 
C 4.473168 2.597899 5 1.326016 5 0 
C 5 -1.326016 4.473168 -2.597899 3.535534 -3.535534 
C 2.597899 -4.473168 1.326016 -5 0 -5 
C -1.326016 -5 -2.597899 -4.473168 -3.535534 -3.535534 
C -4.473168 -2.597899 -5 -1.326016 -5 0 
C -5 1.326016 -4.473168 2.597899 -3.535534 3.535534 
C -2.597899 4.473168 -1.326016 5 0 5 
z
" style="stroke: #ffffff; stroke-width: 0.75"/>
    </defs>
    <g clip-path="url(#p8d1e0a5358)">
     <use xlink:href="#m1f3d5de352" x="276.872727" y="149.774557" style="fill: #ff7f0e; stroke: #ffffff; stroke-width: 0.75"/>
     <use xlink:href="#m1f3d5de352" x="327.6" y="159.559523" style="fill: #ff7f0e; stroke: #ffffff; stroke-width: 0.75"/>
     <use xlink:href="#m1f3d5de352" x="378.327273" y="185.227839" style="fill: #ff7f0e; stroke: #ffffff; stroke-width: 0.75"/>
     <use xlink:href="#m1f3d5de352" x="429.054545" y="207.226916" style="fill: #ff7f0e; stroke: #ffffff; stroke-width: 0.75"/>
     <use xlink:href="#m1f3d5de352" x="479.781818" y="224.80134" style="fill: #ff7f0e; stroke: #ffffff; stroke-width: 0.75"/>
     <use xlink:href="#m1f3d5de352" x="530.509091" y="249.394543" style="fill: #ff7f0e; stroke: #ffffff; stroke-width: 0.75"/>
     <use xlink:href="#m1f3d5de352" x="581.236364" y="265.269098" style="fill: #ff7f0e; stroke: #ffffff; stroke-width: 0.75"/>
     <use xlink:href="#m1f3d5de352" x="631.963636" y="280.616431" style="fill: #ff7f0e; stroke: #ffffff; stroke-width: 0.75"/>
     <use xlink:href="#m1f3d5de352" x="682.690909" y="292.202001" style="fill: #ff7f0e; stroke: #ffffff; stroke-width: 0.75"/>
     <use xlink:href="#m1f3d5de352" x="733.418182" y="308.899868" style="fill: #ff7f0e; stroke: #ffffff; stroke-width: 0.75"/>
     <use xlink:href="#m1f3d5de352" x="784.145455" y="324.073463" style="fill: #ff7f0e; stroke: #ffffff; stroke-width: 0.75"/>
     <use xlink:href="#m1f3d5de352" x="834.872727" y="342.985148" style="fill: #ff7f0e; stroke: #ffffff; stroke-width: 0.75"/>
     <use xlink:href="#m1f3d5de352" x="885.6" y="352.937852" style="fill: #ff7f0e; stroke: #ffffff; stroke-width: 0.75"/>
     <use xlink:href="#m1f3d5de352" x="936.327273" y="366.712332" style="fill: #ff7f0e; stroke: #ffffff; stroke-width: 0.75"/>
     <use xlink:href="#m1f3d5de352" x="987.054545" y="386.526212" style="fill: #ff7f0e; stroke: #ffffff; stroke-width: 0.75"/>
     <use xlink:href="#m1f3d5de352" x="1037.781818" y="406.691793" style="fill: #ff7f0e; stroke: #ffffff; stroke-width: 0.75"/>
     <use xlink:href="#m1f3d5de352" x="1088.509091" y="424.885205" style="fill: #ff7f0e; stroke: #ffffff; stroke-width: 0.75"/>
     <use xlink:href="#m1f3d5de352" x="1139.236364" y="432.46167" style="fill: #ff7f0e; stroke: #ffffff; stroke-width: 0.75"/>
     <use xlink:href="#m1f3d5de352" x="1189.963636" y="438.143941" style="fill: #ff7f0e; stroke: #ffffff; stroke-width: 0.75"/>
     <use xlink:href="#m1f3d5de352" x="1240.690909" y="442.336952" style="fill: #ff7f0e; stroke: #ffffff; stroke-width: 0.75"/>
     <use xlink:href="#m1f3d5de352" x="1291.418182" y="452.160957" style="fill: #ff7f0e; stroke: #ffffff; stroke-width: 0.75"/>
     <use xlink:href="#m1f3d5de352" x="1342.145455" y="455.430956" style="fill: #ff7f0e; stroke: #ffffff; stroke-width: 0.75"/>
     <use xlink:href="#m1f3d5de352" x="1392.872727" y="458.610935" style="fill: #ff7f0e; stroke: #ffffff; stroke-width: 0.75"/>
     <use xlink:href="#m1f3d5de352" x="1443.6" y="459.265104" style="fill: #ff7f0e; stroke: #ffffff; stroke-width: 0.75"/>
     <use xlink:href="#m1f3d5de352" x="1494.327273" y="463.063424" style="fill: #ff7f0e; stroke: #ffffff; stroke-width: 0.75"/>
    </g>
   </g>
   <g id="line2d_16">
    <path d="M 276.872727 136.242136 
L 327.6 140.725842 
L 378.327273 161.090297 
L 429.054545 182.565586 
L 479.781818 197.806692 
L 530.509091 212.082734 
L 581.236364 227.289383 
L 631.963636 241.528434 
L 682.690909 255.486094 
L 733.418182 280.861894 
L 784.145455 288.48709 
L 834.872727 297.25721 
L 885.6 319.100854 
L 936.327273 329.921091 
L 987.054545 336.274885 
L 1037.781818 340.552716 
L 1088.509091 358.417243 
L 1139.236364 367.188336 
L 1189.963636 372.457066 
L 1240.690909 380.466458 
L 1291.418182 389.403497 
L 1342.145455 396.488507 
L 1392.872727 403.701848 
L 1443.6 410.008731 
L 1494.327273 413.038227 
" clip-path="url(#p8d1e0a5358)" style="fill: none; stroke: #2ca02c; stroke-width: 1.5; stroke-linecap: square"/>
    <defs>
     <path id="m14903dbea3" d="M 0 5 
C 1.326016 5 2.597899 4.473168 3.535534 3.535534 
C 4.473168 2.597899 5 1.326016 5 0 
C 5 -1.326016 4.473168 -2.597899 3.535534 -3.535534 
C 2.597899 -4.473168 1.326016 -5 0 -5 
C -1.326016 -5 -2.597899 -4.473168 -3.535534 -3.535534 
C -4.473168 -2.597899 -5 -1.326016 -5 0 
C -5 1.326016 -4.473168 2.597899 -3.535534 3.535534 
C -2.597899 4.473168 -1.326016 5 0 5 
z
" style="stroke: #ffffff; stroke-width: 0.75"/>
    </defs>
    <g clip-path="url(#p8d1e0a5358)">
     <use xlink:href="#m14903dbea3" x="276.872727" y="136.242136" style="fill: #2ca02c; stroke: #ffffff; stroke-width: 0.75"/>
     <use xlink:href="#m14903dbea3" x="327.6" y="140.725842" style="fill: #2ca02c; stroke: #ffffff; stroke-width: 0.75"/>
     <use xlink:href="#m14903dbea3" x="378.327273" y="161.090297" style="fill: #2ca02c; stroke: #ffffff; stroke-width: 0.75"/>
     <use xlink:href="#m14903dbea3" x="429.054545" y="182.565586" style="fill: #2ca02c; stroke: #ffffff; stroke-width: 0.75"/>
     <use xlink:href="#m14903dbea3" x="479.781818" y="197.806692" style="fill: #2ca02c; stroke: #ffffff; stroke-width: 0.75"/>
     <use xlink:href="#m14903dbea3" x="530.509091" y="212.082734" style="fill: #2ca02c; stroke: #ffffff; stroke-width: 0.75"/>
     <use xlink:href="#m14903dbea3" x="581.236364" y="227.289383" style="fill: #2ca02c; stroke: #ffffff; stroke-width: 0.75"/>
     <use xlink:href="#m14903dbea3" x="631.963636" y="241.528434" style="fill: #2ca02c; stroke: #ffffff; stroke-width: 0.75"/>
     <use xlink:href="#m14903dbea3" x="682.690909" y="255.486094" style="fill: #2ca02c; stroke: #ffffff; stroke-width: 0.75"/>
     <use xlink:href="#m14903dbea3" x="733.418182" y="280.861894" style="fill: #2ca02c; stroke: #ffffff; stroke-width: 0.75"/>
     <use xlink:href="#m14903dbea3" x="784.145455" y="288.48709" style="fill: #2ca02c; stroke: #ffffff; stroke-width: 0.75"/>
     <use xlink:href="#m14903dbea3" x="834.872727" y="297.25721" style="fill: #2ca02c; stroke: #ffffff; stroke-width: 0.75"/>
     <use xlink:href="#m14903dbea3" x="885.6" y="319.100854" style="fill: #2ca02c; stroke: #ffffff; stroke-width: 0.75"/>
     <use xlink:href="#m14903dbea3" x="936.327273" y="329.921091" style="fill: #2ca02c; stroke: #ffffff; stroke-width: 0.75"/>
     <use xlink:href="#m14903dbea3" x="987.054545" y="336.274885" style="fill: #2ca02c; stroke: #ffffff; stroke-width: 0.75"/>
     <use xlink:href="#m14903dbea3" x="1037.781818" y="340.552716" style="fill: #2ca02c; stroke: #ffffff; stroke-width: 0.75"/>
     <use xlink:href="#m14903dbea3" x="1088.509091" y="358.417243" style="fill: #2ca02c; stroke: #ffffff; stroke-width: 0.75"/>
     <use xlink:href="#m14903dbea3" x="1139.236364" y="367.188336" style="fill: #2ca02c; stroke: #ffffff; stroke-width: 0.75"/>
     <use xlink:href="#m14903dbea3" x="1189.963636" y="372.457066" style="fill: #2ca02c; stroke: #ffffff; stroke-width: 0.75"/>
     <use xlink:href="#m14903dbea3" x="1240.690909" y="380.466458" style="fill: #2ca02c; stroke: #ffffff; stroke-width: 0.75"/>
     <use xlink:href="#m14903dbea3" x="1291.418182" y="389.403497" style="fill: #2ca02c; stroke: #ffffff; stroke-width: 0.75"/>
     <use xlink:href="#m14903dbea3" x="1342.145455" y="396.488507" style="fill: #2ca02c; stroke: #ffffff; stroke-width: 0.75"/>
     <use xlink:href="#m14903dbea3" x="1392.872727" y="403.701848" style="fill: #2ca02c; stroke: #ffffff; stroke-width: 0.75"/>
     <use xlink:href="#m14903dbea3" x="1443.6" y="410.008731" style="fill: #2ca02c; stroke: #ffffff; stroke-width: 0.75"/>
     <use xlink:href="#m14903dbea3" x="1494.327273" y="413.038227" style="fill: #2ca02c; stroke: #ffffff; stroke-width: 0.75"/>
    </g>
   </g>
   <g id="line2d_17">
    <path d="M 276.872727 126.393393 
L 327.6 131.225347 
L 378.327273 152.204067 
L 429.054545 171.244102 
L 479.781818 180.947595 
L 530.509091 193.600181 
L 581.236364 200.964693 
L 631.963636 216.263724 
L 682.690909 232.861797 
L 733.418182 254.297263 
L 784.145455 261.097937 
L 834.872727 272.289819 
L 885.6 277.730861 
L 936.327273 283.16295 
L 987.054545 288.427893 
L 1037.781818 299.562701 
L 1088.509091 314.117191 
L 1139.236364 325.253871 
L 1189.963636 333.899808 
L 1240.690909 340.736609 
L 1291.418182 343.202477 
L 1342.145455 347.357306 
L 1392.872727 350.276852 
L 1443.6 350.9613 
L 1494.327273 354.084217 
" clip-path="url(#p8d1e0a5358)" style="fill: none; stroke: #d62728; stroke-width: 1.5; stroke-linecap: square"/>
    <defs>
     <path id="m712c5d3fd6" d="M 0 5 
C 1.326016 5 2.597899 4.473168 3.535534 3.535534 
C 4.473168 2.597899 5 1.326016 5 0 
C 5 -1.326016 4.473168 -2.597899 3.535534 -3.535534 
C 2.597899 -4.473168 1.326016 -5 0 -5 
C -1.326016 -5 -2.597899 -4.473168 -3.535534 -3.535534 
C -4.473168 -2.597899 -5 -1.326016 -5 0 
C -5 1.326016 -4.473168 2.597899 -3.535534 3.535534 
C -2.597899 4.473168 -1.326016 5 0 5 
z
" style="stroke: #ffffff; stroke-width: 0.75"/>
    </defs>
    <g clip-path="url(#p8d1e0a5358)">
     <use xlink:href="#m712c5d3fd6" x="276.872727" y="126.393393" style="fill: #d62728; stroke: #ffffff; stroke-width: 0.75"/>
     <use xlink:href="#m712c5d3fd6" x="327.6" y="131.225347" style="fill: #d62728; stroke: #ffffff; stroke-width: 0.75"/>
     <use xlink:href="#m712c5d3fd6" x="378.327273" y="152.204067" style="fill: #d62728; stroke: #ffffff; stroke-width: 0.75"/>
     <use xlink:href="#m712c5d3fd6" x="429.054545" y="171.244102" style="fill: #d62728; stroke: #ffffff; stroke-width: 0.75"/>
     <use xlink:href="#m712c5d3fd6" x="479.781818" y="180.947595" style="fill: #d62728; stroke: #ffffff; stroke-width: 0.75"/>
     <use xlink:href="#m712c5d3fd6" x="530.509091" y="193.600181" style="fill: #d62728; stroke: #ffffff; stroke-width: 0.75"/>
     <use xlink:href="#m712c5d3fd6" x="581.236364" y="200.964693" style="fill: #d62728; stroke: #ffffff; stroke-width: 0.75"/>
     <use xlink:href="#m712c5d3fd6" x="631.963636" y="216.263724" style="fill: #d62728; stroke: #ffffff; stroke-width: 0.75"/>
     <use xlink:href="#m712c5d3fd6" x="682.690909" y="232.861797" style="fill: #d62728; stroke: #ffffff; stroke-width: 0.75"/>
     <use xlink:href="#m712c5d3fd6" x="733.418182" y="254.297263" style="fill: #d62728; stroke: #ffffff; stroke-width: 0.75"/>
     <use xlink:href="#m712c5d3fd6" x="784.145455" y="261.097937" style="fill: #d62728; stroke: #ffffff; stroke-width: 0.75"/>
     <use xlink:href="#m712c5d3fd6" x="834.872727" y="272.289819" style="fill: #d62728; stroke: #ffffff; stroke-width: 0.75"/>
     <use xlink:href="#m712c5d3fd6" x="885.6" y="277.730861" style="fill: #d62728; stroke: #ffffff; stroke-width: 0.75"/>
     <use xlink:href="#m712c5d3fd6" x="936.327273" y="283.16295" style="fill: #d62728; stroke: #ffffff; stroke-width: 0.75"/>
     <use xlink:href="#m712c5d3fd6" x="987.054545" y="288.427893" style="fill: #d62728; stroke: #ffffff; stroke-width: 0.75"/>
     <use xlink:href="#m712c5d3fd6" x="1037.781818" y="299.562701" style="fill: #d62728; stroke: #ffffff; stroke-width: 0.75"/>
     <use xlink:href="#m712c5d3fd6" x="1088.509091" y="314.117191" style="fill: #d62728; stroke: #ffffff; stroke-width: 0.75"/>
     <use xlink:href="#m712c5d3fd6" x="1139.236364" y="325.253871" style="fill: #d62728; stroke: #ffffff; stroke-width: 0.75"/>
     <use xlink:href="#m712c5d3fd6" x="1189.963636" y="333.899808" style="fill: #d62728; stroke: #ffffff; stroke-width: 0.75"/>
     <use xlink:href="#m712c5d3fd6" x="1240.690909" y="340.736609" style="fill: #d62728; stroke: #ffffff; stroke-width: 0.75"/>
     <use xlink:href="#m712c5d3fd6" x="1291.418182" y="343.202477" style="fill: #d62728; stroke: #ffffff; stroke-width: 0.75"/>
     <use xlink:href="#m712c5d3fd6" x="1342.145455" y="347.357306" style="fill: #d62728; stroke: #ffffff; stroke-width: 0.75"/>
     <use xlink:href="#m712c5d3fd6" x="1392.872727" y="350.276852" style="fill: #d62728; stroke: #ffffff; stroke-width: 0.75"/>
     <use xlink:href="#m712c5d3fd6" x="1443.6" y="350.9613" style="fill: #d62728; stroke: #ffffff; stroke-width: 0.75"/>
     <use xlink:href="#m712c5d3fd6" x="1494.327273" y="354.084217" style="fill: #d62728; stroke: #ffffff; stroke-width: 0.75"/>
    </g>
   </g>
   <g id="line2d_18">
    <path d="M 276.872727 104.899967 
L 327.6 108.878894 
L 378.327273 137.286804 
L 429.054545 150.342288 
L 479.781818 157.333346 
L 530.509091 175.367189 
L 581.236364 188.89161 
L 631.963636 196.279425 
L 682.690909 214.629242 
L 733.418182 220.508483 
L 784.145455 233.791363 
L 834.872727 248.926587 
L 885.6 257.170904 
L 936.327273 265.622818 
L 987.054545 267.613738 
L 1037.781818 276.158638 
L 1088.509091 288.643494 
L 1139.236364 303.109572 
L 1189.963636 314.447226 
L 1240.690909 319.246216 
L 1291.418182 322.483808 
L 1342.145455 322.633018 
L 1392.872727 328.963176 
L 1443.6 333.420086 
L 1494.327273 336.81688 
" clip-path="url(#p8d1e0a5358)" style="fill: none; stroke: #9467bd; stroke-width: 1.5; stroke-linecap: square"/>
    <defs>
     <path id="m746fbdc341" d="M 0 5 
C 1.326016 5 2.597899 4.473168 3.535534 3.535534 
C 4.473168 2.597899 5 1.326016 5 0 
C 5 -1.326016 4.473168 -2.597899 3.535534 -3.535534 
C 2.597899 -4.473168 1.326016 -5 0 -5 
C -1.326016 -5 -2.597899 -4.473168 -3.535534 -3.535534 
C -4.473168 -2.597899 -5 -1.326016 -5 0 
C -5 1.326016 -4.473168 2.597899 -3.535534 3.535534 
C -2.597899 4.473168 -1.326016 5 0 5 
z
" style="stroke: #ffffff; stroke-width: 0.75"/>
    </defs>
    <g clip-path="url(#p8d1e0a5358)">
     <use xlink:href="#m746fbdc341" x="276.872727" y="104.899967" style="fill: #9467bd; stroke: #ffffff; stroke-width: 0.75"/>
     <use xlink:href="#m746fbdc341" x="327.6" y="108.878894" style="fill: #9467bd; stroke: #ffffff; stroke-width: 0.75"/>
     <use xlink:href="#m746fbdc341" x="378.327273" y="137.286804" style="fill: #9467bd; stroke: #ffffff; stroke-width: 0.75"/>
     <use xlink:href="#m746fbdc341" x="429.054545" y="150.342288" style="fill: #9467bd; stroke: #ffffff; stroke-width: 0.75"/>
     <use xlink:href="#m746fbdc341" x="479.781818" y="157.333346" style="fill: #9467bd; stroke: #ffffff; stroke-width: 0.75"/>
     <use xlink:href="#m746fbdc341" x="530.509091" y="175.367189" style="fill: #9467bd; stroke: #ffffff; stroke-width: 0.75"/>
     <use xlink:href="#m746fbdc341" x="581.236364" y="188.89161" style="fill: #9467bd; stroke: #ffffff; stroke-width: 0.75"/>
     <use xlink:href="#m746fbdc341" x="631.963636" y="196.279425" style="fill: #9467bd; stroke: #ffffff; stroke-width: 0.75"/>
     <use xlink:href="#m746fbdc341" x="682.690909" y="214.629242" style="fill: #9467bd; stroke: #ffffff; stroke-width: 0.75"/>
     <use xlink:href="#m746fbdc341" x="733.418182" y="220.508483" style="fill: #9467bd; stroke: #ffffff; stroke-width: 0.75"/>
     <use xlink:href="#m746fbdc341" x="784.145455" y="233.791363" style="fill: #9467bd; stroke: #ffffff; stroke-width: 0.75"/>
     <use xlink:href="#m746fbdc341" x="834.872727" y="248.926587" style="fill: #9467bd; stroke: #ffffff; stroke-width: 0.75"/>
     <use xlink:href="#m746fbdc341" x="885.6" y="257.170904" style="fill: #9467bd; stroke: #ffffff; stroke-width: 0.75"/>
     <use xlink:href="#m746fbdc341" x="936.327273" y="265.622818" style="fill: #9467bd; stroke: #ffffff; stroke-width: 0.75"/>
     <use xlink:href="#m746fbdc341" x="987.054545" y="267.613738" style="fill: #9467bd; stroke: #ffffff; stroke-width: 0.75"/>
     <use xlink:href="#m746fbdc341" x="1037.781818" y="276.158638" style="fill: #9467bd; stroke: #ffffff; stroke-width: 0.75"/>
     <use xlink:href="#m746fbdc341" x="1088.509091" y="288.643494" style="fill: #9467bd; stroke: #ffffff; stroke-width: 0.75"/>
     <use xlink:href="#m746fbdc341" x="1139.236364" y="303.109572" style="fill: #9467bd; stroke: #ffffff; stroke-width: 0.75"/>
     <use xlink:href="#m746fbdc341" x="1189.963636" y="314.447226" style="fill: #9467bd; stroke: #ffffff; stroke-width: 0.75"/>
     <use xlink:href="#m746fbdc341" x="1240.690909" y="319.246216" style="fill: #9467bd; stroke: #ffffff; stroke-width: 0.75"/>
     <use xlink:href="#m746fbdc341" x="1291.418182" y="322.483808" style="fill: #9467bd; stroke: #ffffff; stroke-width: 0.75"/>
     <use xlink:href="#m746fbdc341" x="1342.145455" y="322.633018" style="fill: #9467bd; stroke: #ffffff; stroke-width: 0.75"/>
     <use xlink:href="#m746fbdc341" x="1392.872727" y="328.963176" style="fill: #9467bd; stroke: #ffffff; stroke-width: 0.75"/>
     <use xlink:href="#m746fbdc341" x="1443.6" y="333.420086" style="fill: #9467bd; stroke: #ffffff; stroke-width: 0.75"/>
     <use xlink:href="#m746fbdc341" x="1494.327273" y="336.81688" style="fill: #9467bd; stroke: #ffffff; stroke-width: 0.75"/>
    </g>
   </g>
   <g id="line2d_19">
    <path d="M 276.872727 89.845624 
L 327.6 96.638687 
L 378.327273 145.84982 
L 429.054545 158.433075 
L 479.781818 161.371306 
L 530.509091 173.04485 
L 581.236364 182.624495 
L 631.963636 197.340196 
L 682.690909 207.818281 
L 733.418182 208.830635 
L 784.145455 215.122065 
L 834.872727 220.28386 
L 885.6 227.992458 
L 936.327273 231.053962 
L 987.054545 238.303403 
L 1037.781818 247.527807 
L 1088.509091 264.91661 
L 1139.236364 267.404821 
L 1189.963636 292.33814 
L 1240.690909 300.909914 
L 1291.418182 303.307823 
L 1342.145455 305.82565 
L 1392.872727 308.188715 
L 1443.6 312.941779 
L 1494.327273 315.62502 
" clip-path="url(#p8d1e0a5358)" style="fill: none; stroke: #8c564b; stroke-width: 1.5; stroke-linecap: square"/>
    <defs>
     <path id="m6e2260ed6b" d="M 0 5 
C 1.326016 5 2.597899 4.473168 3.535534 3.535534 
C 4.473168 2.597899 5 1.326016 5 0 
C 5 -1.326016 4.473168 -2.597899 3.535534 -3.535534 
C 2.597899 -4.473168 1.326016 -5 0 -5 
C -1.326016 -5 -2.597899 -4.473168 -3.535534 -3.535534 
C -4.473168 -2.597899 -5 -1.326016 -5 0 
C -5 1.326016 -4.473168 2.597899 -3.535534 3.535534 
C -2.597899 4.473168 -1.326016 5 0 5 
z
" style="stroke: #ffffff; stroke-width: 0.75"/>
    </defs>
    <g clip-path="url(#p8d1e0a5358)">
     <use xlink:href="#m6e2260ed6b" x="276.872727" y="89.845624" style="fill: #8c564b; stroke: #ffffff; stroke-width: 0.75"/>
     <use xlink:href="#m6e2260ed6b" x="327.6" y="96.638687" style="fill: #8c564b; stroke: #ffffff; stroke-width: 0.75"/>
     <use xlink:href="#m6e2260ed6b" x="378.327273" y="145.84982" style="fill: #8c564b; stroke: #ffffff; stroke-width: 0.75"/>
     <use xlink:href="#m6e2260ed6b" x="429.054545" y="158.433075" style="fill: #8c564b; stroke: #ffffff; stroke-width: 0.75"/>
     <use xlink:href="#m6e2260ed6b" x="479.781818" y="161.371306" style="fill: #8c564b; stroke: #ffffff; stroke-width: 0.75"/>
     <use xlink:href="#m6e2260ed6b" x="530.509091" y="173.04485" style="fill: #8c564b; stroke: #ffffff; stroke-width: 0.75"/>
     <use xlink:href="#m6e2260ed6b" x="581.236364" y="182.624495" style="fill: #8c564b; stroke: #ffffff; stroke-width: 0.75"/>
     <use xlink:href="#m6e2260ed6b" x="631.963636" y="197.340196" style="fill: #8c564b; stroke: #ffffff; stroke-width: 0.75"/>
     <use xlink:href="#m6e2260ed6b" x="682.690909" y="207.818281" style="fill: #8c564b; stroke: #ffffff; stroke-width: 0.75"/>
     <use xlink:href="#m6e2260ed6b" x="733.418182" y="208.830635" style="fill: #8c564b; stroke: #ffffff; stroke-width: 0.75"/>
     <use xlink:href="#m6e2260ed6b" x="784.145455" y="215.122065" style="fill: #8c564b; stroke: #ffffff; stroke-width: 0.75"/>
     <use xlink:href="#m6e2260ed6b" x="834.872727" y="220.28386" style="fill: #8c564b; stroke: #ffffff; stroke-width: 0.75"/>
     <use xlink:href="#m6e2260ed6b" x="885.6" y="227.992458" style="fill: #8c564b; stroke: #ffffff; stroke-width: 0.75"/>
     <use xlink:href="#m6e2260ed6b" x="936.327273" y="231.053962" style="fill: #8c564b; stroke: #ffffff; stroke-width: 0.75"/>
     <use xlink:href="#m6e2260ed6b" x="987.054545" y="238.303403" style="fill: #8c564b; stroke: #ffffff; stroke-width: 0.75"/>
     <use xlink:href="#m6e2260ed6b" x="1037.781818" y="247.527807" style="fill: #8c564b; stroke: #ffffff; stroke-width: 0.75"/>
     <use xlink:href="#m6e2260ed6b" x="1088.509091" y="264.91661" style="fill: #8c564b; stroke: #ffffff; stroke-width: 0.75"/>
     <use xlink:href="#m6e2260ed6b" x="1139.236364" y="267.404821" style="fill: #8c564b; stroke: #ffffff; stroke-width: 0.75"/>
     <use xlink:href="#m6e2260ed6b" x="1189.963636" y="292.33814" style="fill: #8c564b; stroke: #ffffff; stroke-width: 0.75"/>
     <use xlink:href="#m6e2260ed6b" x="1240.690909" y="300.909914" style="fill: #8c564b; stroke: #ffffff; stroke-width: 0.75"/>
     <use xlink:href="#m6e2260ed6b" x="1291.418182" y="303.307823" style="fill: #8c564b; stroke: #ffffff; stroke-width: 0.75"/>
     <use xlink:href="#m6e2260ed6b" x="1342.145455" y="305.82565" style="fill: #8c564b; stroke: #ffffff; stroke-width: 0.75"/>
     <use xlink:href="#m6e2260ed6b" x="1392.872727" y="308.188715" style="fill: #8c564b; stroke: #ffffff; stroke-width: 0.75"/>
     <use xlink:href="#m6e2260ed6b" x="1443.6" y="312.941779" style="fill: #8c564b; stroke: #ffffff; stroke-width: 0.75"/>
     <use xlink:href="#m6e2260ed6b" x="1494.327273" y="315.62502" style="fill: #8c564b; stroke: #ffffff; stroke-width: 0.75"/>
    </g>
   </g>
   <g id="line2d_20"/>
   <g id="line2d_21"/>
   <g id="line2d_22"/>
   <g id="line2d_23"/>
   <g id="line2d_24"/>
   <g id="line2d_25"/>
   <g id="patch_3">
    <path d="M 216 512.64 
L 216 69.12 
" style="fill: none; stroke: #ffffff; stroke-width: 0.8; stroke-linejoin: miter; stroke-linecap: square"/>
   </g>
   <g id="patch_4">
    <path d="M 1555.2 512.64 
L 1555.2 69.12 
" style="fill: none; stroke: #ffffff; stroke-width: 0.8; stroke-linejoin: miter; stroke-linecap: square"/>
   </g>
   <g id="patch_5">
    <path d="M 216 512.64 
L 1555.2 512.64 
" style="fill: none; stroke: #ffffff; stroke-width: 0.8; stroke-linejoin: miter; stroke-linecap: square"/>
   </g>
   <g id="patch_6">
    <path d="M 216 69.12 
L 1555.2 69.12 
" style="fill: none; stroke: #ffffff; stroke-width: 0.8; stroke-linejoin: miter; stroke-linecap: square"/>
   </g>
   <g id="legend_1">
    <g id="patch_7">
     <path d="M 1392.107813 261.163125 
L 1548.2 261.163125 
Q 1550.2 261.163125 1550.2 259.163125 
L 1550.2 76.12 
Q 1550.2 74.12 1548.2 74.12 
L 1392.107813 74.12 
Q 1390.107813 74.12 1390.107813 76.12 
L 1390.107813 259.163125 
Q 1390.107813 261.163125 1392.107813 261.163125 
z
" style="fill: #ffffff; opacity: 0.3; stroke: #cccccc; stroke-linejoin: miter"/>
    </g>
    <g id="text_16">
     <!-- Num. clusters -->
     <g style="fill: #ffffff" transform="translate(1394.107813 94.836563) scale(0.22 -0.22)">
      <defs>
       <path id="DejaVuSans-20" transform="scale(0.015625)"/>
       <path id="DejaVuSans-63" d="M 3122 3366 
L 3122 2828 
Q 2878 2963 2633 3030 
Q 2388 3097 2138 3097 
Q 1578 3097 1268 2742 
Q 959 2388 959 1747 
Q 959 1106 1268 751 
Q 1578 397 2138 397 
Q 2388 397 2633 464 
Q 2878 531 3122 666 
L 3122 134 
Q 2881 22 2623 -34 
Q 2366 -91 2075 -91 
Q 1284 -91 818 406 
Q 353 903 353 1747 
Q 353 2603 823 3093 
Q 1294 3584 2113 3584 
Q 2378 3584 2631 3529 
Q 2884 3475 3122 3366 
z
" transform="scale(0.015625)"/>
       <path id="DejaVuSans-6c" d="M 603 4863 
L 1178 4863 
L 1178 0 
L 603 0 
L 603 4863 
z
" transform="scale(0.015625)"/>
      </defs>
      <use xlink:href="#DejaVuSans-4e"/>
      <use xlink:href="#DejaVuSans-75" x="74.804688"/>
      <use xlink:href="#DejaVuSans-6d" x="138.183594"/>
      <use xlink:href="#DejaVuSans-2e" x="235.595703"/>
      <use xlink:href="#DejaVuSans-20" x="267.382812"/>
      <use xlink:href="#DejaVuSans-63" x="299.169922"/>
      <use xlink:href="#DejaVuSans-6c" x="354.150391"/>
      <use xlink:href="#DejaVuSans-75" x="381.933594"/>
      <use xlink:href="#DejaVuSans-73" x="445.3125"/>
      <use xlink:href="#DejaVuSans-74" x="497.412109"/>
      <use xlink:href="#DejaVuSans-65" x="536.621094"/>
      <use xlink:href="#DejaVuSans-72" x="598.144531"/>
      <use xlink:href="#DejaVuSans-73" x="639.257812"/>
     </g>
    </g>
    <g id="line2d_26">
     <path d="M 1409.515625 117.628438 
L 1419.515625 117.628438 
L 1429.515625 117.628438 
" style="fill: none; stroke: #1f77b4; stroke-width: 1.5; stroke-linecap: square"/>
     <g>
      <use xlink:href="#m219787afac" x="1419.515625" y="117.628438" style="fill: #1f77b4; stroke: #ffffff; stroke-width: 0.75"/>
     </g>
    </g>
    <g id="text_17">
     <!-- 2 -->
     <g style="fill: #ffffff" transform="translate(1437.515625 121.128438) scale(0.22 -0.22)">
      <use xlink:href="#DejaVuSans-32"/>
     </g>
    </g>
    <g id="line2d_27">
     <path d="M 1409.515625 143.920313 
L 1419.515625 143.920313 
L 1429.515625 143.920313 
" style="fill: none; stroke: #ff7f0e; stroke-width: 1.5; stroke-linecap: square"/>
     <g>
      <use xlink:href="#m1f3d5de352" x="1419.515625" y="143.920313" style="fill: #ff7f0e; stroke: #ffffff; stroke-width: 0.75"/>
     </g>
    </g>
    <g id="text_18">
     <!-- 5 -->
     <g style="fill: #ffffff" transform="translate(1437.515625 147.420313) scale(0.22 -0.22)">
      <use xlink:href="#DejaVuSans-35"/>
     </g>
    </g>
    <g id="line2d_28">
     <path d="M 1409.515625 170.212188 
L 1419.515625 170.212188 
L 1429.515625 170.212188 
" style="fill: none; stroke: #2ca02c; stroke-width: 1.5; stroke-linecap: square"/>
     <g>
      <use xlink:href="#m14903dbea3" x="1419.515625" y="170.212188" style="fill: #2ca02c; stroke: #ffffff; stroke-width: 0.75"/>
     </g>
    </g>
    <g id="text_19">
     <!-- 10 -->
     <g style="fill: #ffffff" transform="translate(1437.515625 173.712188) scale(0.22 -0.22)">
      <use xlink:href="#DejaVuSans-31"/>
      <use xlink:href="#DejaVuSans-30" x="63.623047"/>
     </g>
    </g>
    <g id="line2d_29">
     <path d="M 1409.515625 196.504063 
L 1419.515625 196.504063 
L 1429.515625 196.504063 
" style="fill: none; stroke: #d62728; stroke-width: 1.5; stroke-linecap: square"/>
     <g>
      <use xlink:href="#m712c5d3fd6" x="1419.515625" y="196.504063" style="fill: #d62728; stroke: #ffffff; stroke-width: 0.75"/>
     </g>
    </g>
    <g id="text_20">
     <!-- 15 -->
     <g style="fill: #ffffff" transform="translate(1437.515625 200.004063) scale(0.22 -0.22)">
      <use xlink:href="#DejaVuSans-31"/>
      <use xlink:href="#DejaVuSans-35" x="63.623047"/>
     </g>
    </g>
    <g id="line2d_30">
     <path d="M 1409.515625 222.795938 
L 1419.515625 222.795938 
L 1429.515625 222.795938 
" style="fill: none; stroke: #9467bd; stroke-width: 1.5; stroke-linecap: square"/>
     <g>
      <use xlink:href="#m746fbdc341" x="1419.515625" y="222.795938" style="fill: #9467bd; stroke: #ffffff; stroke-width: 0.75"/>
     </g>
    </g>
    <g id="text_21">
     <!-- 25 -->
     <g style="fill: #ffffff" transform="translate(1437.515625 226.295938) scale(0.22 -0.22)">
      <use xlink:href="#DejaVuSans-32"/>
      <use xlink:href="#DejaVuSans-35" x="63.623047"/>
     </g>
    </g>
    <g id="line2d_31">
     <path d="M 1409.515625 249.087813 
L 1419.515625 249.087813 
L 1429.515625 249.087813 
" style="fill: none; stroke: #8c564b; stroke-width: 1.5; stroke-linecap: square"/>
     <g>
      <use xlink:href="#m6e2260ed6b" x="1419.515625" y="249.087813" style="fill: #8c564b; stroke: #ffffff; stroke-width: 0.75"/>
     </g>
    </g>
    <g id="text_22">
     <!-- Baseline -->
     <g style="fill: #ffffff" transform="translate(1437.515625 252.587813) scale(0.22 -0.22)">
      <use xlink:href="#DejaVuSans-42"/>
      <use xlink:href="#DejaVuSans-61" x="68.603516"/>
      <use xlink:href="#DejaVuSans-73" x="129.882812"/>
      <use xlink:href="#DejaVuSans-65" x="181.982422"/>
      <use xlink:href="#DejaVuSans-6c" x="243.505859"/>
      <use xlink:href="#DejaVuSans-69" x="271.289062"/>
      <use xlink:href="#DejaVuSans-6e" x="299.072266"/>
      <use xlink:href="#DejaVuSans-65" x="362.451172"/>
     </g>
    </g>
   </g>
  </g>
 </g>
 <defs>
  <clipPath id="p8d1e0a5358">
   <rect x="216" y="69.12" width="1339.2" height="443.52"/>
  </clipPath>
 </defs>
</svg>
