<?xml version="1.0" encoding="utf-8" standalone="no"?>
<!DOCTYPE svg PUBLIC "-//W3C//DTD SVG 1.1//EN"
  "http://www.w3.org/Graphics/SVG/1.1/DTD/svg11.dtd">
<svg xmlns:xlink="http://www.w3.org/1999/xlink" width="1728pt" height="576pt" viewBox="0 0 1728 576" xmlns="http://www.w3.org/2000/svg" version="1.1">
 <metadata>
  <rdf:RDF xmlns:dc="http://purl.org/dc/elements/1.1/" xmlns:cc="http://creativecommons.org/ns#" xmlns:rdf="http://www.w3.org/1999/02/22-rdf-syntax-ns#">
   <cc:Work>
    <dc:type rdf:resource="http://purl.org/dc/dcmitype/StillImage"/>
    <dc:date>2024-04-04T21:33:47.260131</dc:date>
    <dc:format>image/svg+xml</dc:format>
    <dc:creator>
     <cc:Agent>
      <dc:title>Matplotlib v3.8.3, https://matplotlib.org/</dc:title>
     </cc:Agent>
    </dc:creator>
   </cc:Work>
  </rdf:RDF>
 </metadata>
 <defs>
  <style type="text/css">*{stroke-linejoin: round; stroke-linecap: butt}</style>
 </defs>
 <g id="figure_1">
  <g id="patch_1">
   <path d="M 0 576 
L 1728 576 
L 1728 0 
L 0 0 
L 0 576 
z
" style="fill: none"/>
  </g>
  <g id="axes_1">
   <g id="patch_2">
    <path d="M 216 512.64 
L 1555.2 512.64 
L 1555.2 69.12 
L 216 69.12 
L 216 512.64 
z
" style="fill: none"/>
   </g>
   <g id="PolyCollection_1">
    <defs>
     <path id="m3ffe877777" d="M 276.872727 -441.717393 
L 276.872727 -405.38381 
L 327.6 -398.110189 
L 378.327273 -376.619888 
L 429.054545 -362.959694 
L 479.781818 -353.921352 
L 530.509091 -340.352777 
L 581.236364 -326.227353 
L 631.963636 -308.226228 
L 682.690909 -300.283916 
L 733.418182 -279.948283 
L 784.145455 -254.286992 
L 834.872727 -227.600364 
L 885.6 -208.370327 
L 936.327273 -194.794802 
L 987.054545 -178.913525 
L 1037.781818 -162.390725 
L 1088.509091 -156.603812 
L 1139.236364 -144.13398 
L 1189.963636 -129.088477 
L 1240.690909 -118.291789 
L 1291.418182 -115.931034 
L 1342.145455 -112.017979 
L 1392.872727 -107.002317 
L 1443.6 -104.57497 
L 1494.327273 -102.108598 
L 1494.327273 -149.172707 
L 1494.327273 -149.172707 
L 1443.6 -158.156635 
L 1392.872727 -159.593237 
L 1342.145455 -164.040537 
L 1291.418182 -173.894925 
L 1240.690909 -173.17317 
L 1189.963636 -190.039007 
L 1139.236364 -204.809716 
L 1088.509091 -218.398923 
L 1037.781818 -229.023387 
L 987.054545 -248.338565 
L 936.327273 -263.574633 
L 885.6 -279.052423 
L 834.872727 -294.403708 
L 784.145455 -319.868111 
L 733.418182 -334.901704 
L 682.690909 -355.470051 
L 631.963636 -366.66576 
L 581.236364 -383.384267 
L 530.509091 -397.860926 
L 479.781818 -412.422474 
L 429.054545 -420.00282 
L 378.327273 -429.238043 
L 327.6 -439.353325 
L 276.872727 -441.717393 
z
" style="stroke: #1f77b4; stroke-opacity: 0.2"/>
    </defs>
    <g clip-path="url(#pd98ac49440)">
     <use xlink:href="#m3ffe877777" x="0" y="576" style="fill: #1f77b4; fill-opacity: 0.2; stroke: #1f77b4; stroke-opacity: 0.2"/>
    </g>
   </g>
   <g id="PolyCollection_2">
    <defs>
     <path id="mb12f741dd7" d="M 276.872727 -458.048429 
L 276.872727 -419.535501 
L 327.6 -403.695706 
L 378.327273 -390.980894 
L 429.054545 -364.999909 
L 479.781818 -345.567056 
L 530.509091 -320.435485 
L 581.236364 -287.74829 
L 631.963636 -253.203688 
L 682.690909 -240.819353 
L 733.418182 -235.199298 
L 784.145455 -224.440359 
L 834.872727 -206.230017 
L 885.6 -194.729421 
L 936.327273 -174.801966 
L 987.054545 -158.153691 
L 1037.781818 -146.320591 
L 1088.509091 -134.059774 
L 1139.236364 -128.182923 
L 1189.963636 -113.123141 
L 1240.690909 -104.685491 
L 1291.418182 -99.972878 
L 1342.145455 -93.340867 
L 1392.872727 -89.094617 
L 1443.6 -85.070484 
L 1494.327273 -83.52 
L 1494.327273 -130.909398 
L 1494.327273 -130.909398 
L 1443.6 -133.692354 
L 1392.872727 -137.479838 
L 1342.145455 -145.455767 
L 1291.418182 -153.840357 
L 1240.690909 -165.242655 
L 1189.963636 -176.893736 
L 1139.236364 -201.028838 
L 1088.509091 -210.117039 
L 1037.781818 -220.613446 
L 987.054545 -240.520702 
L 936.327273 -257.82056 
L 885.6 -282.944482 
L 834.872727 -295.455313 
L 784.145455 -306.426032 
L 733.418182 -314.437768 
L 682.690909 -320.60848 
L 631.963636 -328.880543 
L 581.236364 -358.847319 
L 530.509091 -380.29757 
L 479.781818 -411.447872 
L 429.054545 -426.792712 
L 378.327273 -443.945043 
L 327.6 -450.068749 
L 276.872727 -458.048429 
z
" style="stroke: #ff7f0e; stroke-opacity: 0.2"/>
    </defs>
    <g clip-path="url(#pd98ac49440)">
     <use xlink:href="#mb12f741dd7" x="0" y="576" style="fill: #ff7f0e; fill-opacity: 0.2; stroke: #ff7f0e; stroke-opacity: 0.2"/>
    </g>
   </g>
   <g id="PolyCollection_3">
    <defs>
     <path id="m3b53ee4cf9" d="M 276.872727 -453.507676 
L 276.872727 -383.294639 
L 327.6 -367.793948 
L 378.327273 -333.618269 
L 429.054545 -317.302916 
L 479.781818 -302.162635 
L 530.509091 -292.499951 
L 581.236364 -281.730325 
L 631.963636 -266.060498 
L 682.690909 -249.024296 
L 733.418182 -237.414843 
L 784.145455 -226.471591 
L 834.872727 -213.789625 
L 885.6 -207.592387 
L 936.327273 -206.474608 
L 987.054545 -198.0062 
L 1037.781818 -194.5465 
L 1088.509091 -190.318619 
L 1139.236364 -173.898547 
L 1189.963636 -171.709608 
L 1240.690909 -169.463436 
L 1291.418182 -169.087469 
L 1342.145455 -169.270551 
L 1392.872727 -165.921249 
L 1443.6 -168.388417 
L 1494.327273 -161.473307 
L 1494.327273 -245.53716 
L 1494.327273 -245.53716 
L 1443.6 -251.445037 
L 1392.872727 -254.902994 
L 1342.145455 -256.07196 
L 1291.418182 -252.269031 
L 1240.690909 -258.649123 
L 1189.963636 -254.695875 
L 1139.236364 -262.033067 
L 1088.509091 -278.238619 
L 1037.781818 -284.218839 
L 987.054545 -285.491412 
L 936.327273 -288.482552 
L 885.6 -294.423287 
L 834.872727 -306.605366 
L 784.145455 -308.528217 
L 733.418182 -319.443421 
L 682.690909 -327.879873 
L 631.963636 -343.453303 
L 581.236364 -368.063835 
L 530.509091 -376.774329 
L 479.781818 -386.806458 
L 429.054545 -400.761846 
L 378.327273 -413.424802 
L 327.6 -441.300803 
L 276.872727 -453.507676 
z
" style="stroke: #2ca02c; stroke-opacity: 0.2"/>
    </defs>
    <g clip-path="url(#pd98ac49440)">
     <use xlink:href="#m3b53ee4cf9" x="0" y="576" style="fill: #2ca02c; fill-opacity: 0.2; stroke: #2ca02c; stroke-opacity: 0.2"/>
    </g>
   </g>
   <g id="PolyCollection_4">
    <defs>
     <path id="meb21dbaf97" d="M 276.872727 -486.175553 
L 276.872727 -445.622108 
L 327.6 -435.904536 
L 378.327273 -374.044364 
L 429.054545 -362.094737 
L 479.781818 -346.007674 
L 530.509091 -328.11731 
L 581.236364 -312.7586 
L 631.963636 -306.179837 
L 682.690909 -293.991144 
L 733.418182 -278.638958 
L 784.145455 -269.63745 
L 834.872727 -268.822596 
L 885.6 -265.763015 
L 936.327273 -256.570311 
L 987.054545 -252.659662 
L 1037.781818 -248.967402 
L 1088.509091 -244.176558 
L 1139.236364 -240.750467 
L 1189.963636 -223.581199 
L 1240.690909 -219.333164 
L 1291.418182 -217.312562 
L 1342.145455 -210.5395 
L 1392.872727 -206.340843 
L 1443.6 -201.583565 
L 1494.327273 -201.080792 
L 1494.327273 -285.227978 
L 1494.327273 -285.227978 
L 1443.6 -287.291958 
L 1392.872727 -290.664671 
L 1342.145455 -291.94319 
L 1291.418182 -298.277977 
L 1240.690909 -300.698896 
L 1189.963636 -307.073403 
L 1139.236364 -332.304877 
L 1088.509091 -335.018841 
L 1037.781818 -341.726999 
L 987.054545 -340.754527 
L 936.327273 -343.753524 
L 885.6 -351.681179 
L 834.872727 -355.894769 
L 784.145455 -357.099272 
L 733.418182 -363.257295 
L 682.690909 -367.84627 
L 631.963636 -382.404385 
L 581.236364 -385.119951 
L 530.509091 -404.312975 
L 479.781818 -423.722088 
L 429.054545 -433.831095 
L 378.327273 -443.46421 
L 327.6 -478.132715 
L 276.872727 -486.175553 
z
" style="stroke: #d62728; stroke-opacity: 0.2"/>
    </defs>
    <g clip-path="url(#pd98ac49440)">
     <use xlink:href="#meb21dbaf97" x="0" y="576" style="fill: #d62728; fill-opacity: 0.2; stroke: #d62728; stroke-opacity: 0.2"/>
    </g>
   </g>
   <g id="PolyCollection_5">
    <defs>
     <path id="m44528bc1a4" d="M 276.872727 -483.757809 
L 276.872727 -423.962909 
L 327.6 -413.149678 
L 378.327273 -362.154235 
L 429.054545 -345.625368 
L 479.781818 -341.731557 
L 530.509091 -331.117334 
L 581.236364 -324.604615 
L 631.963636 -308.978467 
L 682.690909 -287.008103 
L 733.418182 -277.70621 
L 784.145455 -272.785256 
L 834.872727 -269.751806 
L 885.6 -267.513491 
L 936.327273 -266.50031 
L 987.054545 -263.117661 
L 1037.781818 -251.245135 
L 1088.509091 -245.24963 
L 1139.236364 -243.677358 
L 1189.963636 -241.433264 
L 1240.690909 -230.950769 
L 1291.418182 -230.431809 
L 1342.145455 -223.650177 
L 1392.872727 -216.859355 
L 1443.6 -218.507059 
L 1494.327273 -219.528007 
L 1494.327273 -307.971212 
L 1494.327273 -307.971212 
L 1443.6 -307.283355 
L 1392.872727 -311.180367 
L 1342.145455 -310.479398 
L 1291.418182 -324.326833 
L 1240.690909 -325.547928 
L 1189.963636 -327.377768 
L 1139.236364 -333.76695 
L 1088.509091 -335.331575 
L 1037.781818 -343.501043 
L 987.054545 -348.488238 
L 936.327273 -349.643643 
L 885.6 -352.571025 
L 834.872727 -359.050938 
L 784.145455 -357.096945 
L 733.418182 -358.239751 
L 682.690909 -368.536559 
L 631.963636 -398.079177 
L 581.236364 -414.886846 
L 530.509091 -422.12824 
L 479.781818 -431.031446 
L 429.054545 -431.416101 
L 378.327273 -446.676016 
L 327.6 -477.085459 
L 276.872727 -483.757809 
z
" style="stroke: #9467bd; stroke-opacity: 0.2"/>
    </defs>
    <g clip-path="url(#pd98ac49440)">
     <use xlink:href="#m44528bc1a4" x="0" y="576" style="fill: #9467bd; fill-opacity: 0.2; stroke: #9467bd; stroke-opacity: 0.2"/>
    </g>
   </g>
   <g id="PolyCollection_6">
    <defs>
     <path id="mc7581878fb" d="M 276.872727 -486.72 
L 276.872727 -441.954013 
L 327.6 -437.671259 
L 378.327273 -400.236296 
L 429.054545 -377.577395 
L 479.781818 -366.26177 
L 530.509091 -349.261723 
L 581.236364 -341.825424 
L 631.963636 -326.31175 
L 682.690909 -304.521425 
L 733.418182 -284.558674 
L 784.145455 -285.597318 
L 834.872727 -285.070283 
L 885.6 -277.381515 
L 936.327273 -273.407038 
L 987.054545 -263.956869 
L 1037.781818 -259.675604 
L 1088.509091 -260.030697 
L 1139.236364 -255.503296 
L 1189.963636 -234.552896 
L 1240.690909 -224.087038 
L 1291.418182 -224.077324 
L 1342.145455 -219.490312 
L 1392.872727 -207.925419 
L 1443.6 -209.733686 
L 1494.327273 -207.609691 
L 1494.327273 -296.283655 
L 1494.327273 -296.283655 
L 1443.6 -298.207 
L 1392.872727 -299.658343 
L 1342.145455 -306.435544 
L 1291.418182 -309.024214 
L 1240.690909 -312.51014 
L 1189.963636 -320.395564 
L 1139.236364 -344.670745 
L 1088.509091 -344.159696 
L 1037.781818 -348.390555 
L 987.054545 -351.593135 
L 936.327273 -360.013066 
L 885.6 -368.685323 
L 834.872727 -375.478117 
L 784.145455 -376.607707 
L 733.418182 -378.429607 
L 682.690909 -393.264696 
L 631.963636 -411.029674 
L 581.236364 -425.281682 
L 530.509091 -431.163959 
L 479.781818 -449.145009 
L 429.054545 -456.219877 
L 378.327273 -468.507941 
L 327.6 -483.863641 
L 276.872727 -486.72 
z
" style="stroke: #8c564b; stroke-opacity: 0.2"/>
    </defs>
    <g clip-path="url(#pd98ac49440)">
     <use xlink:href="#mc7581878fb" x="0" y="576" style="fill: #8c564b; fill-opacity: 0.2; stroke: #8c564b; stroke-opacity: 0.2"/>
    </g>
   </g>
   <g id="matplotlib.axis_1">
    <g id="xtick_1">
     <g id="line2d_1">
      <defs>
       <path id="m09bdaf1bc6" d="M 0 0 
L 0 3.5 
" style="stroke: #000000; stroke-width: 0.8"/>
      </defs>
      <g>
       <use xlink:href="#m09bdaf1bc6" x="226.145455" y="512.64" style="stroke: #000000; stroke-width: 0.8"/>
      </g>
     </g>
     <g id="text_1">
      <!-- 0 -->
      <g transform="translate(219.146705 536.356562) scale(0.22 -0.22)">
       <defs>
        <path id="DejaVuSans-30" d="M 2034 4250 
Q 1547 4250 1301 3770 
Q 1056 3291 1056 2328 
Q 1056 1369 1301 889 
Q 1547 409 2034 409 
Q 2525 409 2770 889 
Q 3016 1369 3016 2328 
Q 3016 3291 2770 3770 
Q 2525 4250 2034 4250 
z
M 2034 4750 
Q 2819 4750 3233 4129 
Q 3647 3509 3647 2328 
Q 3647 1150 3233 529 
Q 2819 -91 2034 -91 
Q 1250 -91 836 529 
Q 422 1150 422 2328 
Q 422 3509 836 4129 
Q 1250 4750 2034 4750 
z
" transform="scale(0.015625)"/>
       </defs>
       <use xlink:href="#DejaVuSans-30"/>
      </g>
     </g>
    </g>
    <g id="xtick_2">
     <g id="line2d_2">
      <g>
       <use xlink:href="#m09bdaf1bc6" x="479.781818" y="512.64" style="stroke: #000000; stroke-width: 0.8"/>
      </g>
     </g>
     <g id="text_2">
      <!-- 5 -->
      <g transform="translate(472.783068 536.356562) scale(0.22 -0.22)">
       <defs>
        <path id="DejaVuSans-35" d="M 691 4666 
L 3169 4666 
L 3169 4134 
L 1269 4134 
L 1269 2991 
Q 1406 3038 1543 3061 
Q 1681 3084 1819 3084 
Q 2600 3084 3056 2656 
Q 3513 2228 3513 1497 
Q 3513 744 3044 326 
Q 2575 -91 1722 -91 
Q 1428 -91 1123 -41 
Q 819 9 494 109 
L 494 744 
Q 775 591 1075 516 
Q 1375 441 1709 441 
Q 2250 441 2565 725 
Q 2881 1009 2881 1497 
Q 2881 1984 2565 2268 
Q 2250 2553 1709 2553 
Q 1456 2553 1204 2497 
Q 953 2441 691 2322 
L 691 4666 
z
" transform="scale(0.015625)"/>
       </defs>
       <use xlink:href="#DejaVuSans-35"/>
      </g>
     </g>
    </g>
    <g id="xtick_3">
     <g id="line2d_3">
      <g>
       <use xlink:href="#m09bdaf1bc6" x="733.418182" y="512.64" style="stroke: #000000; stroke-width: 0.8"/>
      </g>
     </g>
     <g id="text_3">
      <!-- 10 -->
      <g transform="translate(719.420682 536.356562) scale(0.22 -0.22)">
       <defs>
        <path id="DejaVuSans-31" d="M 794 531 
L 1825 531 
L 1825 4091 
L 703 3866 
L 703 4441 
L 1819 4666 
L 2450 4666 
L 2450 531 
L 3481 531 
L 3481 0 
L 794 0 
L 794 531 
z
" transform="scale(0.015625)"/>
       </defs>
       <use xlink:href="#DejaVuSans-31"/>
       <use xlink:href="#DejaVuSans-30" x="63.623047"/>
      </g>
     </g>
    </g>
    <g id="xtick_4">
     <g id="line2d_4">
      <g>
       <use xlink:href="#m09bdaf1bc6" x="987.054545" y="512.64" style="stroke: #000000; stroke-width: 0.8"/>
      </g>
     </g>
     <g id="text_4">
      <!-- 15 -->
      <g transform="translate(973.057045 536.356562) scale(0.22 -0.22)">
       <use xlink:href="#DejaVuSans-31"/>
       <use xlink:href="#DejaVuSans-35" x="63.623047"/>
      </g>
     </g>
    </g>
    <g id="xtick_5">
     <g id="line2d_5">
      <g>
       <use xlink:href="#m09bdaf1bc6" x="1240.690909" y="512.64" style="stroke: #000000; stroke-width: 0.8"/>
      </g>
     </g>
     <g id="text_5">
      <!-- 20 -->
      <g transform="translate(1226.693409 536.356562) scale(0.22 -0.22)">
       <defs>
        <path id="DejaVuSans-32" d="M 1228 531 
L 3431 531 
L 3431 0 
L 469 0 
L 469 531 
Q 828 903 1448 1529 
Q 2069 2156 2228 2338 
Q 2531 2678 2651 2914 
Q 2772 3150 2772 3378 
Q 2772 3750 2511 3984 
Q 2250 4219 1831 4219 
Q 1534 4219 1204 4116 
Q 875 4013 500 3803 
L 500 4441 
Q 881 4594 1212 4672 
Q 1544 4750 1819 4750 
Q 2544 4750 2975 4387 
Q 3406 4025 3406 3419 
Q 3406 3131 3298 2873 
Q 3191 2616 2906 2266 
Q 2828 2175 2409 1742 
Q 1991 1309 1228 531 
z
" transform="scale(0.015625)"/>
       </defs>
       <use xlink:href="#DejaVuSans-32"/>
       <use xlink:href="#DejaVuSans-30" x="63.623047"/>
      </g>
     </g>
    </g>
    <g id="xtick_6">
     <g id="line2d_6">
      <g>
       <use xlink:href="#m09bdaf1bc6" x="1494.327273" y="512.64" style="stroke: #000000; stroke-width: 0.8"/>
      </g>
     </g>
     <g id="text_6">
      <!-- 25 -->
      <g transform="translate(1480.329773 536.356562) scale(0.22 -0.22)">
       <use xlink:href="#DejaVuSans-32"/>
       <use xlink:href="#DejaVuSans-35" x="63.623047"/>
      </g>
     </g>
    </g>
    <g id="text_7">
     <!-- Num_Experiments -->
     <g transform="translate(784.896719 561.648438) scale(0.22 -0.22)">
      <defs>
       <path id="DejaVuSans-4e" d="M 628 4666 
L 1478 4666 
L 3547 763 
L 3547 4666 
L 4159 4666 
L 4159 0 
L 3309 0 
L 1241 3903 
L 1241 0 
L 628 0 
L 628 4666 
z
" transform="scale(0.015625)"/>
       <path id="DejaVuSans-75" d="M 544 1381 
L 544 3500 
L 1119 3500 
L 1119 1403 
Q 1119 906 1312 657 
Q 1506 409 1894 409 
Q 2359 409 2629 706 
Q 2900 1003 2900 1516 
L 2900 3500 
L 3475 3500 
L 3475 0 
L 2900 0 
L 2900 538 
Q 2691 219 2414 64 
Q 2138 -91 1772 -91 
Q 1169 -91 856 284 
Q 544 659 544 1381 
z
M 1991 3584 
L 1991 3584 
z
" transform="scale(0.015625)"/>
       <path id="DejaVuSans-6d" d="M 3328 2828 
Q 3544 3216 3844 3400 
Q 4144 3584 4550 3584 
Q 5097 3584 5394 3201 
Q 5691 2819 5691 2113 
L 5691 0 
L 5113 0 
L 5113 2094 
Q 5113 2597 4934 2840 
Q 4756 3084 4391 3084 
Q 3944 3084 3684 2787 
Q 3425 2491 3425 1978 
L 3425 0 
L 2847 0 
L 2847 2094 
Q 2847 2600 2669 2842 
Q 2491 3084 2119 3084 
Q 1678 3084 1418 2786 
Q 1159 2488 1159 1978 
L 1159 0 
L 581 0 
L 581 3500 
L 1159 3500 
L 1159 2956 
Q 1356 3278 1631 3431 
Q 1906 3584 2284 3584 
Q 2666 3584 2933 3390 
Q 3200 3197 3328 2828 
z
" transform="scale(0.015625)"/>
       <path id="DejaVuSans-5f" d="M 3263 -1063 
L 3263 -1509 
L -63 -1509 
L -63 -1063 
L 3263 -1063 
z
" transform="scale(0.015625)"/>
       <path id="DejaVuSans-45" d="M 628 4666 
L 3578 4666 
L 3578 4134 
L 1259 4134 
L 1259 2753 
L 3481 2753 
L 3481 2222 
L 1259 2222 
L 1259 531 
L 3634 531 
L 3634 0 
L 628 0 
L 628 4666 
z
" transform="scale(0.015625)"/>
       <path id="DejaVuSans-78" d="M 3513 3500 
L 2247 1797 
L 3578 0 
L 2900 0 
L 1881 1375 
L 863 0 
L 184 0 
L 1544 1831 
L 300 3500 
L 978 3500 
L 1906 2253 
L 2834 3500 
L 3513 3500 
z
" transform="scale(0.015625)"/>
       <path id="DejaVuSans-70" d="M 1159 525 
L 1159 -1331 
L 581 -1331 
L 581 3500 
L 1159 3500 
L 1159 2969 
Q 1341 3281 1617 3432 
Q 1894 3584 2278 3584 
Q 2916 3584 3314 3078 
Q 3713 2572 3713 1747 
Q 3713 922 3314 415 
Q 2916 -91 2278 -91 
Q 1894 -91 1617 61 
Q 1341 213 1159 525 
z
M 3116 1747 
Q 3116 2381 2855 2742 
Q 2594 3103 2138 3103 
Q 1681 3103 1420 2742 
Q 1159 2381 1159 1747 
Q 1159 1113 1420 752 
Q 1681 391 2138 391 
Q 2594 391 2855 752 
Q 3116 1113 3116 1747 
z
" transform="scale(0.015625)"/>
       <path id="DejaVuSans-65" d="M 3597 1894 
L 3597 1613 
L 953 1613 
Q 991 1019 1311 708 
Q 1631 397 2203 397 
Q 2534 397 2845 478 
Q 3156 559 3463 722 
L 3463 178 
Q 3153 47 2828 -22 
Q 2503 -91 2169 -91 
Q 1331 -91 842 396 
Q 353 884 353 1716 
Q 353 2575 817 3079 
Q 1281 3584 2069 3584 
Q 2775 3584 3186 3129 
Q 3597 2675 3597 1894 
z
M 3022 2063 
Q 3016 2534 2758 2815 
Q 2500 3097 2075 3097 
Q 1594 3097 1305 2825 
Q 1016 2553 972 2059 
L 3022 2063 
z
" transform="scale(0.015625)"/>
       <path id="DejaVuSans-72" d="M 2631 2963 
Q 2534 3019 2420 3045 
Q 2306 3072 2169 3072 
Q 1681 3072 1420 2755 
Q 1159 2438 1159 1844 
L 1159 0 
L 581 0 
L 581 3500 
L 1159 3500 
L 1159 2956 
Q 1341 3275 1631 3429 
Q 1922 3584 2338 3584 
Q 2397 3584 2469 3576 
Q 2541 3569 2628 3553 
L 2631 2963 
z
" transform="scale(0.015625)"/>
       <path id="DejaVuSans-69" d="M 603 3500 
L 1178 3500 
L 1178 0 
L 603 0 
L 603 3500 
z
M 603 4863 
L 1178 4863 
L 1178 4134 
L 603 4134 
L 603 4863 
z
" transform="scale(0.015625)"/>
       <path id="DejaVuSans-6e" d="M 3513 2113 
L 3513 0 
L 2938 0 
L 2938 2094 
Q 2938 2591 2744 2837 
Q 2550 3084 2163 3084 
Q 1697 3084 1428 2787 
Q 1159 2491 1159 1978 
L 1159 0 
L 581 0 
L 581 3500 
L 1159 3500 
L 1159 2956 
Q 1366 3272 1645 3428 
Q 1925 3584 2291 3584 
Q 2894 3584 3203 3211 
Q 3513 2838 3513 2113 
z
" transform="scale(0.015625)"/>
       <path id="DejaVuSans-74" d="M 1172 4494 
L 1172 3500 
L 2356 3500 
L 2356 3053 
L 1172 3053 
L 1172 1153 
Q 1172 725 1289 603 
Q 1406 481 1766 481 
L 2356 481 
L 2356 0 
L 1766 0 
Q 1100 0 847 248 
Q 594 497 594 1153 
L 594 3053 
L 172 3053 
L 172 3500 
L 594 3500 
L 594 4494 
L 1172 4494 
z
" transform="scale(0.015625)"/>
       <path id="DejaVuSans-73" d="M 2834 3397 
L 2834 2853 
Q 2591 2978 2328 3040 
Q 2066 3103 1784 3103 
Q 1356 3103 1142 2972 
Q 928 2841 928 2578 
Q 928 2378 1081 2264 
Q 1234 2150 1697 2047 
L 1894 2003 
Q 2506 1872 2764 1633 
Q 3022 1394 3022 966 
Q 3022 478 2636 193 
Q 2250 -91 1575 -91 
Q 1294 -91 989 -36 
Q 684 19 347 128 
L 347 722 
Q 666 556 975 473 
Q 1284 391 1588 391 
Q 1994 391 2212 530 
Q 2431 669 2431 922 
Q 2431 1156 2273 1281 
Q 2116 1406 1581 1522 
L 1381 1569 
Q 847 1681 609 1914 
Q 372 2147 372 2553 
Q 372 3047 722 3315 
Q 1072 3584 1716 3584 
Q 2034 3584 2315 3537 
Q 2597 3491 2834 3397 
z
" transform="scale(0.015625)"/>
      </defs>
      <use xlink:href="#DejaVuSans-4e"/>
      <use xlink:href="#DejaVuSans-75" x="74.804688"/>
      <use xlink:href="#DejaVuSans-6d" x="138.183594"/>
      <use xlink:href="#DejaVuSans-5f" x="235.595703"/>
      <use xlink:href="#DejaVuSans-45" x="285.595703"/>
      <use xlink:href="#DejaVuSans-78" x="348.779297"/>
      <use xlink:href="#DejaVuSans-70" x="407.958984"/>
      <use xlink:href="#DejaVuSans-65" x="471.435547"/>
      <use xlink:href="#DejaVuSans-72" x="532.958984"/>
      <use xlink:href="#DejaVuSans-69" x="574.072266"/>
      <use xlink:href="#DejaVuSans-6d" x="601.855469"/>
      <use xlink:href="#DejaVuSans-65" x="699.267578"/>
      <use xlink:href="#DejaVuSans-6e" x="760.791016"/>
      <use xlink:href="#DejaVuSans-74" x="824.169922"/>
      <use xlink:href="#DejaVuSans-73" x="863.378906"/>
     </g>
    </g>
   </g>
   <g id="matplotlib.axis_2">
    <g id="ytick_1">
     <g id="line2d_7">
      <defs>
       <path id="m3b0e5e3279" d="M 0 0 
L -3.5 0 
" style="stroke: #000000; stroke-width: 0.8"/>
      </defs>
      <g>
       <use xlink:href="#m3b0e5e3279" x="216" y="482.347117" style="stroke: #000000; stroke-width: 0.8"/>
      </g>
     </g>
     <g id="text_8">
      <!-- −3.0 -->
      <g transform="translate(155.577812 490.705398) scale(0.22 -0.22)">
       <defs>
        <path id="DejaVuSans-2212" d="M 678 2272 
L 4684 2272 
L 4684 1741 
L 678 1741 
L 678 2272 
z
" transform="scale(0.015625)"/>
        <path id="DejaVuSans-33" d="M 2597 2516 
Q 3050 2419 3304 2112 
Q 3559 1806 3559 1356 
Q 3559 666 3084 287 
Q 2609 -91 1734 -91 
Q 1441 -91 1130 -33 
Q 819 25 488 141 
L 488 750 
Q 750 597 1062 519 
Q 1375 441 1716 441 
Q 2309 441 2620 675 
Q 2931 909 2931 1356 
Q 2931 1769 2642 2001 
Q 2353 2234 1838 2234 
L 1294 2234 
L 1294 2753 
L 1863 2753 
Q 2328 2753 2575 2939 
Q 2822 3125 2822 3475 
Q 2822 3834 2567 4026 
Q 2313 4219 1838 4219 
Q 1578 4219 1281 4162 
Q 984 4106 628 3988 
L 628 4550 
Q 988 4650 1302 4700 
Q 1616 4750 1894 4750 
Q 2613 4750 3031 4423 
Q 3450 4097 3450 3541 
Q 3450 3153 3228 2886 
Q 3006 2619 2597 2516 
z
" transform="scale(0.015625)"/>
        <path id="DejaVuSans-2e" d="M 684 794 
L 1344 794 
L 1344 0 
L 684 0 
L 684 794 
z
" transform="scale(0.015625)"/>
       </defs>
       <use xlink:href="#DejaVuSans-2212"/>
       <use xlink:href="#DejaVuSans-33" x="83.789062"/>
       <use xlink:href="#DejaVuSans-2e" x="147.412109"/>
       <use xlink:href="#DejaVuSans-30" x="179.199219"/>
      </g>
     </g>
    </g>
    <g id="ytick_2">
     <g id="line2d_8">
      <g>
       <use xlink:href="#m3b0e5e3279" x="216" y="415.521833" style="stroke: #000000; stroke-width: 0.8"/>
      </g>
     </g>
     <g id="text_9">
      <!-- −2.5 -->
      <g transform="translate(155.577812 423.880114) scale(0.22 -0.22)">
       <use xlink:href="#DejaVuSans-2212"/>
       <use xlink:href="#DejaVuSans-32" x="83.789062"/>
       <use xlink:href="#DejaVuSans-2e" x="147.412109"/>
       <use xlink:href="#DejaVuSans-35" x="179.199219"/>
      </g>
     </g>
    </g>
    <g id="ytick_3">
     <g id="line2d_9">
      <g>
       <use xlink:href="#m3b0e5e3279" x="216" y="348.696549" style="stroke: #000000; stroke-width: 0.8"/>
      </g>
     </g>
     <g id="text_10">
      <!-- −2.0 -->
      <g transform="translate(155.577812 357.05483) scale(0.22 -0.22)">
       <use xlink:href="#DejaVuSans-2212"/>
       <use xlink:href="#DejaVuSans-32" x="83.789062"/>
       <use xlink:href="#DejaVuSans-2e" x="147.412109"/>
       <use xlink:href="#DejaVuSans-30" x="179.199219"/>
      </g>
     </g>
    </g>
    <g id="ytick_4">
     <g id="line2d_10">
      <g>
       <use xlink:href="#m3b0e5e3279" x="216" y="281.871265" style="stroke: #000000; stroke-width: 0.8"/>
      </g>
     </g>
     <g id="text_11">
      <!-- −1.5 -->
      <g transform="translate(155.577812 290.229546) scale(0.22 -0.22)">
       <use xlink:href="#DejaVuSans-2212"/>
       <use xlink:href="#DejaVuSans-31" x="83.789062"/>
       <use xlink:href="#DejaVuSans-2e" x="147.412109"/>
       <use xlink:href="#DejaVuSans-35" x="179.199219"/>
      </g>
     </g>
    </g>
    <g id="ytick_5">
     <g id="line2d_11">
      <g>
       <use xlink:href="#m3b0e5e3279" x="216" y="215.045981" style="stroke: #000000; stroke-width: 0.8"/>
      </g>
     </g>
     <g id="text_12">
      <!-- −1.0 -->
      <g transform="translate(155.577812 223.404262) scale(0.22 -0.22)">
       <use xlink:href="#DejaVuSans-2212"/>
       <use xlink:href="#DejaVuSans-31" x="83.789062"/>
       <use xlink:href="#DejaVuSans-2e" x="147.412109"/>
       <use xlink:href="#DejaVuSans-30" x="179.199219"/>
      </g>
     </g>
    </g>
    <g id="ytick_6">
     <g id="line2d_12">
      <g>
       <use xlink:href="#m3b0e5e3279" x="216" y="148.220697" style="stroke: #000000; stroke-width: 0.8"/>
      </g>
     </g>
     <g id="text_13">
      <!-- −0.5 -->
      <g transform="translate(155.577812 156.578978) scale(0.22 -0.22)">
       <use xlink:href="#DejaVuSans-2212"/>
       <use xlink:href="#DejaVuSans-30" x="83.789062"/>
       <use xlink:href="#DejaVuSans-2e" x="147.412109"/>
       <use xlink:href="#DejaVuSans-35" x="179.199219"/>
      </g>
     </g>
    </g>
    <g id="ytick_7">
     <g id="line2d_13">
      <g>
       <use xlink:href="#m3b0e5e3279" x="216" y="81.395413" style="stroke: #000000; stroke-width: 0.8"/>
      </g>
     </g>
     <g id="text_14">
      <!-- 0.0 -->
      <g transform="translate(174.013125 89.753694) scale(0.22 -0.22)">
       <use xlink:href="#DejaVuSans-30"/>
       <use xlink:href="#DejaVuSans-2e" x="63.623047"/>
       <use xlink:href="#DejaVuSans-30" x="95.410156"/>
      </g>
     </g>
    </g>
    <g id="text_15">
     <!-- Target_CumBest -->
     <g transform="translate(146.390625 380.143281) rotate(-90) scale(0.22 -0.22)">
      <defs>
       <path id="DejaVuSans-54" d="M -19 4666 
L 3928 4666 
L 3928 4134 
L 2272 4134 
L 2272 0 
L 1638 0 
L 1638 4134 
L -19 4134 
L -19 4666 
z
" transform="scale(0.015625)"/>
       <path id="DejaVuSans-61" d="M 2194 1759 
Q 1497 1759 1228 1600 
Q 959 1441 959 1056 
Q 959 750 1161 570 
Q 1363 391 1709 391 
Q 2188 391 2477 730 
Q 2766 1069 2766 1631 
L 2766 1759 
L 2194 1759 
z
M 3341 1997 
L 3341 0 
L 2766 0 
L 2766 531 
Q 2569 213 2275 61 
Q 1981 -91 1556 -91 
Q 1019 -91 701 211 
Q 384 513 384 1019 
Q 384 1609 779 1909 
Q 1175 2209 1959 2209 
L 2766 2209 
L 2766 2266 
Q 2766 2663 2505 2880 
Q 2244 3097 1772 3097 
Q 1472 3097 1187 3025 
Q 903 2953 641 2809 
L 641 3341 
Q 956 3463 1253 3523 
Q 1550 3584 1831 3584 
Q 2591 3584 2966 3190 
Q 3341 2797 3341 1997 
z
" transform="scale(0.015625)"/>
       <path id="DejaVuSans-67" d="M 2906 1791 
Q 2906 2416 2648 2759 
Q 2391 3103 1925 3103 
Q 1463 3103 1205 2759 
Q 947 2416 947 1791 
Q 947 1169 1205 825 
Q 1463 481 1925 481 
Q 2391 481 2648 825 
Q 2906 1169 2906 1791 
z
M 3481 434 
Q 3481 -459 3084 -895 
Q 2688 -1331 1869 -1331 
Q 1566 -1331 1297 -1286 
Q 1028 -1241 775 -1147 
L 775 -588 
Q 1028 -725 1275 -790 
Q 1522 -856 1778 -856 
Q 2344 -856 2625 -561 
Q 2906 -266 2906 331 
L 2906 616 
Q 2728 306 2450 153 
Q 2172 0 1784 0 
Q 1141 0 747 490 
Q 353 981 353 1791 
Q 353 2603 747 3093 
Q 1141 3584 1784 3584 
Q 2172 3584 2450 3431 
Q 2728 3278 2906 2969 
L 2906 3500 
L 3481 3500 
L 3481 434 
z
" transform="scale(0.015625)"/>
       <path id="DejaVuSans-43" d="M 4122 4306 
L 4122 3641 
Q 3803 3938 3442 4084 
Q 3081 4231 2675 4231 
Q 1875 4231 1450 3742 
Q 1025 3253 1025 2328 
Q 1025 1406 1450 917 
Q 1875 428 2675 428 
Q 3081 428 3442 575 
Q 3803 722 4122 1019 
L 4122 359 
Q 3791 134 3420 21 
Q 3050 -91 2638 -91 
Q 1578 -91 968 557 
Q 359 1206 359 2328 
Q 359 3453 968 4101 
Q 1578 4750 2638 4750 
Q 3056 4750 3426 4639 
Q 3797 4528 4122 4306 
z
" transform="scale(0.015625)"/>
       <path id="DejaVuSans-42" d="M 1259 2228 
L 1259 519 
L 2272 519 
Q 2781 519 3026 730 
Q 3272 941 3272 1375 
Q 3272 1813 3026 2020 
Q 2781 2228 2272 2228 
L 1259 2228 
z
M 1259 4147 
L 1259 2741 
L 2194 2741 
Q 2656 2741 2882 2914 
Q 3109 3088 3109 3444 
Q 3109 3797 2882 3972 
Q 2656 4147 2194 4147 
L 1259 4147 
z
M 628 4666 
L 2241 4666 
Q 2963 4666 3353 4366 
Q 3744 4066 3744 3513 
Q 3744 3084 3544 2831 
Q 3344 2578 2956 2516 
Q 3422 2416 3680 2098 
Q 3938 1781 3938 1306 
Q 3938 681 3513 340 
Q 3088 0 2303 0 
L 628 0 
L 628 4666 
z
" transform="scale(0.015625)"/>
      </defs>
      <use xlink:href="#DejaVuSans-54"/>
      <use xlink:href="#DejaVuSans-61" x="44.583984"/>
      <use xlink:href="#DejaVuSans-72" x="105.863281"/>
      <use xlink:href="#DejaVuSans-67" x="145.226562"/>
      <use xlink:href="#DejaVuSans-65" x="208.703125"/>
      <use xlink:href="#DejaVuSans-74" x="270.226562"/>
      <use xlink:href="#DejaVuSans-5f" x="309.435547"/>
      <use xlink:href="#DejaVuSans-43" x="359.435547"/>
      <use xlink:href="#DejaVuSans-75" x="429.259766"/>
      <use xlink:href="#DejaVuSans-6d" x="492.638672"/>
      <use xlink:href="#DejaVuSans-42" x="590.050781"/>
      <use xlink:href="#DejaVuSans-65" x="658.654297"/>
      <use xlink:href="#DejaVuSans-73" x="720.177734"/>
      <use xlink:href="#DejaVuSans-74" x="772.277344"/>
     </g>
    </g>
   </g>
   <g id="line2d_14">
    <path d="M 276.872727 150.672262 
L 327.6 154.717038 
L 378.327273 170.871809 
L 429.054545 181.53112 
L 479.781818 190.491663 
L 530.509091 205.698874 
L 581.236364 219.497199 
L 631.963636 236.239554 
L 682.690909 247.446304 
L 733.418182 267.727839 
L 784.145455 286.6535 
L 834.872727 314.022061 
L 885.6 330.3202 
L 936.327273 346.247268 
L 987.054545 363.179345 
L 1037.781818 381.616876 
L 1088.509091 388.629363 
L 1139.236364 402.849024 
L 1189.963636 418.409168 
L 1240.690909 431.788242 
L 1291.418182 433.411663 
L 1342.145455 439.697951 
L 1392.872727 444.164563 
L 1443.6 445.874434 
L 1494.327273 451.394917 
" clip-path="url(#pd98ac49440)" style="fill: none; stroke: #1f77b4; stroke-width: 1.5; stroke-linecap: square"/>
    <defs>
     <path id="m144cda8a4b" d="M 0 5 
C 1.326016 5 2.597899 4.473168 3.535534 3.535534 
C 4.473168 2.597899 5 1.326016 5 0 
C 5 -1.326016 4.473168 -2.597899 3.535534 -3.535534 
C 2.597899 -4.473168 1.326016 -5 0 -5 
C -1.326016 -5 -2.597899 -4.473168 -3.535534 -3.535534 
C -4.473168 -2.597899 -5 -1.326016 -5 0 
C -5 1.326016 -4.473168 2.597899 -3.535534 3.535534 
C -2.597899 4.473168 -1.326016 5 0 5 
z
" style="stroke: #ffffff; stroke-width: 0.75"/>
    </defs>
    <g clip-path="url(#pd98ac49440)">
     <use xlink:href="#m144cda8a4b" x="276.872727" y="150.672262" style="fill: #1f77b4; stroke: #ffffff; stroke-width: 0.75"/>
     <use xlink:href="#m144cda8a4b" x="327.6" y="154.717038" style="fill: #1f77b4; stroke: #ffffff; stroke-width: 0.75"/>
     <use xlink:href="#m144cda8a4b" x="378.327273" y="170.871809" style="fill: #1f77b4; stroke: #ffffff; stroke-width: 0.75"/>
     <use xlink:href="#m144cda8a4b" x="429.054545" y="181.53112" style="fill: #1f77b4; stroke: #ffffff; stroke-width: 0.75"/>
     <use xlink:href="#m144cda8a4b" x="479.781818" y="190.491663" style="fill: #1f77b4; stroke: #ffffff; stroke-width: 0.75"/>
     <use xlink:href="#m144cda8a4b" x="530.509091" y="205.698874" style="fill: #1f77b4; stroke: #ffffff; stroke-width: 0.75"/>
     <use xlink:href="#m144cda8a4b" x="581.236364" y="219.497199" style="fill: #1f77b4; stroke: #ffffff; stroke-width: 0.75"/>
     <use xlink:href="#m144cda8a4b" x="631.963636" y="236.239554" style="fill: #1f77b4; stroke: #ffffff; stroke-width: 0.75"/>
     <use xlink:href="#m144cda8a4b" x="682.690909" y="247.446304" style="fill: #1f77b4; stroke: #ffffff; stroke-width: 0.75"/>
     <use xlink:href="#m144cda8a4b" x="733.418182" y="267.727839" style="fill: #1f77b4; stroke: #ffffff; stroke-width: 0.75"/>
     <use xlink:href="#m144cda8a4b" x="784.145455" y="286.6535" style="fill: #1f77b4; stroke: #ffffff; stroke-width: 0.75"/>
     <use xlink:href="#m144cda8a4b" x="834.872727" y="314.022061" style="fill: #1f77b4; stroke: #ffffff; stroke-width: 0.75"/>
     <use xlink:href="#m144cda8a4b" x="885.6" y="330.3202" style="fill: #1f77b4; stroke: #ffffff; stroke-width: 0.75"/>
     <use xlink:href="#m144cda8a4b" x="936.327273" y="346.247268" style="fill: #1f77b4; stroke: #ffffff; stroke-width: 0.75"/>
     <use xlink:href="#m144cda8a4b" x="987.054545" y="363.179345" style="fill: #1f77b4; stroke: #ffffff; stroke-width: 0.75"/>
     <use xlink:href="#m144cda8a4b" x="1037.781818" y="381.616876" style="fill: #1f77b4; stroke: #ffffff; stroke-width: 0.75"/>
     <use xlink:href="#m144cda8a4b" x="1088.509091" y="388.629363" style="fill: #1f77b4; stroke: #ffffff; stroke-width: 0.75"/>
     <use xlink:href="#m144cda8a4b" x="1139.236364" y="402.849024" style="fill: #1f77b4; stroke: #ffffff; stroke-width: 0.75"/>
     <use xlink:href="#m144cda8a4b" x="1189.963636" y="418.409168" style="fill: #1f77b4; stroke: #ffffff; stroke-width: 0.75"/>
     <use xlink:href="#m144cda8a4b" x="1240.690909" y="431.788242" style="fill: #1f77b4; stroke: #ffffff; stroke-width: 0.75"/>
     <use xlink:href="#m144cda8a4b" x="1291.418182" y="433.411663" style="fill: #1f77b4; stroke: #ffffff; stroke-width: 0.75"/>
     <use xlink:href="#m144cda8a4b" x="1342.145455" y="439.697951" style="fill: #1f77b4; stroke: #ffffff; stroke-width: 0.75"/>
     <use xlink:href="#m144cda8a4b" x="1392.872727" y="444.164563" style="fill: #1f77b4; stroke: #ffffff; stroke-width: 0.75"/>
     <use xlink:href="#m144cda8a4b" x="1443.6" y="445.874434" style="fill: #1f77b4; stroke: #ffffff; stroke-width: 0.75"/>
     <use xlink:href="#m144cda8a4b" x="1494.327273" y="451.394917" style="fill: #1f77b4; stroke: #ffffff; stroke-width: 0.75"/>
    </g>
   </g>
   <g id="line2d_15">
    <path d="M 276.872727 136.15313 
L 327.6 148.569614 
L 378.327273 158.19997 
L 429.054545 180.563532 
L 479.781818 196.27164 
L 530.509091 225.980246 
L 581.236364 251.199577 
L 631.963636 284.741267 
L 682.690909 295.095475 
L 733.418182 303.778324 
L 784.145455 311.684824 
L 834.872727 327.196682 
L 885.6 338.715633 
L 936.327273 360.182078 
L 987.054545 380.055504 
L 1037.781818 394.186679 
L 1088.509091 405.338601 
L 1139.236364 413.144451 
L 1189.963636 434.050325 
L 1240.690909 442.30316 
L 1291.418182 450.918901 
L 1342.145455 458.382388 
L 1392.872727 463.375012 
L 1443.6 469.97354 
L 1494.327273 470.430231 
" clip-path="url(#pd98ac49440)" style="fill: none; stroke: #ff7f0e; stroke-width: 1.5; stroke-linecap: square"/>
    <defs>
     <path id="m2f023183e0" d="M 0 5 
C 1.326016 5 2.597899 4.473168 3.535534 3.535534 
C 4.473168 2.597899 5 1.326016 5 0 
C 5 -1.326016 4.473168 -2.597899 3.535534 -3.535534 
C 2.597899 -4.473168 1.326016 -5 0 -5 
C -1.326016 -5 -2.597899 -4.473168 -3.535534 -3.535534 
C -4.473168 -2.597899 -5 -1.326016 -5 0 
C -5 1.326016 -4.473168 2.597899 -3.535534 3.535534 
C -2.597899 4.473168 -1.326016 5 0 5 
z
" style="stroke: #ffffff; stroke-width: 0.75"/>
    </defs>
    <g clip-path="url(#pd98ac49440)">
     <use xlink:href="#m2f023183e0" x="276.872727" y="136.15313" style="fill: #ff7f0e; stroke: #ffffff; stroke-width: 0.75"/>
     <use xlink:href="#m2f023183e0" x="327.6" y="148.569614" style="fill: #ff7f0e; stroke: #ffffff; stroke-width: 0.75"/>
     <use xlink:href="#m2f023183e0" x="378.327273" y="158.19997" style="fill: #ff7f0e; stroke: #ffffff; stroke-width: 0.75"/>
     <use xlink:href="#m2f023183e0" x="429.054545" y="180.563532" style="fill: #ff7f0e; stroke: #ffffff; stroke-width: 0.75"/>
     <use xlink:href="#m2f023183e0" x="479.781818" y="196.27164" style="fill: #ff7f0e; stroke: #ffffff; stroke-width: 0.75"/>
     <use xlink:href="#m2f023183e0" x="530.509091" y="225.980246" style="fill: #ff7f0e; stroke: #ffffff; stroke-width: 0.75"/>
     <use xlink:href="#m2f023183e0" x="581.236364" y="251.199577" style="fill: #ff7f0e; stroke: #ffffff; stroke-width: 0.75"/>
     <use xlink:href="#m2f023183e0" x="631.963636" y="284.741267" style="fill: #ff7f0e; stroke: #ffffff; stroke-width: 0.75"/>
     <use xlink:href="#m2f023183e0" x="682.690909" y="295.095475" style="fill: #ff7f0e; stroke: #ffffff; stroke-width: 0.75"/>
     <use xlink:href="#m2f023183e0" x="733.418182" y="303.778324" style="fill: #ff7f0e; stroke: #ffffff; stroke-width: 0.75"/>
     <use xlink:href="#m2f023183e0" x="784.145455" y="311.684824" style="fill: #ff7f0e; stroke: #ffffff; stroke-width: 0.75"/>
     <use xlink:href="#m2f023183e0" x="834.872727" y="327.196682" style="fill: #ff7f0e; stroke: #ffffff; stroke-width: 0.75"/>
     <use xlink:href="#m2f023183e0" x="885.6" y="338.715633" style="fill: #ff7f0e; stroke: #ffffff; stroke-width: 0.75"/>
     <use xlink:href="#m2f023183e0" x="936.327273" y="360.182078" style="fill: #ff7f0e; stroke: #ffffff; stroke-width: 0.75"/>
     <use xlink:href="#m2f023183e0" x="987.054545" y="380.055504" style="fill: #ff7f0e; stroke: #ffffff; stroke-width: 0.75"/>
     <use xlink:href="#m2f023183e0" x="1037.781818" y="394.186679" style="fill: #ff7f0e; stroke: #ffffff; stroke-width: 0.75"/>
     <use xlink:href="#m2f023183e0" x="1088.509091" y="405.338601" style="fill: #ff7f0e; stroke: #ffffff; stroke-width: 0.75"/>
     <use xlink:href="#m2f023183e0" x="1139.236364" y="413.144451" style="fill: #ff7f0e; stroke: #ffffff; stroke-width: 0.75"/>
     <use xlink:href="#m2f023183e0" x="1189.963636" y="434.050325" style="fill: #ff7f0e; stroke: #ffffff; stroke-width: 0.75"/>
     <use xlink:href="#m2f023183e0" x="1240.690909" y="442.30316" style="fill: #ff7f0e; stroke: #ffffff; stroke-width: 0.75"/>
     <use xlink:href="#m2f023183e0" x="1291.418182" y="450.918901" style="fill: #ff7f0e; stroke: #ffffff; stroke-width: 0.75"/>
     <use xlink:href="#m2f023183e0" x="1342.145455" y="458.382388" style="fill: #ff7f0e; stroke: #ffffff; stroke-width: 0.75"/>
     <use xlink:href="#m2f023183e0" x="1392.872727" y="463.375012" style="fill: #ff7f0e; stroke: #ffffff; stroke-width: 0.75"/>
     <use xlink:href="#m2f023183e0" x="1443.6" y="469.97354" style="fill: #ff7f0e; stroke: #ffffff; stroke-width: 0.75"/>
     <use xlink:href="#m2f023183e0" x="1494.327273" y="470.430231" style="fill: #ff7f0e; stroke: #ffffff; stroke-width: 0.75"/>
    </g>
   </g>
   <g id="line2d_16">
    <path d="M 276.872727 156.42194 
L 327.6 167.80375 
L 378.327273 200.662247 
L 429.054545 217.32167 
L 479.781818 229.464145 
L 530.509091 240.977873 
L 581.236364 250.201552 
L 631.963636 269.010157 
L 682.690909 287.628772 
L 733.418182 298.092163 
L 784.145455 305.646274 
L 834.872727 312.741437 
L 885.6 324.116928 
L 936.327273 329.571793 
L 987.054545 334.145343 
L 1037.781818 338.847412 
L 1088.509091 341.991714 
L 1139.236364 355.808322 
L 1189.963636 361.466639 
L 1240.690909 361.467964 
L 1291.418182 363.24703 
L 1342.145455 364.527386 
L 1392.872727 366.390783 
L 1443.6 367.809926 
L 1494.327273 371.34951 
" clip-path="url(#pd98ac49440)" style="fill: none; stroke: #2ca02c; stroke-width: 1.5; stroke-linecap: square"/>
    <defs>
     <path id="m2d7b81e14f" d="M 0 5 
C 1.326016 5 2.597899 4.473168 3.535534 3.535534 
C 4.473168 2.597899 5 1.326016 5 0 
C 5 -1.326016 4.473168 -2.597899 3.535534 -3.535534 
C 2.597899 -4.473168 1.326016 -5 0 -5 
C -1.326016 -5 -2.597899 -4.473168 -3.535534 -3.535534 
C -4.473168 -2.597899 -5 -1.326016 -5 0 
C -5 1.326016 -4.473168 2.597899 -3.535534 3.535534 
C -2.597899 4.473168 -1.326016 5 0 5 
z
" style="stroke: #ffffff; stroke-width: 0.75"/>
    </defs>
    <g clip-path="url(#pd98ac49440)">
     <use xlink:href="#m2d7b81e14f" x="276.872727" y="156.42194" style="fill: #2ca02c; stroke: #ffffff; stroke-width: 0.75"/>
     <use xlink:href="#m2d7b81e14f" x="327.6" y="167.80375" style="fill: #2ca02c; stroke: #ffffff; stroke-width: 0.75"/>
     <use xlink:href="#m2d7b81e14f" x="378.327273" y="200.662247" style="fill: #2ca02c; stroke: #ffffff; stroke-width: 0.75"/>
     <use xlink:href="#m2d7b81e14f" x="429.054545" y="217.32167" style="fill: #2ca02c; stroke: #ffffff; stroke-width: 0.75"/>
     <use xlink:href="#m2d7b81e14f" x="479.781818" y="229.464145" style="fill: #2ca02c; stroke: #ffffff; stroke-width: 0.75"/>
     <use xlink:href="#m2d7b81e14f" x="530.509091" y="240.977873" style="fill: #2ca02c; stroke: #ffffff; stroke-width: 0.75"/>
     <use xlink:href="#m2d7b81e14f" x="581.236364" y="250.201552" style="fill: #2ca02c; stroke: #ffffff; stroke-width: 0.75"/>
     <use xlink:href="#m2d7b81e14f" x="631.963636" y="269.010157" style="fill: #2ca02c; stroke: #ffffff; stroke-width: 0.75"/>
     <use xlink:href="#m2d7b81e14f" x="682.690909" y="287.628772" style="fill: #2ca02c; stroke: #ffffff; stroke-width: 0.75"/>
     <use xlink:href="#m2d7b81e14f" x="733.418182" y="298.092163" style="fill: #2ca02c; stroke: #ffffff; stroke-width: 0.75"/>
     <use xlink:href="#m2d7b81e14f" x="784.145455" y="305.646274" style="fill: #2ca02c; stroke: #ffffff; stroke-width: 0.75"/>
     <use xlink:href="#m2d7b81e14f" x="834.872727" y="312.741437" style="fill: #2ca02c; stroke: #ffffff; stroke-width: 0.75"/>
     <use xlink:href="#m2d7b81e14f" x="885.6" y="324.116928" style="fill: #2ca02c; stroke: #ffffff; stroke-width: 0.75"/>
     <use xlink:href="#m2d7b81e14f" x="936.327273" y="329.571793" style="fill: #2ca02c; stroke: #ffffff; stroke-width: 0.75"/>
     <use xlink:href="#m2d7b81e14f" x="987.054545" y="334.145343" style="fill: #2ca02c; stroke: #ffffff; stroke-width: 0.75"/>
     <use xlink:href="#m2d7b81e14f" x="1037.781818" y="338.847412" style="fill: #2ca02c; stroke: #ffffff; stroke-width: 0.75"/>
     <use xlink:href="#m2d7b81e14f" x="1088.509091" y="341.991714" style="fill: #2ca02c; stroke: #ffffff; stroke-width: 0.75"/>
     <use xlink:href="#m2d7b81e14f" x="1139.236364" y="355.808322" style="fill: #2ca02c; stroke: #ffffff; stroke-width: 0.75"/>
     <use xlink:href="#m2d7b81e14f" x="1189.963636" y="361.466639" style="fill: #2ca02c; stroke: #ffffff; stroke-width: 0.75"/>
     <use xlink:href="#m2d7b81e14f" x="1240.690909" y="361.467964" style="fill: #2ca02c; stroke: #ffffff; stroke-width: 0.75"/>
     <use xlink:href="#m2d7b81e14f" x="1291.418182" y="363.24703" style="fill: #2ca02c; stroke: #ffffff; stroke-width: 0.75"/>
     <use xlink:href="#m2d7b81e14f" x="1342.145455" y="364.527386" style="fill: #2ca02c; stroke: #ffffff; stroke-width: 0.75"/>
     <use xlink:href="#m2d7b81e14f" x="1392.872727" y="366.390783" style="fill: #2ca02c; stroke: #ffffff; stroke-width: 0.75"/>
     <use xlink:href="#m2d7b81e14f" x="1443.6" y="367.809926" style="fill: #2ca02c; stroke: #ffffff; stroke-width: 0.75"/>
     <use xlink:href="#m2d7b81e14f" x="1494.327273" y="371.34951" style="fill: #2ca02c; stroke: #ffffff; stroke-width: 0.75"/>
    </g>
   </g>
   <g id="line2d_17">
    <path d="M 276.872727 108.0154 
L 327.6 117.69469 
L 378.327273 165.975751 
L 429.054545 177.232593 
L 479.781818 189.144461 
L 530.509091 209.89902 
L 581.236364 225.616022 
L 631.963636 232.157324 
L 682.690909 246.544611 
L 733.418182 254.909759 
L 784.145455 260.304552 
L 834.872727 263.047311 
L 885.6 266.118685 
L 936.327273 276.040723 
L 987.054545 278.51825 
L 1037.781818 280.965894 
L 1088.509091 284.631369 
L 1139.236364 289.403837 
L 1189.963636 310.277774 
L 1240.690909 314.528243 
L 1291.418182 318.130108 
L 1342.145455 324.413703 
L 1392.872727 327.071077 
L 1443.6 330.063828 
L 1494.327273 333.000927 
" clip-path="url(#pd98ac49440)" style="fill: none; stroke: #d62728; stroke-width: 1.5; stroke-linecap: square"/>
    <defs>
     <path id="m0b1fa14c73" d="M 0 5 
C 1.326016 5 2.597899 4.473168 3.535534 3.535534 
C 4.473168 2.597899 5 1.326016 5 0 
C 5 -1.326016 4.473168 -2.597899 3.535534 -3.535534 
C 2.597899 -4.473168 1.326016 -5 0 -5 
C -1.326016 -5 -2.597899 -4.473168 -3.535534 -3.535534 
C -4.473168 -2.597899 -5 -1.326016 -5 0 
C -5 1.326016 -4.473168 2.597899 -3.535534 3.535534 
C -2.597899 4.473168 -1.326016 5 0 5 
z
" style="stroke: #ffffff; stroke-width: 0.75"/>
    </defs>
    <g clip-path="url(#pd98ac49440)">
     <use xlink:href="#m0b1fa14c73" x="276.872727" y="108.0154" style="fill: #d62728; stroke: #ffffff; stroke-width: 0.75"/>
     <use xlink:href="#m0b1fa14c73" x="327.6" y="117.69469" style="fill: #d62728; stroke: #ffffff; stroke-width: 0.75"/>
     <use xlink:href="#m0b1fa14c73" x="378.327273" y="165.975751" style="fill: #d62728; stroke: #ffffff; stroke-width: 0.75"/>
     <use xlink:href="#m0b1fa14c73" x="429.054545" y="177.232593" style="fill: #d62728; stroke: #ffffff; stroke-width: 0.75"/>
     <use xlink:href="#m0b1fa14c73" x="479.781818" y="189.144461" style="fill: #d62728; stroke: #ffffff; stroke-width: 0.75"/>
     <use xlink:href="#m0b1fa14c73" x="530.509091" y="209.89902" style="fill: #d62728; stroke: #ffffff; stroke-width: 0.75"/>
     <use xlink:href="#m0b1fa14c73" x="581.236364" y="225.616022" style="fill: #d62728; stroke: #ffffff; stroke-width: 0.75"/>
     <use xlink:href="#m0b1fa14c73" x="631.963636" y="232.157324" style="fill: #d62728; stroke: #ffffff; stroke-width: 0.75"/>
     <use xlink:href="#m0b1fa14c73" x="682.690909" y="246.544611" style="fill: #d62728; stroke: #ffffff; stroke-width: 0.75"/>
     <use xlink:href="#m0b1fa14c73" x="733.418182" y="254.909759" style="fill: #d62728; stroke: #ffffff; stroke-width: 0.75"/>
     <use xlink:href="#m0b1fa14c73" x="784.145455" y="260.304552" style="fill: #d62728; stroke: #ffffff; stroke-width: 0.75"/>
     <use xlink:href="#m0b1fa14c73" x="834.872727" y="263.047311" style="fill: #d62728; stroke: #ffffff; stroke-width: 0.75"/>
     <use xlink:href="#m0b1fa14c73" x="885.6" y="266.118685" style="fill: #d62728; stroke: #ffffff; stroke-width: 0.75"/>
     <use xlink:href="#m0b1fa14c73" x="936.327273" y="276.040723" style="fill: #d62728; stroke: #ffffff; stroke-width: 0.75"/>
     <use xlink:href="#m0b1fa14c73" x="987.054545" y="278.51825" style="fill: #d62728; stroke: #ffffff; stroke-width: 0.75"/>
     <use xlink:href="#m0b1fa14c73" x="1037.781818" y="280.965894" style="fill: #d62728; stroke: #ffffff; stroke-width: 0.75"/>
     <use xlink:href="#m0b1fa14c73" x="1088.509091" y="284.631369" style="fill: #d62728; stroke: #ffffff; stroke-width: 0.75"/>
     <use xlink:href="#m0b1fa14c73" x="1139.236364" y="289.403837" style="fill: #d62728; stroke: #ffffff; stroke-width: 0.75"/>
     <use xlink:href="#m0b1fa14c73" x="1189.963636" y="310.277774" style="fill: #d62728; stroke: #ffffff; stroke-width: 0.75"/>
     <use xlink:href="#m0b1fa14c73" x="1240.690909" y="314.528243" style="fill: #d62728; stroke: #ffffff; stroke-width: 0.75"/>
     <use xlink:href="#m0b1fa14c73" x="1291.418182" y="318.130108" style="fill: #d62728; stroke: #ffffff; stroke-width: 0.75"/>
     <use xlink:href="#m0b1fa14c73" x="1342.145455" y="324.413703" style="fill: #d62728; stroke: #ffffff; stroke-width: 0.75"/>
     <use xlink:href="#m0b1fa14c73" x="1392.872727" y="327.071077" style="fill: #d62728; stroke: #ffffff; stroke-width: 0.75"/>
     <use xlink:href="#m0b1fa14c73" x="1443.6" y="330.063828" style="fill: #d62728; stroke: #ffffff; stroke-width: 0.75"/>
     <use xlink:href="#m0b1fa14c73" x="1494.327273" y="333.000927" style="fill: #d62728; stroke: #ffffff; stroke-width: 0.75"/>
    </g>
   </g>
   <g id="line2d_18">
    <path d="M 276.872727 120.492938 
L 327.6 127.565022 
L 378.327273 168.479682 
L 429.054545 184.594155 
L 479.781818 187.335748 
L 530.509091 199.400614 
L 581.236364 203.074516 
L 631.963636 219.164221 
L 682.690909 248.194597 
L 733.418182 256.888941 
L 784.145455 261.395895 
L 834.872727 261.568963 
L 885.6 265.649666 
L 936.327273 268.556906 
L 987.054545 270.199177 
L 1037.781818 279.955419 
L 1088.509091 287.076046 
L 1139.236364 288.551983 
L 1189.963636 290.194014 
L 1240.690909 297.101215 
L 1291.418182 300.399032 
L 1342.145455 307.726501 
L 1392.872727 310.498632 
L 1443.6 312.981246 
L 1494.327273 312.991916 
" clip-path="url(#pd98ac49440)" style="fill: none; stroke: #9467bd; stroke-width: 1.5; stroke-linecap: square"/>
    <defs>
     <path id="m06beddfb58" d="M 0 5 
C 1.326016 5 2.597899 4.473168 3.535534 3.535534 
C 4.473168 2.597899 5 1.326016 5 0 
C 5 -1.326016 4.473168 -2.597899 3.535534 -3.535534 
C 2.597899 -4.473168 1.326016 -5 0 -5 
C -1.326016 -5 -2.597899 -4.473168 -3.535534 -3.535534 
C -4.473168 -2.597899 -5 -1.326016 -5 0 
C -5 1.326016 -4.473168 2.597899 -3.535534 3.535534 
C -2.597899 4.473168 -1.326016 5 0 5 
z
" style="stroke: #ffffff; stroke-width: 0.75"/>
    </defs>
    <g clip-path="url(#pd98ac49440)">
     <use xlink:href="#m06beddfb58" x="276.872727" y="120.492938" style="fill: #9467bd; stroke: #ffffff; stroke-width: 0.75"/>
     <use xlink:href="#m06beddfb58" x="327.6" y="127.565022" style="fill: #9467bd; stroke: #ffffff; stroke-width: 0.75"/>
     <use xlink:href="#m06beddfb58" x="378.327273" y="168.479682" style="fill: #9467bd; stroke: #ffffff; stroke-width: 0.75"/>
     <use xlink:href="#m06beddfb58" x="429.054545" y="184.594155" style="fill: #9467bd; stroke: #ffffff; stroke-width: 0.75"/>
     <use xlink:href="#m06beddfb58" x="479.781818" y="187.335748" style="fill: #9467bd; stroke: #ffffff; stroke-width: 0.75"/>
     <use xlink:href="#m06beddfb58" x="530.509091" y="199.400614" style="fill: #9467bd; stroke: #ffffff; stroke-width: 0.75"/>
     <use xlink:href="#m06beddfb58" x="581.236364" y="203.074516" style="fill: #9467bd; stroke: #ffffff; stroke-width: 0.75"/>
     <use xlink:href="#m06beddfb58" x="631.963636" y="219.164221" style="fill: #9467bd; stroke: #ffffff; stroke-width: 0.75"/>
     <use xlink:href="#m06beddfb58" x="682.690909" y="248.194597" style="fill: #9467bd; stroke: #ffffff; stroke-width: 0.75"/>
     <use xlink:href="#m06beddfb58" x="733.418182" y="256.888941" style="fill: #9467bd; stroke: #ffffff; stroke-width: 0.75"/>
     <use xlink:href="#m06beddfb58" x="784.145455" y="261.395895" style="fill: #9467bd; stroke: #ffffff; stroke-width: 0.75"/>
     <use xlink:href="#m06beddfb58" x="834.872727" y="261.568963" style="fill: #9467bd; stroke: #ffffff; stroke-width: 0.75"/>
     <use xlink:href="#m06beddfb58" x="885.6" y="265.649666" style="fill: #9467bd; stroke: #ffffff; stroke-width: 0.75"/>
     <use xlink:href="#m06beddfb58" x="936.327273" y="268.556906" style="fill: #9467bd; stroke: #ffffff; stroke-width: 0.75"/>
     <use xlink:href="#m06beddfb58" x="987.054545" y="270.199177" style="fill: #9467bd; stroke: #ffffff; stroke-width: 0.75"/>
     <use xlink:href="#m06beddfb58" x="1037.781818" y="279.955419" style="fill: #9467bd; stroke: #ffffff; stroke-width: 0.75"/>
     <use xlink:href="#m06beddfb58" x="1088.509091" y="287.076046" style="fill: #9467bd; stroke: #ffffff; stroke-width: 0.75"/>
     <use xlink:href="#m06beddfb58" x="1139.236364" y="288.551983" style="fill: #9467bd; stroke: #ffffff; stroke-width: 0.75"/>
     <use xlink:href="#m06beddfb58" x="1189.963636" y="290.194014" style="fill: #9467bd; stroke: #ffffff; stroke-width: 0.75"/>
     <use xlink:href="#m06beddfb58" x="1240.690909" y="297.101215" style="fill: #9467bd; stroke: #ffffff; stroke-width: 0.75"/>
     <use xlink:href="#m06beddfb58" x="1291.418182" y="300.399032" style="fill: #9467bd; stroke: #ffffff; stroke-width: 0.75"/>
     <use xlink:href="#m06beddfb58" x="1342.145455" y="307.726501" style="fill: #9467bd; stroke: #ffffff; stroke-width: 0.75"/>
     <use xlink:href="#m06beddfb58" x="1392.872727" y="310.498632" style="fill: #9467bd; stroke: #ffffff; stroke-width: 0.75"/>
     <use xlink:href="#m06beddfb58" x="1443.6" y="312.981246" style="fill: #9467bd; stroke: #ffffff; stroke-width: 0.75"/>
     <use xlink:href="#m06beddfb58" x="1494.327273" y="312.991916" style="fill: #9467bd; stroke: #ffffff; stroke-width: 0.75"/>
    </g>
   </g>
   <g id="line2d_19">
    <path d="M 276.872727 109.19301 
L 327.6 113.738141 
L 378.327273 138.041347 
L 429.054545 155.398397 
L 479.781818 165.359455 
L 530.509091 183.483046 
L 581.236364 190.020045 
L 631.963636 203.682028 
L 682.690909 226.420274 
L 733.418182 243.862715 
L 784.145455 243.937828 
L 834.872727 244.948408 
L 885.6 251.902905 
L 936.327273 258.030809 
L 987.054545 263.127062 
L 1037.781818 269.606594 
L 1088.509091 274.158356 
L 1139.236364 276.006262 
L 1189.963636 298.930774 
L 1240.690909 304.657443 
L 1291.418182 310.053637 
L 1342.145455 313.06623 
L 1392.872727 320.138131 
L 1443.6 321.759874 
L 1494.327273 324.274598 
" clip-path="url(#pd98ac49440)" style="fill: none; stroke: #8c564b; stroke-width: 1.5; stroke-linecap: square"/>
    <defs>
     <path id="m53f5091659" d="M 0 5 
C 1.326016 5 2.597899 4.473168 3.535534 3.535534 
C 4.473168 2.597899 5 1.326016 5 0 
C 5 -1.326016 4.473168 -2.597899 3.535534 -3.535534 
C 2.597899 -4.473168 1.326016 -5 0 -5 
C -1.326016 -5 -2.597899 -4.473168 -3.535534 -3.535534 
C -4.473168 -2.597899 -5 -1.326016 -5 0 
C -5 1.326016 -4.473168 2.597899 -3.535534 3.535534 
C -2.597899 4.473168 -1.326016 5 0 5 
z
" style="stroke: #ffffff; stroke-width: 0.75"/>
    </defs>
    <g clip-path="url(#pd98ac49440)">
     <use xlink:href="#m53f5091659" x="276.872727" y="109.19301" style="fill: #8c564b; stroke: #ffffff; stroke-width: 0.75"/>
     <use xlink:href="#m53f5091659" x="327.6" y="113.738141" style="fill: #8c564b; stroke: #ffffff; stroke-width: 0.75"/>
     <use xlink:href="#m53f5091659" x="378.327273" y="138.041347" style="fill: #8c564b; stroke: #ffffff; stroke-width: 0.75"/>
     <use xlink:href="#m53f5091659" x="429.054545" y="155.398397" style="fill: #8c564b; stroke: #ffffff; stroke-width: 0.75"/>
     <use xlink:href="#m53f5091659" x="479.781818" y="165.359455" style="fill: #8c564b; stroke: #ffffff; stroke-width: 0.75"/>
     <use xlink:href="#m53f5091659" x="530.509091" y="183.483046" style="fill: #8c564b; stroke: #ffffff; stroke-width: 0.75"/>
     <use xlink:href="#m53f5091659" x="581.236364" y="190.020045" style="fill: #8c564b; stroke: #ffffff; stroke-width: 0.75"/>
     <use xlink:href="#m53f5091659" x="631.963636" y="203.682028" style="fill: #8c564b; stroke: #ffffff; stroke-width: 0.75"/>
     <use xlink:href="#m53f5091659" x="682.690909" y="226.420274" style="fill: #8c564b; stroke: #ffffff; stroke-width: 0.75"/>
     <use xlink:href="#m53f5091659" x="733.418182" y="243.862715" style="fill: #8c564b; stroke: #ffffff; stroke-width: 0.75"/>
     <use xlink:href="#m53f5091659" x="784.145455" y="243.937828" style="fill: #8c564b; stroke: #ffffff; stroke-width: 0.75"/>
     <use xlink:href="#m53f5091659" x="834.872727" y="244.948408" style="fill: #8c564b; stroke: #ffffff; stroke-width: 0.75"/>
     <use xlink:href="#m53f5091659" x="885.6" y="251.902905" style="fill: #8c564b; stroke: #ffffff; stroke-width: 0.75"/>
     <use xlink:href="#m53f5091659" x="936.327273" y="258.030809" style="fill: #8c564b; stroke: #ffffff; stroke-width: 0.75"/>
     <use xlink:href="#m53f5091659" x="987.054545" y="263.127062" style="fill: #8c564b; stroke: #ffffff; stroke-width: 0.75"/>
     <use xlink:href="#m53f5091659" x="1037.781818" y="269.606594" style="fill: #8c564b; stroke: #ffffff; stroke-width: 0.75"/>
     <use xlink:href="#m53f5091659" x="1088.509091" y="274.158356" style="fill: #8c564b; stroke: #ffffff; stroke-width: 0.75"/>
     <use xlink:href="#m53f5091659" x="1139.236364" y="276.006262" style="fill: #8c564b; stroke: #ffffff; stroke-width: 0.75"/>
     <use xlink:href="#m53f5091659" x="1189.963636" y="298.930774" style="fill: #8c564b; stroke: #ffffff; stroke-width: 0.75"/>
     <use xlink:href="#m53f5091659" x="1240.690909" y="304.657443" style="fill: #8c564b; stroke: #ffffff; stroke-width: 0.75"/>
     <use xlink:href="#m53f5091659" x="1291.418182" y="310.053637" style="fill: #8c564b; stroke: #ffffff; stroke-width: 0.75"/>
     <use xlink:href="#m53f5091659" x="1342.145455" y="313.06623" style="fill: #8c564b; stroke: #ffffff; stroke-width: 0.75"/>
     <use xlink:href="#m53f5091659" x="1392.872727" y="320.138131" style="fill: #8c564b; stroke: #ffffff; stroke-width: 0.75"/>
     <use xlink:href="#m53f5091659" x="1443.6" y="321.759874" style="fill: #8c564b; stroke: #ffffff; stroke-width: 0.75"/>
     <use xlink:href="#m53f5091659" x="1494.327273" y="324.274598" style="fill: #8c564b; stroke: #ffffff; stroke-width: 0.75"/>
    </g>
   </g>
   <g id="line2d_20"/>
   <g id="line2d_21"/>
   <g id="line2d_22"/>
   <g id="line2d_23"/>
   <g id="line2d_24"/>
   <g id="line2d_25"/>
   <g id="patch_3">
    <path d="M 216 512.64 
L 216 69.12 
" style="fill: none; stroke: #000000; stroke-width: 0.8; stroke-linejoin: miter; stroke-linecap: square"/>
   </g>
   <g id="patch_4">
    <path d="M 1555.2 512.64 
L 1555.2 69.12 
" style="fill: none; stroke: #000000; stroke-width: 0.8; stroke-linejoin: miter; stroke-linecap: square"/>
   </g>
   <g id="patch_5">
    <path d="M 216 512.64 
L 1555.2 512.64 
" style="fill: none; stroke: #000000; stroke-width: 0.8; stroke-linejoin: miter; stroke-linecap: square"/>
   </g>
   <g id="patch_6">
    <path d="M 216 69.12 
L 1555.2 69.12 
" style="fill: none; stroke: #000000; stroke-width: 0.8; stroke-linejoin: miter; stroke-linecap: square"/>
   </g>
   <g id="legend_1">
    <g id="patch_7">
     <path d="M 1392.107813 261.163125 
L 1548.2 261.163125 
Q 1550.2 261.163125 1550.2 259.163125 
L 1550.2 76.12 
Q 1550.2 74.12 1548.2 74.12 
L 1392.107813 74.12 
Q 1390.107813 74.12 1390.107813 76.12 
L 1390.107813 259.163125 
Q 1390.107813 261.163125 1392.107813 261.163125 
z
" style="fill: #ffffff; opacity: 0.3; stroke: #cccccc; stroke-linejoin: miter"/>
    </g>
    <g id="text_16">
     <!-- Num. clusters -->
     <g transform="translate(1394.107813 94.836563) scale(0.22 -0.22)">
      <defs>
       <path id="DejaVuSans-20" transform="scale(0.015625)"/>
       <path id="DejaVuSans-63" d="M 3122 3366 
L 3122 2828 
Q 2878 2963 2633 3030 
Q 2388 3097 2138 3097 
Q 1578 3097 1268 2742 
Q 959 2388 959 1747 
Q 959 1106 1268 751 
Q 1578 397 2138 397 
Q 2388 397 2633 464 
Q 2878 531 3122 666 
L 3122 134 
Q 2881 22 2623 -34 
Q 2366 -91 2075 -91 
Q 1284 -91 818 406 
Q 353 903 353 1747 
Q 353 2603 823 3093 
Q 1294 3584 2113 3584 
Q 2378 3584 2631 3529 
Q 2884 3475 3122 3366 
z
" transform="scale(0.015625)"/>
       <path id="DejaVuSans-6c" d="M 603 4863 
L 1178 4863 
L 1178 0 
L 603 0 
L 603 4863 
z
" transform="scale(0.015625)"/>
      </defs>
      <use xlink:href="#DejaVuSans-4e"/>
      <use xlink:href="#DejaVuSans-75" x="74.804688"/>
      <use xlink:href="#DejaVuSans-6d" x="138.183594"/>
      <use xlink:href="#DejaVuSans-2e" x="235.595703"/>
      <use xlink:href="#DejaVuSans-20" x="267.382812"/>
      <use xlink:href="#DejaVuSans-63" x="299.169922"/>
      <use xlink:href="#DejaVuSans-6c" x="354.150391"/>
      <use xlink:href="#DejaVuSans-75" x="381.933594"/>
      <use xlink:href="#DejaVuSans-73" x="445.3125"/>
      <use xlink:href="#DejaVuSans-74" x="497.412109"/>
      <use xlink:href="#DejaVuSans-65" x="536.621094"/>
      <use xlink:href="#DejaVuSans-72" x="598.144531"/>
      <use xlink:href="#DejaVuSans-73" x="639.257812"/>
     </g>
    </g>
    <g id="line2d_26">
     <path d="M 1409.515625 117.628438 
L 1419.515625 117.628438 
L 1429.515625 117.628438 
" style="fill: none; stroke: #1f77b4; stroke-width: 1.5; stroke-linecap: square"/>
     <g>
      <use xlink:href="#m144cda8a4b" x="1419.515625" y="117.628438" style="fill: #1f77b4; stroke: #ffffff; stroke-width: 0.75"/>
     </g>
    </g>
    <g id="text_17">
     <!-- 2 -->
     <g transform="translate(1437.515625 121.128438) scale(0.22 -0.22)">
      <use xlink:href="#DejaVuSans-32"/>
     </g>
    </g>
    <g id="line2d_27">
     <path d="M 1409.515625 143.920313 
L 1419.515625 143.920313 
L 1429.515625 143.920313 
" style="fill: none; stroke: #ff7f0e; stroke-width: 1.5; stroke-linecap: square"/>
     <g>
      <use xlink:href="#m2f023183e0" x="1419.515625" y="143.920313" style="fill: #ff7f0e; stroke: #ffffff; stroke-width: 0.75"/>
     </g>
    </g>
    <g id="text_18">
     <!-- 5 -->
     <g transform="translate(1437.515625 147.420313) scale(0.22 -0.22)">
      <use xlink:href="#DejaVuSans-35"/>
     </g>
    </g>
    <g id="line2d_28">
     <path d="M 1409.515625 170.212188 
L 1419.515625 170.212188 
L 1429.515625 170.212188 
" style="fill: none; stroke: #2ca02c; stroke-width: 1.5; stroke-linecap: square"/>
     <g>
      <use xlink:href="#m2d7b81e14f" x="1419.515625" y="170.212188" style="fill: #2ca02c; stroke: #ffffff; stroke-width: 0.75"/>
     </g>
    </g>
    <g id="text_19">
     <!-- 10 -->
     <g transform="translate(1437.515625 173.712188) scale(0.22 -0.22)">
      <use xlink:href="#DejaVuSans-31"/>
      <use xlink:href="#DejaVuSans-30" x="63.623047"/>
     </g>
    </g>
    <g id="line2d_29">
     <path d="M 1409.515625 196.504063 
L 1419.515625 196.504063 
L 1429.515625 196.504063 
" style="fill: none; stroke: #d62728; stroke-width: 1.5; stroke-linecap: square"/>
     <g>
      <use xlink:href="#m0b1fa14c73" x="1419.515625" y="196.504063" style="fill: #d62728; stroke: #ffffff; stroke-width: 0.75"/>
     </g>
    </g>
    <g id="text_20">
     <!-- 15 -->
     <g transform="translate(1437.515625 200.004063) scale(0.22 -0.22)">
      <use xlink:href="#DejaVuSans-31"/>
      <use xlink:href="#DejaVuSans-35" x="63.623047"/>
     </g>
    </g>
    <g id="line2d_30">
     <path d="M 1409.515625 222.795938 
L 1419.515625 222.795938 
L 1429.515625 222.795938 
" style="fill: none; stroke: #9467bd; stroke-width: 1.5; stroke-linecap: square"/>
     <g>
      <use xlink:href="#m06beddfb58" x="1419.515625" y="222.795938" style="fill: #9467bd; stroke: #ffffff; stroke-width: 0.75"/>
     </g>
    </g>
    <g id="text_21">
     <!-- 25 -->
     <g transform="translate(1437.515625 226.295938) scale(0.22 -0.22)">
      <use xlink:href="#DejaVuSans-32"/>
      <use xlink:href="#DejaVuSans-35" x="63.623047"/>
     </g>
    </g>
    <g id="line2d_31">
     <path d="M 1409.515625 249.087813 
L 1419.515625 249.087813 
L 1429.515625 249.087813 
" style="fill: none; stroke: #8c564b; stroke-width: 1.5; stroke-linecap: square"/>
     <g>
      <use xlink:href="#m53f5091659" x="1419.515625" y="249.087813" style="fill: #8c564b; stroke: #ffffff; stroke-width: 0.75"/>
     </g>
    </g>
    <g id="text_22">
     <!-- Baseline -->
     <g transform="translate(1437.515625 252.587813) scale(0.22 -0.22)">
      <use xlink:href="#DejaVuSans-42"/>
      <use xlink:href="#DejaVuSans-61" x="68.603516"/>
      <use xlink:href="#DejaVuSans-73" x="129.882812"/>
      <use xlink:href="#DejaVuSans-65" x="181.982422"/>
      <use xlink:href="#DejaVuSans-6c" x="243.505859"/>
      <use xlink:href="#DejaVuSans-69" x="271.289062"/>
      <use xlink:href="#DejaVuSans-6e" x="299.072266"/>
      <use xlink:href="#DejaVuSans-65" x="362.451172"/>
     </g>
    </g>
   </g>
  </g>
 </g>
 <defs>
  <clipPath id="pd98ac49440">
   <rect x="216" y="69.12" width="1339.2" height="443.52"/>
  </clipPath>
 </defs>
</svg>
