<?xml version="1.0" encoding="utf-8" standalone="no"?>
<!DOCTYPE svg PUBLIC "-//W3C//DTD SVG 1.1//EN"
  "http://www.w3.org/Graphics/SVG/1.1/DTD/svg11.dtd">
<svg xmlns:xlink="http://www.w3.org/1999/xlink" width="1728pt" height="576pt" viewBox="0 0 1728 576" xmlns="http://www.w3.org/2000/svg" version="1.1">
 <metadata>
  <rdf:RDF xmlns:dc="http://purl.org/dc/elements/1.1/" xmlns:cc="http://creativecommons.org/ns#" xmlns:rdf="http://www.w3.org/1999/02/22-rdf-syntax-ns#">
   <cc:Work>
    <dc:type rdf:resource="http://purl.org/dc/dcmitype/StillImage"/>
    <dc:date>2024-04-05T13:11:06.764093</dc:date>
    <dc:format>image/svg+xml</dc:format>
    <dc:creator>
     <cc:Agent>
      <dc:title>Matplotlib v3.8.3, https://matplotlib.org/</dc:title>
     </cc:Agent>
    </dc:creator>
   </cc:Work>
  </rdf:RDF>
 </metadata>
 <defs>
  <style type="text/css">*{stroke-linejoin: round; stroke-linecap: butt}</style>
 </defs>
 <g id="figure_1">
  <g id="patch_1">
   <path d="M 0 576 
L 1728 576 
L 1728 0 
L 0 0 
L 0 576 
z
" style="fill: none"/>
  </g>
  <g id="axes_1">
   <g id="patch_2">
    <path d="M 216 512.64 
L 1555.2 512.64 
L 1555.2 69.12 
L 216 69.12 
L 216 512.64 
z
" style="fill: none"/>
   </g>
   <g id="PolyCollection_1">
    <defs>
     <path id="mfb904d36f3" d="M 276.872727 -438.248193 
L 276.872727 -410.658535 
L 327.6 -403.951091 
L 378.327273 -373.552311 
L 429.054545 -363.745511 
L 479.781818 -344.885764 
L 530.509091 -334.065119 
L 581.236364 -317.280939 
L 631.963636 -305.816875 
L 682.690909 -279.842773 
L 733.418182 -253.719247 
L 784.145455 -237.238792 
L 834.872727 -221.657565 
L 885.6 -203.617234 
L 936.327273 -181.863319 
L 987.054545 -167.735708 
L 1037.781818 -154.628005 
L 1088.509091 -139.845631 
L 1139.236364 -129.330243 
L 1189.963636 -115.59434 
L 1240.690909 -106.460885 
L 1291.418182 -95.258717 
L 1342.145455 -87.594311 
L 1392.872727 -87.055006 
L 1443.6 -83.612394 
L 1494.327273 -83.52 
L 1494.327273 -135.313915 
L 1494.327273 -135.313915 
L 1443.6 -133.689392 
L 1392.872727 -136.698784 
L 1342.145455 -137.19299 
L 1291.418182 -148.938611 
L 1240.690909 -156.445615 
L 1189.963636 -173.870951 
L 1139.236364 -185.935145 
L 1088.509091 -203.068862 
L 1037.781818 -212.591428 
L 987.054545 -226.189339 
L 936.327273 -240.437949 
L 885.6 -261.527173 
L 834.872727 -282.799954 
L 784.145455 -298.435585 
L 733.418182 -322.763102 
L 682.690909 -347.367311 
L 631.963636 -367.828507 
L 581.236364 -376.315506 
L 530.509091 -388.862764 
L 479.781818 -402.202394 
L 429.054545 -412.548219 
L 378.327273 -420.091265 
L 327.6 -432.324915 
L 276.872727 -438.248193 
z
" style="stroke: #1f77b4; stroke-opacity: 0.2"/>
    </defs>
    <g clip-path="url(#p261179ec49)">
     <use xlink:href="#mfb904d36f3" x="0" y="576" style="fill: #1f77b4; fill-opacity: 0.2; stroke: #1f77b4; stroke-opacity: 0.2"/>
    </g>
   </g>
   <g id="PolyCollection_2">
    <defs>
     <path id="mf758f6c709" d="M 276.872727 -466.055108 
L 276.872727 -430.288451 
L 327.6 -419.125282 
L 378.327273 -367.271524 
L 429.054545 -354.298787 
L 479.781818 -324.797634 
L 530.509091 -300.289475 
L 581.236364 -270.616372 
L 631.963636 -261.010248 
L 682.690909 -243.804409 
L 733.418182 -224.792955 
L 784.145455 -205.665014 
L 834.872727 -192.839835 
L 885.6 -173.551632 
L 936.327273 -170.948501 
L 987.054545 -169.008896 
L 1037.781818 -160.64871 
L 1088.509091 -151.814601 
L 1139.236364 -141.063954 
L 1189.963636 -127.722838 
L 1240.690909 -122.276911 
L 1291.418182 -117.130402 
L 1342.145455 -110.808519 
L 1392.872727 -104.661308 
L 1443.6 -101.131346 
L 1494.327273 -96.574516 
L 1494.327273 -157.871126 
L 1494.327273 -157.871126 
L 1443.6 -165.856234 
L 1392.872727 -172.463397 
L 1342.145455 -178.325456 
L 1291.418182 -186.675739 
L 1240.690909 -198.88935 
L 1189.963636 -206.148475 
L 1139.236364 -218.95284 
L 1088.509091 -234.269991 
L 1037.781818 -245.133755 
L 987.054545 -252.009723 
L 936.327273 -257.503785 
L 885.6 -262.238551 
L 834.872727 -275.908822 
L 784.145455 -287.180796 
L 733.418182 -310.995348 
L 682.690909 -329.363829 
L 631.963636 -347.123731 
L 581.236364 -358.300371 
L 530.509091 -379.005866 
L 479.781818 -394.751786 
L 429.054545 -413.023718 
L 378.327273 -426.292029 
L 327.6 -459.011355 
L 276.872727 -466.055108 
z
" style="stroke: #ff7f0e; stroke-opacity: 0.2"/>
    </defs>
    <g clip-path="url(#p261179ec49)">
     <use xlink:href="#mf758f6c709" x="0" y="576" style="fill: #ff7f0e; fill-opacity: 0.2; stroke: #ff7f0e; stroke-opacity: 0.2"/>
    </g>
   </g>
   <g id="PolyCollection_3">
    <defs>
     <path id="mb136cffdcf" d="M 276.872727 -482.179586 
L 276.872727 -451.404672 
L 327.6 -438.130565 
L 378.327273 -369.65976 
L 429.054545 -356.622891 
L 479.781818 -352.170089 
L 530.509091 -331.980443 
L 581.236364 -318.392561 
L 631.963636 -313.825203 
L 682.690909 -298.438565 
L 733.418182 -289.909131 
L 784.145455 -286.709874 
L 834.872727 -287.745948 
L 885.6 -275.228757 
L 936.327273 -262.527478 
L 987.054545 -252.407394 
L 1037.781818 -247.151351 
L 1088.509091 -229.076462 
L 1139.236364 -220.061769 
L 1189.963636 -210.544404 
L 1240.690909 -203.297118 
L 1291.418182 -194.185588 
L 1342.145455 -192.38495 
L 1392.872727 -184.349234 
L 1443.6 -188.841533 
L 1494.327273 -184.859005 
L 1494.327273 -277.827257 
L 1494.327273 -277.827257 
L 1443.6 -277.554659 
L 1392.872727 -278.941578 
L 1342.145455 -283.98069 
L 1291.418182 -294.67087 
L 1240.690909 -299.262276 
L 1189.963636 -304.43169 
L 1139.236364 -315.912186 
L 1088.509091 -322.731062 
L 1037.781818 -341.842123 
L 987.054545 -349.022205 
L 936.327273 -356.843011 
L 885.6 -375.335948 
L 834.872727 -381.318674 
L 784.145455 -379.136313 
L 733.418182 -386.624602 
L 682.690909 -385.44382 
L 631.963636 -397.457929 
L 581.236364 -405.652523 
L 530.509091 -415.00029 
L 479.781818 -428.652718 
L 429.054545 -434.006626 
L 378.327273 -445.167713 
L 327.6 -474.79623 
L 276.872727 -482.179586 
z
" style="stroke: #2ca02c; stroke-opacity: 0.2"/>
    </defs>
    <g clip-path="url(#p261179ec49)">
     <use xlink:href="#mb136cffdcf" x="0" y="576" style="fill: #2ca02c; fill-opacity: 0.2; stroke: #2ca02c; stroke-opacity: 0.2"/>
    </g>
   </g>
   <g id="PolyCollection_4">
    <defs>
     <path id="m38e5f34dbb" d="M 276.872727 -483.167202 
L 276.872727 -456.812674 
L 327.6 -451.601946 
L 378.327273 -387.50244 
L 429.054545 -356.624717 
L 479.781818 -350.229881 
L 530.509091 -341.519556 
L 581.236364 -311.763131 
L 631.963636 -297.231457 
L 682.690909 -291.343944 
L 733.418182 -275.900288 
L 784.145455 -269.352573 
L 834.872727 -264.704153 
L 885.6 -259.41226 
L 936.327273 -247.037238 
L 987.054545 -242.860201 
L 1037.781818 -235.448508 
L 1088.509091 -219.702426 
L 1139.236364 -216.611837 
L 1189.963636 -206.396948 
L 1240.690909 -206.30796 
L 1291.418182 -199.866292 
L 1342.145455 -189.939091 
L 1392.872727 -185.763692 
L 1443.6 -181.811384 
L 1494.327273 -176.279272 
L 1494.327273 -255.372813 
L 1494.327273 -255.372813 
L 1443.6 -259.601382 
L 1392.872727 -262.779715 
L 1342.145455 -270.061698 
L 1291.418182 -278.18975 
L 1240.690909 -284.754365 
L 1189.963636 -289.109389 
L 1139.236364 -304.973064 
L 1088.509091 -308.322663 
L 1037.781818 -324.927829 
L 987.054545 -330.783677 
L 936.327273 -332.248551 
L 885.6 -339.70431 
L 834.872727 -347.117489 
L 784.145455 -353.089684 
L 733.418182 -354.627276 
L 682.690909 -369.781358 
L 631.963636 -376.45126 
L 581.236364 -385.076542 
L 530.509091 -406.416795 
L 479.781818 -414.251907 
L 429.054545 -424.050813 
L 378.327273 -454.038502 
L 327.6 -478.651002 
L 276.872727 -483.167202 
z
" style="stroke: #d62728; stroke-opacity: 0.2"/>
    </defs>
    <g clip-path="url(#p261179ec49)">
     <use xlink:href="#m38e5f34dbb" x="0" y="576" style="fill: #d62728; fill-opacity: 0.2; stroke: #d62728; stroke-opacity: 0.2"/>
    </g>
   </g>
   <g id="PolyCollection_5">
    <defs>
     <path id="me38a204fc0" d="M 276.872727 -484.916186 
L 276.872727 -456.800575 
L 327.6 -449.378841 
L 378.327273 -398.615522 
L 429.054545 -370.62902 
L 479.781818 -366.161706 
L 530.509091 -333.08153 
L 581.236364 -327.722704 
L 631.963636 -316.802488 
L 682.690909 -306.428938 
L 733.418182 -300.84043 
L 784.145455 -300.17429 
L 834.872727 -291.844751 
L 885.6 -281.769448 
L 936.327273 -271.477256 
L 987.054545 -254.978699 
L 1037.781818 -254.812202 
L 1088.509091 -249.83859 
L 1139.236364 -242.161024 
L 1189.963636 -227.121494 
L 1240.690909 -217.976384 
L 1291.418182 -221.427543 
L 1342.145455 -218.325262 
L 1392.872727 -215.068879 
L 1443.6 -209.451283 
L 1494.327273 -206.614526 
L 1494.327273 -293.854671 
L 1494.327273 -293.854671 
L 1443.6 -301.621712 
L 1392.872727 -304.275447 
L 1342.145455 -300.376783 
L 1291.418182 -303.390847 
L 1240.690909 -305.860676 
L 1189.963636 -315.4163 
L 1139.236364 -328.574834 
L 1088.509091 -333.564342 
L 1037.781818 -342.721642 
L 987.054545 -343.562823 
L 936.327273 -359.90402 
L 885.6 -367.912733 
L 834.872727 -376.980625 
L 784.145455 -377.942175 
L 733.418182 -382.018928 
L 682.690909 -388.267872 
L 631.963636 -402.803942 
L 581.236364 -409.431446 
L 530.509091 -417.345287 
L 479.781818 -438.006946 
L 429.054545 -448.257998 
L 378.327273 -463.107336 
L 327.6 -482.043292 
L 276.872727 -484.916186 
z
" style="stroke: #9467bd; stroke-opacity: 0.2"/>
    </defs>
    <g clip-path="url(#p261179ec49)">
     <use xlink:href="#me38a204fc0" x="0" y="576" style="fill: #9467bd; fill-opacity: 0.2; stroke: #9467bd; stroke-opacity: 0.2"/>
    </g>
   </g>
   <g id="PolyCollection_6">
    <defs>
     <path id="m2dcbc7a23d" d="M 276.872727 -486.72 
L 276.872727 -446.037989 
L 327.6 -426.651948 
L 378.327273 -261.559111 
L 429.054545 -214.712356 
L 479.781818 -190.53405 
L 530.509091 -172.362712 
L 581.236364 -173.555552 
L 631.963636 -172.249116 
L 682.690909 -169.084529 
L 733.418182 -169.09147 
L 784.145455 -164.092507 
L 834.872727 -165.888687 
L 885.6 -164.300664 
L 936.327273 -158.252074 
L 987.054545 -150.779553 
L 1037.781818 -145.647719 
L 1088.509091 -144.104841 
L 1139.236364 -142.665674 
L 1189.963636 -131.185039 
L 1240.690909 -123.70033 
L 1291.418182 -128.266447 
L 1342.145455 -125.360129 
L 1392.872727 -125.723094 
L 1443.6 -121.060549 
L 1494.327273 -118.007301 
L 1494.327273 -211.703858 
L 1494.327273 -211.703858 
L 1443.6 -215.787621 
L 1392.872727 -225.474391 
L 1342.145455 -222.628762 
L 1291.418182 -223.358978 
L 1240.690909 -225.001374 
L 1189.963636 -228.206 
L 1139.236364 -251.810941 
L 1088.509091 -260.449832 
L 1037.781818 -261.252984 
L 987.054545 -268.208216 
L 936.327273 -279.397107 
L 885.6 -293.208572 
L 834.872727 -294.275225 
L 784.145455 -295.173499 
L 733.418182 -296.043827 
L 682.690909 -301.970536 
L 631.963636 -294.990197 
L 581.236364 -300.973078 
L 530.509091 -300.568924 
L 479.781818 -308.103944 
L 429.054545 -344.586905 
L 378.327273 -384.912113 
L 327.6 -469.724 
L 276.872727 -486.72 
z
" style="stroke: #8c564b; stroke-opacity: 0.2"/>
    </defs>
    <g clip-path="url(#p261179ec49)">
     <use xlink:href="#m2dcbc7a23d" x="0" y="576" style="fill: #8c564b; fill-opacity: 0.2; stroke: #8c564b; stroke-opacity: 0.2"/>
    </g>
   </g>
   <g id="matplotlib.axis_1">
    <g id="xtick_1">
     <g id="line2d_1">
      <defs>
       <path id="m9633a8048a" d="M 0 0 
L 0 3.5 
" style="stroke: #000000; stroke-width: 0.8"/>
      </defs>
      <g>
       <use xlink:href="#m9633a8048a" x="226.145455" y="512.64" style="stroke: #000000; stroke-width: 0.8"/>
      </g>
     </g>
     <g id="text_1">
      <!-- 0 -->
      <g transform="translate(219.146705 536.356562) scale(0.22 -0.22)">
       <defs>
        <path id="DejaVuSans-30" d="M 2034 4250 
Q 1547 4250 1301 3770 
Q 1056 3291 1056 2328 
Q 1056 1369 1301 889 
Q 1547 409 2034 409 
Q 2525 409 2770 889 
Q 3016 1369 3016 2328 
Q 3016 3291 2770 3770 
Q 2525 4250 2034 4250 
z
M 2034 4750 
Q 2819 4750 3233 4129 
Q 3647 3509 3647 2328 
Q 3647 1150 3233 529 
Q 2819 -91 2034 -91 
Q 1250 -91 836 529 
Q 422 1150 422 2328 
Q 422 3509 836 4129 
Q 1250 4750 2034 4750 
z
" transform="scale(0.015625)"/>
       </defs>
       <use xlink:href="#DejaVuSans-30"/>
      </g>
     </g>
    </g>
    <g id="xtick_2">
     <g id="line2d_2">
      <g>
       <use xlink:href="#m9633a8048a" x="479.781818" y="512.64" style="stroke: #000000; stroke-width: 0.8"/>
      </g>
     </g>
     <g id="text_2">
      <!-- 5 -->
      <g transform="translate(472.783068 536.356562) scale(0.22 -0.22)">
       <defs>
        <path id="DejaVuSans-35" d="M 691 4666 
L 3169 4666 
L 3169 4134 
L 1269 4134 
L 1269 2991 
Q 1406 3038 1543 3061 
Q 1681 3084 1819 3084 
Q 2600 3084 3056 2656 
Q 3513 2228 3513 1497 
Q 3513 744 3044 326 
Q 2575 -91 1722 -91 
Q 1428 -91 1123 -41 
Q 819 9 494 109 
L 494 744 
Q 775 591 1075 516 
Q 1375 441 1709 441 
Q 2250 441 2565 725 
Q 2881 1009 2881 1497 
Q 2881 1984 2565 2268 
Q 2250 2553 1709 2553 
Q 1456 2553 1204 2497 
Q 953 2441 691 2322 
L 691 4666 
z
" transform="scale(0.015625)"/>
       </defs>
       <use xlink:href="#DejaVuSans-35"/>
      </g>
     </g>
    </g>
    <g id="xtick_3">
     <g id="line2d_3">
      <g>
       <use xlink:href="#m9633a8048a" x="733.418182" y="512.64" style="stroke: #000000; stroke-width: 0.8"/>
      </g>
     </g>
     <g id="text_3">
      <!-- 10 -->
      <g transform="translate(719.420682 536.356562) scale(0.22 -0.22)">
       <defs>
        <path id="DejaVuSans-31" d="M 794 531 
L 1825 531 
L 1825 4091 
L 703 3866 
L 703 4441 
L 1819 4666 
L 2450 4666 
L 2450 531 
L 3481 531 
L 3481 0 
L 794 0 
L 794 531 
z
" transform="scale(0.015625)"/>
       </defs>
       <use xlink:href="#DejaVuSans-31"/>
       <use xlink:href="#DejaVuSans-30" x="63.623047"/>
      </g>
     </g>
    </g>
    <g id="xtick_4">
     <g id="line2d_4">
      <g>
       <use xlink:href="#m9633a8048a" x="987.054545" y="512.64" style="stroke: #000000; stroke-width: 0.8"/>
      </g>
     </g>
     <g id="text_4">
      <!-- 15 -->
      <g transform="translate(973.057045 536.356562) scale(0.22 -0.22)">
       <use xlink:href="#DejaVuSans-31"/>
       <use xlink:href="#DejaVuSans-35" x="63.623047"/>
      </g>
     </g>
    </g>
    <g id="xtick_5">
     <g id="line2d_5">
      <g>
       <use xlink:href="#m9633a8048a" x="1240.690909" y="512.64" style="stroke: #000000; stroke-width: 0.8"/>
      </g>
     </g>
     <g id="text_5">
      <!-- 20 -->
      <g transform="translate(1226.693409 536.356562) scale(0.22 -0.22)">
       <defs>
        <path id="DejaVuSans-32" d="M 1228 531 
L 3431 531 
L 3431 0 
L 469 0 
L 469 531 
Q 828 903 1448 1529 
Q 2069 2156 2228 2338 
Q 2531 2678 2651 2914 
Q 2772 3150 2772 3378 
Q 2772 3750 2511 3984 
Q 2250 4219 1831 4219 
Q 1534 4219 1204 4116 
Q 875 4013 500 3803 
L 500 4441 
Q 881 4594 1212 4672 
Q 1544 4750 1819 4750 
Q 2544 4750 2975 4387 
Q 3406 4025 3406 3419 
Q 3406 3131 3298 2873 
Q 3191 2616 2906 2266 
Q 2828 2175 2409 1742 
Q 1991 1309 1228 531 
z
" transform="scale(0.015625)"/>
       </defs>
       <use xlink:href="#DejaVuSans-32"/>
       <use xlink:href="#DejaVuSans-30" x="63.623047"/>
      </g>
     </g>
    </g>
    <g id="xtick_6">
     <g id="line2d_6">
      <g>
       <use xlink:href="#m9633a8048a" x="1494.327273" y="512.64" style="stroke: #000000; stroke-width: 0.8"/>
      </g>
     </g>
     <g id="text_6">
      <!-- 25 -->
      <g transform="translate(1480.329773 536.356562) scale(0.22 -0.22)">
       <use xlink:href="#DejaVuSans-32"/>
       <use xlink:href="#DejaVuSans-35" x="63.623047"/>
      </g>
     </g>
    </g>
    <g id="text_7">
     <!-- Num_Experiments -->
     <g transform="translate(784.896719 561.648438) scale(0.22 -0.22)">
      <defs>
       <path id="DejaVuSans-4e" d="M 628 4666 
L 1478 4666 
L 3547 763 
L 3547 4666 
L 4159 4666 
L 4159 0 
L 3309 0 
L 1241 3903 
L 1241 0 
L 628 0 
L 628 4666 
z
" transform="scale(0.015625)"/>
       <path id="DejaVuSans-75" d="M 544 1381 
L 544 3500 
L 1119 3500 
L 1119 1403 
Q 1119 906 1312 657 
Q 1506 409 1894 409 
Q 2359 409 2629 706 
Q 2900 1003 2900 1516 
L 2900 3500 
L 3475 3500 
L 3475 0 
L 2900 0 
L 2900 538 
Q 2691 219 2414 64 
Q 2138 -91 1772 -91 
Q 1169 -91 856 284 
Q 544 659 544 1381 
z
M 1991 3584 
L 1991 3584 
z
" transform="scale(0.015625)"/>
       <path id="DejaVuSans-6d" d="M 3328 2828 
Q 3544 3216 3844 3400 
Q 4144 3584 4550 3584 
Q 5097 3584 5394 3201 
Q 5691 2819 5691 2113 
L 5691 0 
L 5113 0 
L 5113 2094 
Q 5113 2597 4934 2840 
Q 4756 3084 4391 3084 
Q 3944 3084 3684 2787 
Q 3425 2491 3425 1978 
L 3425 0 
L 2847 0 
L 2847 2094 
Q 2847 2600 2669 2842 
Q 2491 3084 2119 3084 
Q 1678 3084 1418 2786 
Q 1159 2488 1159 1978 
L 1159 0 
L 581 0 
L 581 3500 
L 1159 3500 
L 1159 2956 
Q 1356 3278 1631 3431 
Q 1906 3584 2284 3584 
Q 2666 3584 2933 3390 
Q 3200 3197 3328 2828 
z
" transform="scale(0.015625)"/>
       <path id="DejaVuSans-5f" d="M 3263 -1063 
L 3263 -1509 
L -63 -1509 
L -63 -1063 
L 3263 -1063 
z
" transform="scale(0.015625)"/>
       <path id="DejaVuSans-45" d="M 628 4666 
L 3578 4666 
L 3578 4134 
L 1259 4134 
L 1259 2753 
L 3481 2753 
L 3481 2222 
L 1259 2222 
L 1259 531 
L 3634 531 
L 3634 0 
L 628 0 
L 628 4666 
z
" transform="scale(0.015625)"/>
       <path id="DejaVuSans-78" d="M 3513 3500 
L 2247 1797 
L 3578 0 
L 2900 0 
L 1881 1375 
L 863 0 
L 184 0 
L 1544 1831 
L 300 3500 
L 978 3500 
L 1906 2253 
L 2834 3500 
L 3513 3500 
z
" transform="scale(0.015625)"/>
       <path id="DejaVuSans-70" d="M 1159 525 
L 1159 -1331 
L 581 -1331 
L 581 3500 
L 1159 3500 
L 1159 2969 
Q 1341 3281 1617 3432 
Q 1894 3584 2278 3584 
Q 2916 3584 3314 3078 
Q 3713 2572 3713 1747 
Q 3713 922 3314 415 
Q 2916 -91 2278 -91 
Q 1894 -91 1617 61 
Q 1341 213 1159 525 
z
M 3116 1747 
Q 3116 2381 2855 2742 
Q 2594 3103 2138 3103 
Q 1681 3103 1420 2742 
Q 1159 2381 1159 1747 
Q 1159 1113 1420 752 
Q 1681 391 2138 391 
Q 2594 391 2855 752 
Q 3116 1113 3116 1747 
z
" transform="scale(0.015625)"/>
       <path id="DejaVuSans-65" d="M 3597 1894 
L 3597 1613 
L 953 1613 
Q 991 1019 1311 708 
Q 1631 397 2203 397 
Q 2534 397 2845 478 
Q 3156 559 3463 722 
L 3463 178 
Q 3153 47 2828 -22 
Q 2503 -91 2169 -91 
Q 1331 -91 842 396 
Q 353 884 353 1716 
Q 353 2575 817 3079 
Q 1281 3584 2069 3584 
Q 2775 3584 3186 3129 
Q 3597 2675 3597 1894 
z
M 3022 2063 
Q 3016 2534 2758 2815 
Q 2500 3097 2075 3097 
Q 1594 3097 1305 2825 
Q 1016 2553 972 2059 
L 3022 2063 
z
" transform="scale(0.015625)"/>
       <path id="DejaVuSans-72" d="M 2631 2963 
Q 2534 3019 2420 3045 
Q 2306 3072 2169 3072 
Q 1681 3072 1420 2755 
Q 1159 2438 1159 1844 
L 1159 0 
L 581 0 
L 581 3500 
L 1159 3500 
L 1159 2956 
Q 1341 3275 1631 3429 
Q 1922 3584 2338 3584 
Q 2397 3584 2469 3576 
Q 2541 3569 2628 3553 
L 2631 2963 
z
" transform="scale(0.015625)"/>
       <path id="DejaVuSans-69" d="M 603 3500 
L 1178 3500 
L 1178 0 
L 603 0 
L 603 3500 
z
M 603 4863 
L 1178 4863 
L 1178 4134 
L 603 4134 
L 603 4863 
z
" transform="scale(0.015625)"/>
       <path id="DejaVuSans-6e" d="M 3513 2113 
L 3513 0 
L 2938 0 
L 2938 2094 
Q 2938 2591 2744 2837 
Q 2550 3084 2163 3084 
Q 1697 3084 1428 2787 
Q 1159 2491 1159 1978 
L 1159 0 
L 581 0 
L 581 3500 
L 1159 3500 
L 1159 2956 
Q 1366 3272 1645 3428 
Q 1925 3584 2291 3584 
Q 2894 3584 3203 3211 
Q 3513 2838 3513 2113 
z
" transform="scale(0.015625)"/>
       <path id="DejaVuSans-74" d="M 1172 4494 
L 1172 3500 
L 2356 3500 
L 2356 3053 
L 1172 3053 
L 1172 1153 
Q 1172 725 1289 603 
Q 1406 481 1766 481 
L 2356 481 
L 2356 0 
L 1766 0 
Q 1100 0 847 248 
Q 594 497 594 1153 
L 594 3053 
L 172 3053 
L 172 3500 
L 594 3500 
L 594 4494 
L 1172 4494 
z
" transform="scale(0.015625)"/>
       <path id="DejaVuSans-73" d="M 2834 3397 
L 2834 2853 
Q 2591 2978 2328 3040 
Q 2066 3103 1784 3103 
Q 1356 3103 1142 2972 
Q 928 2841 928 2578 
Q 928 2378 1081 2264 
Q 1234 2150 1697 2047 
L 1894 2003 
Q 2506 1872 2764 1633 
Q 3022 1394 3022 966 
Q 3022 478 2636 193 
Q 2250 -91 1575 -91 
Q 1294 -91 989 -36 
Q 684 19 347 128 
L 347 722 
Q 666 556 975 473 
Q 1284 391 1588 391 
Q 1994 391 2212 530 
Q 2431 669 2431 922 
Q 2431 1156 2273 1281 
Q 2116 1406 1581 1522 
L 1381 1569 
Q 847 1681 609 1914 
Q 372 2147 372 2553 
Q 372 3047 722 3315 
Q 1072 3584 1716 3584 
Q 2034 3584 2315 3537 
Q 2597 3491 2834 3397 
z
" transform="scale(0.015625)"/>
      </defs>
      <use xlink:href="#DejaVuSans-4e"/>
      <use xlink:href="#DejaVuSans-75" x="74.804688"/>
      <use xlink:href="#DejaVuSans-6d" x="138.183594"/>
      <use xlink:href="#DejaVuSans-5f" x="235.595703"/>
      <use xlink:href="#DejaVuSans-45" x="285.595703"/>
      <use xlink:href="#DejaVuSans-78" x="348.779297"/>
      <use xlink:href="#DejaVuSans-70" x="407.958984"/>
      <use xlink:href="#DejaVuSans-65" x="471.435547"/>
      <use xlink:href="#DejaVuSans-72" x="532.958984"/>
      <use xlink:href="#DejaVuSans-69" x="574.072266"/>
      <use xlink:href="#DejaVuSans-6d" x="601.855469"/>
      <use xlink:href="#DejaVuSans-65" x="699.267578"/>
      <use xlink:href="#DejaVuSans-6e" x="760.791016"/>
      <use xlink:href="#DejaVuSans-74" x="824.169922"/>
      <use xlink:href="#DejaVuSans-73" x="863.378906"/>
     </g>
    </g>
   </g>
   <g id="matplotlib.axis_2">
    <g id="ytick_1">
     <g id="line2d_7">
      <defs>
       <path id="m373850497f" d="M 0 0 
L -3.5 0 
" style="stroke: #000000; stroke-width: 0.8"/>
      </defs>
      <g>
       <use xlink:href="#m373850497f" x="216" y="486.290974" style="stroke: #000000; stroke-width: 0.8"/>
      </g>
     </g>
     <g id="text_8">
      <!-- −3.0 -->
      <g transform="translate(155.577812 494.649256) scale(0.22 -0.22)">
       <defs>
        <path id="DejaVuSans-2212" d="M 678 2272 
L 4684 2272 
L 4684 1741 
L 678 1741 
L 678 2272 
z
" transform="scale(0.015625)"/>
        <path id="DejaVuSans-33" d="M 2597 2516 
Q 3050 2419 3304 2112 
Q 3559 1806 3559 1356 
Q 3559 666 3084 287 
Q 2609 -91 1734 -91 
Q 1441 -91 1130 -33 
Q 819 25 488 141 
L 488 750 
Q 750 597 1062 519 
Q 1375 441 1716 441 
Q 2309 441 2620 675 
Q 2931 909 2931 1356 
Q 2931 1769 2642 2001 
Q 2353 2234 1838 2234 
L 1294 2234 
L 1294 2753 
L 1863 2753 
Q 2328 2753 2575 2939 
Q 2822 3125 2822 3475 
Q 2822 3834 2567 4026 
Q 2313 4219 1838 4219 
Q 1578 4219 1281 4162 
Q 984 4106 628 3988 
L 628 4550 
Q 988 4650 1302 4700 
Q 1616 4750 1894 4750 
Q 2613 4750 3031 4423 
Q 3450 4097 3450 3541 
Q 3450 3153 3228 2886 
Q 3006 2619 2597 2516 
z
" transform="scale(0.015625)"/>
        <path id="DejaVuSans-2e" d="M 684 794 
L 1344 794 
L 1344 0 
L 684 0 
L 684 794 
z
" transform="scale(0.015625)"/>
       </defs>
       <use xlink:href="#DejaVuSans-2212"/>
       <use xlink:href="#DejaVuSans-33" x="83.789062"/>
       <use xlink:href="#DejaVuSans-2e" x="147.412109"/>
       <use xlink:href="#DejaVuSans-30" x="179.199219"/>
      </g>
     </g>
    </g>
    <g id="ytick_2">
     <g id="line2d_8">
      <g>
       <use xlink:href="#m373850497f" x="216" y="420.038313" style="stroke: #000000; stroke-width: 0.8"/>
      </g>
     </g>
     <g id="text_9">
      <!-- −2.5 -->
      <g transform="translate(155.577812 428.396594) scale(0.22 -0.22)">
       <use xlink:href="#DejaVuSans-2212"/>
       <use xlink:href="#DejaVuSans-32" x="83.789062"/>
       <use xlink:href="#DejaVuSans-2e" x="147.412109"/>
       <use xlink:href="#DejaVuSans-35" x="179.199219"/>
      </g>
     </g>
    </g>
    <g id="ytick_3">
     <g id="line2d_9">
      <g>
       <use xlink:href="#m373850497f" x="216" y="353.785651" style="stroke: #000000; stroke-width: 0.8"/>
      </g>
     </g>
     <g id="text_10">
      <!-- −2.0 -->
      <g transform="translate(155.577812 362.143932) scale(0.22 -0.22)">
       <use xlink:href="#DejaVuSans-2212"/>
       <use xlink:href="#DejaVuSans-32" x="83.789062"/>
       <use xlink:href="#DejaVuSans-2e" x="147.412109"/>
       <use xlink:href="#DejaVuSans-30" x="179.199219"/>
      </g>
     </g>
    </g>
    <g id="ytick_4">
     <g id="line2d_10">
      <g>
       <use xlink:href="#m373850497f" x="216" y="287.532989" style="stroke: #000000; stroke-width: 0.8"/>
      </g>
     </g>
     <g id="text_11">
      <!-- −1.5 -->
      <g transform="translate(155.577812 295.891271) scale(0.22 -0.22)">
       <use xlink:href="#DejaVuSans-2212"/>
       <use xlink:href="#DejaVuSans-31" x="83.789062"/>
       <use xlink:href="#DejaVuSans-2e" x="147.412109"/>
       <use xlink:href="#DejaVuSans-35" x="179.199219"/>
      </g>
     </g>
    </g>
    <g id="ytick_5">
     <g id="line2d_11">
      <g>
       <use xlink:href="#m373850497f" x="216" y="221.280328" style="stroke: #000000; stroke-width: 0.8"/>
      </g>
     </g>
     <g id="text_12">
      <!-- −1.0 -->
      <g transform="translate(155.577812 229.638609) scale(0.22 -0.22)">
       <use xlink:href="#DejaVuSans-2212"/>
       <use xlink:href="#DejaVuSans-31" x="83.789062"/>
       <use xlink:href="#DejaVuSans-2e" x="147.412109"/>
       <use xlink:href="#DejaVuSans-30" x="179.199219"/>
      </g>
     </g>
    </g>
    <g id="ytick_6">
     <g id="line2d_12">
      <g>
       <use xlink:href="#m373850497f" x="216" y="155.027666" style="stroke: #000000; stroke-width: 0.8"/>
      </g>
     </g>
     <g id="text_13">
      <!-- −0.5 -->
      <g transform="translate(155.577812 163.385947) scale(0.22 -0.22)">
       <use xlink:href="#DejaVuSans-2212"/>
       <use xlink:href="#DejaVuSans-30" x="83.789062"/>
       <use xlink:href="#DejaVuSans-2e" x="147.412109"/>
       <use xlink:href="#DejaVuSans-35" x="179.199219"/>
      </g>
     </g>
    </g>
    <g id="ytick_7">
     <g id="line2d_13">
      <g>
       <use xlink:href="#m373850497f" x="216" y="88.775004" style="stroke: #000000; stroke-width: 0.8"/>
      </g>
     </g>
     <g id="text_14">
      <!-- 0.0 -->
      <g transform="translate(174.013125 97.133286) scale(0.22 -0.22)">
       <use xlink:href="#DejaVuSans-30"/>
       <use xlink:href="#DejaVuSans-2e" x="63.623047"/>
       <use xlink:href="#DejaVuSans-30" x="95.410156"/>
      </g>
     </g>
    </g>
    <g id="text_15">
     <!-- Target_CumBest -->
     <g transform="translate(146.390625 380.143281) rotate(-90) scale(0.22 -0.22)">
      <defs>
       <path id="DejaVuSans-54" d="M -19 4666 
L 3928 4666 
L 3928 4134 
L 2272 4134 
L 2272 0 
L 1638 0 
L 1638 4134 
L -19 4134 
L -19 4666 
z
" transform="scale(0.015625)"/>
       <path id="DejaVuSans-61" d="M 2194 1759 
Q 1497 1759 1228 1600 
Q 959 1441 959 1056 
Q 959 750 1161 570 
Q 1363 391 1709 391 
Q 2188 391 2477 730 
Q 2766 1069 2766 1631 
L 2766 1759 
L 2194 1759 
z
M 3341 1997 
L 3341 0 
L 2766 0 
L 2766 531 
Q 2569 213 2275 61 
Q 1981 -91 1556 -91 
Q 1019 -91 701 211 
Q 384 513 384 1019 
Q 384 1609 779 1909 
Q 1175 2209 1959 2209 
L 2766 2209 
L 2766 2266 
Q 2766 2663 2505 2880 
Q 2244 3097 1772 3097 
Q 1472 3097 1187 3025 
Q 903 2953 641 2809 
L 641 3341 
Q 956 3463 1253 3523 
Q 1550 3584 1831 3584 
Q 2591 3584 2966 3190 
Q 3341 2797 3341 1997 
z
" transform="scale(0.015625)"/>
       <path id="DejaVuSans-67" d="M 2906 1791 
Q 2906 2416 2648 2759 
Q 2391 3103 1925 3103 
Q 1463 3103 1205 2759 
Q 947 2416 947 1791 
Q 947 1169 1205 825 
Q 1463 481 1925 481 
Q 2391 481 2648 825 
Q 2906 1169 2906 1791 
z
M 3481 434 
Q 3481 -459 3084 -895 
Q 2688 -1331 1869 -1331 
Q 1566 -1331 1297 -1286 
Q 1028 -1241 775 -1147 
L 775 -588 
Q 1028 -725 1275 -790 
Q 1522 -856 1778 -856 
Q 2344 -856 2625 -561 
Q 2906 -266 2906 331 
L 2906 616 
Q 2728 306 2450 153 
Q 2172 0 1784 0 
Q 1141 0 747 490 
Q 353 981 353 1791 
Q 353 2603 747 3093 
Q 1141 3584 1784 3584 
Q 2172 3584 2450 3431 
Q 2728 3278 2906 2969 
L 2906 3500 
L 3481 3500 
L 3481 434 
z
" transform="scale(0.015625)"/>
       <path id="DejaVuSans-43" d="M 4122 4306 
L 4122 3641 
Q 3803 3938 3442 4084 
Q 3081 4231 2675 4231 
Q 1875 4231 1450 3742 
Q 1025 3253 1025 2328 
Q 1025 1406 1450 917 
Q 1875 428 2675 428 
Q 3081 428 3442 575 
Q 3803 722 4122 1019 
L 4122 359 
Q 3791 134 3420 21 
Q 3050 -91 2638 -91 
Q 1578 -91 968 557 
Q 359 1206 359 2328 
Q 359 3453 968 4101 
Q 1578 4750 2638 4750 
Q 3056 4750 3426 4639 
Q 3797 4528 4122 4306 
z
" transform="scale(0.015625)"/>
       <path id="DejaVuSans-42" d="M 1259 2228 
L 1259 519 
L 2272 519 
Q 2781 519 3026 730 
Q 3272 941 3272 1375 
Q 3272 1813 3026 2020 
Q 2781 2228 2272 2228 
L 1259 2228 
z
M 1259 4147 
L 1259 2741 
L 2194 2741 
Q 2656 2741 2882 2914 
Q 3109 3088 3109 3444 
Q 3109 3797 2882 3972 
Q 2656 4147 2194 4147 
L 1259 4147 
z
M 628 4666 
L 2241 4666 
Q 2963 4666 3353 4366 
Q 3744 4066 3744 3513 
Q 3744 3084 3544 2831 
Q 3344 2578 2956 2516 
Q 3422 2416 3680 2098 
Q 3938 1781 3938 1306 
Q 3938 681 3513 340 
Q 3088 0 2303 0 
L 628 0 
L 628 4666 
z
" transform="scale(0.015625)"/>
      </defs>
      <use xlink:href="#DejaVuSans-54"/>
      <use xlink:href="#DejaVuSans-61" x="44.583984"/>
      <use xlink:href="#DejaVuSans-72" x="105.863281"/>
      <use xlink:href="#DejaVuSans-67" x="145.226562"/>
      <use xlink:href="#DejaVuSans-65" x="208.703125"/>
      <use xlink:href="#DejaVuSans-74" x="270.226562"/>
      <use xlink:href="#DejaVuSans-5f" x="309.435547"/>
      <use xlink:href="#DejaVuSans-43" x="359.435547"/>
      <use xlink:href="#DejaVuSans-75" x="429.259766"/>
      <use xlink:href="#DejaVuSans-6d" x="492.638672"/>
      <use xlink:href="#DejaVuSans-42" x="590.050781"/>
      <use xlink:href="#DejaVuSans-65" x="658.654297"/>
      <use xlink:href="#DejaVuSans-73" x="720.177734"/>
      <use xlink:href="#DejaVuSans-74" x="772.277344"/>
     </g>
    </g>
   </g>
   <g id="line2d_14">
    <path d="M 276.872727 151.651897 
L 327.6 157.669681 
L 378.327273 177.054294 
L 429.054545 186.607433 
L 479.781818 201.684241 
L 530.509091 213.90727 
L 581.236364 228.237353 
L 631.963636 238.886738 
L 682.690909 262.040271 
L 733.418182 285.804986 
L 784.145455 307.670468 
L 834.872727 323.148184 
L 885.6 343.342784 
L 936.327273 363.856148 
L 987.054545 379.271899 
L 1037.781818 393.237483 
L 1088.509091 407.421452 
L 1139.236364 418.980143 
L 1189.963636 433.391026 
L 1240.690909 445.570386 
L 1291.418182 456.441882 
L 1342.145455 463.891115 
L 1392.872727 465.18171 
L 1443.6 469.621582 
L 1494.327273 470.497132 
" clip-path="url(#p261179ec49)" style="fill: none; stroke: #1f77b4; stroke-width: 1.5; stroke-linecap: square"/>
    <defs>
     <path id="m8ba7f9233d" d="M 0 5 
C 1.326016 5 2.597899 4.473168 3.535534 3.535534 
C 4.473168 2.597899 5 1.326016 5 0 
C 5 -1.326016 4.473168 -2.597899 3.535534 -3.535534 
C 2.597899 -4.473168 1.326016 -5 0 -5 
C -1.326016 -5 -2.597899 -4.473168 -3.535534 -3.535534 
C -4.473168 -2.597899 -5 -1.326016 -5 0 
C -5 1.326016 -4.473168 2.597899 -3.535534 3.535534 
C -2.597899 4.473168 -1.326016 5 0 5 
z
" style="stroke: #ffffff; stroke-width: 0.75"/>
    </defs>
    <g clip-path="url(#p261179ec49)">
     <use xlink:href="#m8ba7f9233d" x="276.872727" y="151.651897" style="fill: #1f77b4; stroke: #ffffff; stroke-width: 0.75"/>
     <use xlink:href="#m8ba7f9233d" x="327.6" y="157.669681" style="fill: #1f77b4; stroke: #ffffff; stroke-width: 0.75"/>
     <use xlink:href="#m8ba7f9233d" x="378.327273" y="177.054294" style="fill: #1f77b4; stroke: #ffffff; stroke-width: 0.75"/>
     <use xlink:href="#m8ba7f9233d" x="429.054545" y="186.607433" style="fill: #1f77b4; stroke: #ffffff; stroke-width: 0.75"/>
     <use xlink:href="#m8ba7f9233d" x="479.781818" y="201.684241" style="fill: #1f77b4; stroke: #ffffff; stroke-width: 0.75"/>
     <use xlink:href="#m8ba7f9233d" x="530.509091" y="213.90727" style="fill: #1f77b4; stroke: #ffffff; stroke-width: 0.75"/>
     <use xlink:href="#m8ba7f9233d" x="581.236364" y="228.237353" style="fill: #1f77b4; stroke: #ffffff; stroke-width: 0.75"/>
     <use xlink:href="#m8ba7f9233d" x="631.963636" y="238.886738" style="fill: #1f77b4; stroke: #ffffff; stroke-width: 0.75"/>
     <use xlink:href="#m8ba7f9233d" x="682.690909" y="262.040271" style="fill: #1f77b4; stroke: #ffffff; stroke-width: 0.75"/>
     <use xlink:href="#m8ba7f9233d" x="733.418182" y="285.804986" style="fill: #1f77b4; stroke: #ffffff; stroke-width: 0.75"/>
     <use xlink:href="#m8ba7f9233d" x="784.145455" y="307.670468" style="fill: #1f77b4; stroke: #ffffff; stroke-width: 0.75"/>
     <use xlink:href="#m8ba7f9233d" x="834.872727" y="323.148184" style="fill: #1f77b4; stroke: #ffffff; stroke-width: 0.75"/>
     <use xlink:href="#m8ba7f9233d" x="885.6" y="343.342784" style="fill: #1f77b4; stroke: #ffffff; stroke-width: 0.75"/>
     <use xlink:href="#m8ba7f9233d" x="936.327273" y="363.856148" style="fill: #1f77b4; stroke: #ffffff; stroke-width: 0.75"/>
     <use xlink:href="#m8ba7f9233d" x="987.054545" y="379.271899" style="fill: #1f77b4; stroke: #ffffff; stroke-width: 0.75"/>
     <use xlink:href="#m8ba7f9233d" x="1037.781818" y="393.237483" style="fill: #1f77b4; stroke: #ffffff; stroke-width: 0.75"/>
     <use xlink:href="#m8ba7f9233d" x="1088.509091" y="407.421452" style="fill: #1f77b4; stroke: #ffffff; stroke-width: 0.75"/>
     <use xlink:href="#m8ba7f9233d" x="1139.236364" y="418.980143" style="fill: #1f77b4; stroke: #ffffff; stroke-width: 0.75"/>
     <use xlink:href="#m8ba7f9233d" x="1189.963636" y="433.391026" style="fill: #1f77b4; stroke: #ffffff; stroke-width: 0.75"/>
     <use xlink:href="#m8ba7f9233d" x="1240.690909" y="445.570386" style="fill: #1f77b4; stroke: #ffffff; stroke-width: 0.75"/>
     <use xlink:href="#m8ba7f9233d" x="1291.418182" y="456.441882" style="fill: #1f77b4; stroke: #ffffff; stroke-width: 0.75"/>
     <use xlink:href="#m8ba7f9233d" x="1342.145455" y="463.891115" style="fill: #1f77b4; stroke: #ffffff; stroke-width: 0.75"/>
     <use xlink:href="#m8ba7f9233d" x="1392.872727" y="465.18171" style="fill: #1f77b4; stroke: #ffffff; stroke-width: 0.75"/>
     <use xlink:href="#m8ba7f9233d" x="1443.6" y="469.621582" style="fill: #1f77b4; stroke: #ffffff; stroke-width: 0.75"/>
     <use xlink:href="#m8ba7f9233d" x="1494.327273" y="470.497132" style="fill: #1f77b4; stroke: #ffffff; stroke-width: 0.75"/>
    </g>
   </g>
   <g id="line2d_15">
    <path d="M 276.872727 124.795185 
L 327.6 135.6647 
L 378.327273 176.892888 
L 429.054545 191.687377 
L 479.781818 215.053439 
L 530.509091 234.702101 
L 581.236364 259.757513 
L 631.963636 270.176229 
L 682.690909 291.317785 
L 733.418182 307.49252 
L 784.145455 330.393199 
L 834.872727 343.468483 
L 885.6 355.258725 
L 936.327273 362.243107 
L 987.054545 368.007807 
L 1037.781818 374.436213 
L 1088.509091 383.001441 
L 1139.236364 396.963573 
L 1189.963636 408.063419 
L 1240.690909 415.59022 
L 1291.418182 426.461396 
L 1342.145455 431.802792 
L 1392.872727 438.355724 
L 1443.6 444.845855 
L 1494.327273 450.944857 
" clip-path="url(#p261179ec49)" style="fill: none; stroke: #ff7f0e; stroke-width: 1.5; stroke-linecap: square"/>
    <defs>
     <path id="mab9fec3230" d="M 0 5 
C 1.326016 5 2.597899 4.473168 3.535534 3.535534 
C 4.473168 2.597899 5 1.326016 5 0 
C 5 -1.326016 4.473168 -2.597899 3.535534 -3.535534 
C 2.597899 -4.473168 1.326016 -5 0 -5 
C -1.326016 -5 -2.597899 -4.473168 -3.535534 -3.535534 
C -4.473168 -2.597899 -5 -1.326016 -5 0 
C -5 1.326016 -4.473168 2.597899 -3.535534 3.535534 
C -2.597899 4.473168 -1.326016 5 0 5 
z
" style="stroke: #ffffff; stroke-width: 0.75"/>
    </defs>
    <g clip-path="url(#p261179ec49)">
     <use xlink:href="#mab9fec3230" x="276.872727" y="124.795185" style="fill: #ff7f0e; stroke: #ffffff; stroke-width: 0.75"/>
     <use xlink:href="#mab9fec3230" x="327.6" y="135.6647" style="fill: #ff7f0e; stroke: #ffffff; stroke-width: 0.75"/>
     <use xlink:href="#mab9fec3230" x="378.327273" y="176.892888" style="fill: #ff7f0e; stroke: #ffffff; stroke-width: 0.75"/>
     <use xlink:href="#mab9fec3230" x="429.054545" y="191.687377" style="fill: #ff7f0e; stroke: #ffffff; stroke-width: 0.75"/>
     <use xlink:href="#mab9fec3230" x="479.781818" y="215.053439" style="fill: #ff7f0e; stroke: #ffffff; stroke-width: 0.75"/>
     <use xlink:href="#mab9fec3230" x="530.509091" y="234.702101" style="fill: #ff7f0e; stroke: #ffffff; stroke-width: 0.75"/>
     <use xlink:href="#mab9fec3230" x="581.236364" y="259.757513" style="fill: #ff7f0e; stroke: #ffffff; stroke-width: 0.75"/>
     <use xlink:href="#mab9fec3230" x="631.963636" y="270.176229" style="fill: #ff7f0e; stroke: #ffffff; stroke-width: 0.75"/>
     <use xlink:href="#mab9fec3230" x="682.690909" y="291.317785" style="fill: #ff7f0e; stroke: #ffffff; stroke-width: 0.75"/>
     <use xlink:href="#mab9fec3230" x="733.418182" y="307.49252" style="fill: #ff7f0e; stroke: #ffffff; stroke-width: 0.75"/>
     <use xlink:href="#mab9fec3230" x="784.145455" y="330.393199" style="fill: #ff7f0e; stroke: #ffffff; stroke-width: 0.75"/>
     <use xlink:href="#mab9fec3230" x="834.872727" y="343.468483" style="fill: #ff7f0e; stroke: #ffffff; stroke-width: 0.75"/>
     <use xlink:href="#mab9fec3230" x="885.6" y="355.258725" style="fill: #ff7f0e; stroke: #ffffff; stroke-width: 0.75"/>
     <use xlink:href="#mab9fec3230" x="936.327273" y="362.243107" style="fill: #ff7f0e; stroke: #ffffff; stroke-width: 0.75"/>
     <use xlink:href="#mab9fec3230" x="987.054545" y="368.007807" style="fill: #ff7f0e; stroke: #ffffff; stroke-width: 0.75"/>
     <use xlink:href="#mab9fec3230" x="1037.781818" y="374.436213" style="fill: #ff7f0e; stroke: #ffffff; stroke-width: 0.75"/>
     <use xlink:href="#mab9fec3230" x="1088.509091" y="383.001441" style="fill: #ff7f0e; stroke: #ffffff; stroke-width: 0.75"/>
     <use xlink:href="#mab9fec3230" x="1139.236364" y="396.963573" style="fill: #ff7f0e; stroke: #ffffff; stroke-width: 0.75"/>
     <use xlink:href="#mab9fec3230" x="1189.963636" y="408.063419" style="fill: #ff7f0e; stroke: #ffffff; stroke-width: 0.75"/>
     <use xlink:href="#mab9fec3230" x="1240.690909" y="415.59022" style="fill: #ff7f0e; stroke: #ffffff; stroke-width: 0.75"/>
     <use xlink:href="#mab9fec3230" x="1291.418182" y="426.461396" style="fill: #ff7f0e; stroke: #ffffff; stroke-width: 0.75"/>
     <use xlink:href="#mab9fec3230" x="1342.145455" y="431.802792" style="fill: #ff7f0e; stroke: #ffffff; stroke-width: 0.75"/>
     <use xlink:href="#mab9fec3230" x="1392.872727" y="438.355724" style="fill: #ff7f0e; stroke: #ffffff; stroke-width: 0.75"/>
     <use xlink:href="#mab9fec3230" x="1443.6" y="444.845855" style="fill: #ff7f0e; stroke: #ffffff; stroke-width: 0.75"/>
     <use xlink:href="#mab9fec3230" x="1494.327273" y="450.944857" style="fill: #ff7f0e; stroke: #ffffff; stroke-width: 0.75"/>
    </g>
   </g>
   <g id="line2d_16">
    <path d="M 276.872727 106.673388 
L 327.6 116.155668 
L 378.327273 167.576241 
L 429.054545 179.005536 
L 479.781818 184.958008 
L 530.509091 200.541528 
L 581.236364 214.174979 
L 631.963636 219.087059 
L 682.690909 232.20689 
L 733.418182 235.466115 
L 784.145455 240.911095 
L 834.872727 242.01531 
L 885.6 249.890082 
L 936.327273 264.408333 
L 987.054545 272.21344 
L 1037.781818 280.113381 
L 1088.509091 299.212717 
L 1139.236364 306.83043 
L 1189.963636 313.885824 
L 1240.690909 322.103134 
L 1291.418182 330.607977 
L 1342.145455 336.360429 
L 1392.872727 340.176668 
L 1443.6 340.966788 
L 1494.327273 344.914751 
" clip-path="url(#p261179ec49)" style="fill: none; stroke: #2ca02c; stroke-width: 1.5; stroke-linecap: square"/>
    <defs>
     <path id="mf398d33d64" d="M 0 5 
C 1.326016 5 2.597899 4.473168 3.535534 3.535534 
C 4.473168 2.597899 5 1.326016 5 0 
C 5 -1.326016 4.473168 -2.597899 3.535534 -3.535534 
C 2.597899 -4.473168 1.326016 -5 0 -5 
C -1.326016 -5 -2.597899 -4.473168 -3.535534 -3.535534 
C -4.473168 -2.597899 -5 -1.326016 -5 0 
C -5 1.326016 -4.473168 2.597899 -3.535534 3.535534 
C -2.597899 4.473168 -1.326016 5 0 5 
z
" style="stroke: #ffffff; stroke-width: 0.75"/>
    </defs>
    <g clip-path="url(#p261179ec49)">
     <use xlink:href="#mf398d33d64" x="276.872727" y="106.673388" style="fill: #2ca02c; stroke: #ffffff; stroke-width: 0.75"/>
     <use xlink:href="#mf398d33d64" x="327.6" y="116.155668" style="fill: #2ca02c; stroke: #ffffff; stroke-width: 0.75"/>
     <use xlink:href="#mf398d33d64" x="378.327273" y="167.576241" style="fill: #2ca02c; stroke: #ffffff; stroke-width: 0.75"/>
     <use xlink:href="#mf398d33d64" x="429.054545" y="179.005536" style="fill: #2ca02c; stroke: #ffffff; stroke-width: 0.75"/>
     <use xlink:href="#mf398d33d64" x="479.781818" y="184.958008" style="fill: #2ca02c; stroke: #ffffff; stroke-width: 0.75"/>
     <use xlink:href="#mf398d33d64" x="530.509091" y="200.541528" style="fill: #2ca02c; stroke: #ffffff; stroke-width: 0.75"/>
     <use xlink:href="#mf398d33d64" x="581.236364" y="214.174979" style="fill: #2ca02c; stroke: #ffffff; stroke-width: 0.75"/>
     <use xlink:href="#mf398d33d64" x="631.963636" y="219.087059" style="fill: #2ca02c; stroke: #ffffff; stroke-width: 0.75"/>
     <use xlink:href="#mf398d33d64" x="682.690909" y="232.20689" style="fill: #2ca02c; stroke: #ffffff; stroke-width: 0.75"/>
     <use xlink:href="#mf398d33d64" x="733.418182" y="235.466115" style="fill: #2ca02c; stroke: #ffffff; stroke-width: 0.75"/>
     <use xlink:href="#mf398d33d64" x="784.145455" y="240.911095" style="fill: #2ca02c; stroke: #ffffff; stroke-width: 0.75"/>
     <use xlink:href="#mf398d33d64" x="834.872727" y="242.01531" style="fill: #2ca02c; stroke: #ffffff; stroke-width: 0.75"/>
     <use xlink:href="#mf398d33d64" x="885.6" y="249.890082" style="fill: #2ca02c; stroke: #ffffff; stroke-width: 0.75"/>
     <use xlink:href="#mf398d33d64" x="936.327273" y="264.408333" style="fill: #2ca02c; stroke: #ffffff; stroke-width: 0.75"/>
     <use xlink:href="#mf398d33d64" x="987.054545" y="272.21344" style="fill: #2ca02c; stroke: #ffffff; stroke-width: 0.75"/>
     <use xlink:href="#mf398d33d64" x="1037.781818" y="280.113381" style="fill: #2ca02c; stroke: #ffffff; stroke-width: 0.75"/>
     <use xlink:href="#mf398d33d64" x="1088.509091" y="299.212717" style="fill: #2ca02c; stroke: #ffffff; stroke-width: 0.75"/>
     <use xlink:href="#mf398d33d64" x="1139.236364" y="306.83043" style="fill: #2ca02c; stroke: #ffffff; stroke-width: 0.75"/>
     <use xlink:href="#mf398d33d64" x="1189.963636" y="313.885824" style="fill: #2ca02c; stroke: #ffffff; stroke-width: 0.75"/>
     <use xlink:href="#mf398d33d64" x="1240.690909" y="322.103134" style="fill: #2ca02c; stroke: #ffffff; stroke-width: 0.75"/>
     <use xlink:href="#mf398d33d64" x="1291.418182" y="330.607977" style="fill: #2ca02c; stroke: #ffffff; stroke-width: 0.75"/>
     <use xlink:href="#mf398d33d64" x="1342.145455" y="336.360429" style="fill: #2ca02c; stroke: #ffffff; stroke-width: 0.75"/>
     <use xlink:href="#mf398d33d64" x="1392.872727" y="340.176668" style="fill: #2ca02c; stroke: #ffffff; stroke-width: 0.75"/>
     <use xlink:href="#mf398d33d64" x="1443.6" y="340.966788" style="fill: #2ca02c; stroke: #ffffff; stroke-width: 0.75"/>
     <use xlink:href="#mf398d33d64" x="1494.327273" y="344.914751" style="fill: #2ca02c; stroke: #ffffff; stroke-width: 0.75"/>
    </g>
   </g>
   <g id="line2d_17">
    <path d="M 276.872727 103.780738 
L 327.6 109.24933 
L 378.327273 154.758098 
L 429.054545 182.346397 
L 479.781818 190.949472 
L 530.509091 200.068377 
L 581.236364 224.9071 
L 631.963636 237.152212 
L 682.690909 244.807647 
L 733.418182 259.396627 
L 784.145455 264.854629 
L 834.872727 270.050613 
L 885.6 277.720599 
L 936.327273 283.717689 
L 987.054545 288.348811 
L 1037.781818 296.581222 
L 1088.509091 309.839282 
L 1139.236364 313.467314 
L 1189.963636 327.326321 
L 1240.690909 331.287982 
L 1291.418182 337.330384 
L 1342.145455 346.690042 
L 1392.872727 350.701594 
L 1443.6 355.654732 
L 1494.327273 358.290652 
" clip-path="url(#p261179ec49)" style="fill: none; stroke: #d62728; stroke-width: 1.5; stroke-linecap: square"/>
    <defs>
     <path id="mf7f2e040d9" d="M 0 5 
C 1.326016 5 2.597899 4.473168 3.535534 3.535534 
C 4.473168 2.597899 5 1.326016 5 0 
C 5 -1.326016 4.473168 -2.597899 3.535534 -3.535534 
C 2.597899 -4.473168 1.326016 -5 0 -5 
C -1.326016 -5 -2.597899 -4.473168 -3.535534 -3.535534 
C -4.473168 -2.597899 -5 -1.326016 -5 0 
C -5 1.326016 -4.473168 2.597899 -3.535534 3.535534 
C -2.597899 4.473168 -1.326016 5 0 5 
z
" style="stroke: #ffffff; stroke-width: 0.75"/>
    </defs>
    <g clip-path="url(#p261179ec49)">
     <use xlink:href="#mf7f2e040d9" x="276.872727" y="103.780738" style="fill: #d62728; stroke: #ffffff; stroke-width: 0.75"/>
     <use xlink:href="#mf7f2e040d9" x="327.6" y="109.24933" style="fill: #d62728; stroke: #ffffff; stroke-width: 0.75"/>
     <use xlink:href="#mf7f2e040d9" x="378.327273" y="154.758098" style="fill: #d62728; stroke: #ffffff; stroke-width: 0.75"/>
     <use xlink:href="#mf7f2e040d9" x="429.054545" y="182.346397" style="fill: #d62728; stroke: #ffffff; stroke-width: 0.75"/>
     <use xlink:href="#mf7f2e040d9" x="479.781818" y="190.949472" style="fill: #d62728; stroke: #ffffff; stroke-width: 0.75"/>
     <use xlink:href="#mf7f2e040d9" x="530.509091" y="200.068377" style="fill: #d62728; stroke: #ffffff; stroke-width: 0.75"/>
     <use xlink:href="#mf7f2e040d9" x="581.236364" y="224.9071" style="fill: #d62728; stroke: #ffffff; stroke-width: 0.75"/>
     <use xlink:href="#mf7f2e040d9" x="631.963636" y="237.152212" style="fill: #d62728; stroke: #ffffff; stroke-width: 0.75"/>
     <use xlink:href="#mf7f2e040d9" x="682.690909" y="244.807647" style="fill: #d62728; stroke: #ffffff; stroke-width: 0.75"/>
     <use xlink:href="#mf7f2e040d9" x="733.418182" y="259.396627" style="fill: #d62728; stroke: #ffffff; stroke-width: 0.75"/>
     <use xlink:href="#mf7f2e040d9" x="784.145455" y="264.854629" style="fill: #d62728; stroke: #ffffff; stroke-width: 0.75"/>
     <use xlink:href="#mf7f2e040d9" x="834.872727" y="270.050613" style="fill: #d62728; stroke: #ffffff; stroke-width: 0.75"/>
     <use xlink:href="#mf7f2e040d9" x="885.6" y="277.720599" style="fill: #d62728; stroke: #ffffff; stroke-width: 0.75"/>
     <use xlink:href="#mf7f2e040d9" x="936.327273" y="283.717689" style="fill: #d62728; stroke: #ffffff; stroke-width: 0.75"/>
     <use xlink:href="#mf7f2e040d9" x="987.054545" y="288.348811" style="fill: #d62728; stroke: #ffffff; stroke-width: 0.75"/>
     <use xlink:href="#mf7f2e040d9" x="1037.781818" y="296.581222" style="fill: #d62728; stroke: #ffffff; stroke-width: 0.75"/>
     <use xlink:href="#mf7f2e040d9" x="1088.509091" y="309.839282" style="fill: #d62728; stroke: #ffffff; stroke-width: 0.75"/>
     <use xlink:href="#mf7f2e040d9" x="1139.236364" y="313.467314" style="fill: #d62728; stroke: #ffffff; stroke-width: 0.75"/>
     <use xlink:href="#mf7f2e040d9" x="1189.963636" y="327.326321" style="fill: #d62728; stroke: #ffffff; stroke-width: 0.75"/>
     <use xlink:href="#mf7f2e040d9" x="1240.690909" y="331.287982" style="fill: #d62728; stroke: #ffffff; stroke-width: 0.75"/>
     <use xlink:href="#mf7f2e040d9" x="1291.418182" y="337.330384" style="fill: #d62728; stroke: #ffffff; stroke-width: 0.75"/>
     <use xlink:href="#mf7f2e040d9" x="1342.145455" y="346.690042" style="fill: #d62728; stroke: #ffffff; stroke-width: 0.75"/>
     <use xlink:href="#mf7f2e040d9" x="1392.872727" y="350.701594" style="fill: #d62728; stroke: #ffffff; stroke-width: 0.75"/>
     <use xlink:href="#mf7f2e040d9" x="1443.6" y="355.654732" style="fill: #d62728; stroke: #ffffff; stroke-width: 0.75"/>
     <use xlink:href="#mf7f2e040d9" x="1494.327273" y="358.290652" style="fill: #d62728; stroke: #ffffff; stroke-width: 0.75"/>
    </g>
   </g>
   <g id="line2d_18">
    <path d="M 276.872727 100.794705 
L 327.6 105.578276 
L 378.327273 143.194542 
L 429.054545 163.450733 
L 479.781818 171.371326 
L 530.509091 198.575107 
L 581.236364 206.102563 
L 631.963636 212.889027 
L 682.690909 224.43191 
L 733.418182 231.993222 
L 784.145455 235.008677 
L 834.872727 238.331512 
L 885.6 250.49992 
L 936.327273 259.280189 
L 987.054545 274.960552 
L 1037.781818 276.874691 
L 1088.509091 284.015447 
L 1139.236364 289.700195 
L 1189.963636 303.871821 
L 1240.690909 311.43252 
L 1291.418182 313.005191 
L 1342.145455 314.440599 
L 1392.872727 314.834285 
L 1443.6 320.00218 
L 1494.327273 324.858412 
" clip-path="url(#p261179ec49)" style="fill: none; stroke: #9467bd; stroke-width: 1.5; stroke-linecap: square"/>
    <defs>
     <path id="mdf154058bb" d="M 0 5 
C 1.326016 5 2.597899 4.473168 3.535534 3.535534 
C 4.473168 2.597899 5 1.326016 5 0 
C 5 -1.326016 4.473168 -2.597899 3.535534 -3.535534 
C 2.597899 -4.473168 1.326016 -5 0 -5 
C -1.326016 -5 -2.597899 -4.473168 -3.535534 -3.535534 
C -4.473168 -2.597899 -5 -1.326016 -5 0 
C -5 1.326016 -4.473168 2.597899 -3.535534 3.535534 
C -2.597899 4.473168 -1.326016 5 0 5 
z
" style="stroke: #ffffff; stroke-width: 0.75"/>
    </defs>
    <g clip-path="url(#p261179ec49)">
     <use xlink:href="#mdf154058bb" x="276.872727" y="100.794705" style="fill: #9467bd; stroke: #ffffff; stroke-width: 0.75"/>
     <use xlink:href="#mdf154058bb" x="327.6" y="105.578276" style="fill: #9467bd; stroke: #ffffff; stroke-width: 0.75"/>
     <use xlink:href="#mdf154058bb" x="378.327273" y="143.194542" style="fill: #9467bd; stroke: #ffffff; stroke-width: 0.75"/>
     <use xlink:href="#mdf154058bb" x="429.054545" y="163.450733" style="fill: #9467bd; stroke: #ffffff; stroke-width: 0.75"/>
     <use xlink:href="#mdf154058bb" x="479.781818" y="171.371326" style="fill: #9467bd; stroke: #ffffff; stroke-width: 0.75"/>
     <use xlink:href="#mdf154058bb" x="530.509091" y="198.575107" style="fill: #9467bd; stroke: #ffffff; stroke-width: 0.75"/>
     <use xlink:href="#mdf154058bb" x="581.236364" y="206.102563" style="fill: #9467bd; stroke: #ffffff; stroke-width: 0.75"/>
     <use xlink:href="#mdf154058bb" x="631.963636" y="212.889027" style="fill: #9467bd; stroke: #ffffff; stroke-width: 0.75"/>
     <use xlink:href="#mdf154058bb" x="682.690909" y="224.43191" style="fill: #9467bd; stroke: #ffffff; stroke-width: 0.75"/>
     <use xlink:href="#mdf154058bb" x="733.418182" y="231.993222" style="fill: #9467bd; stroke: #ffffff; stroke-width: 0.75"/>
     <use xlink:href="#mdf154058bb" x="784.145455" y="235.008677" style="fill: #9467bd; stroke: #ffffff; stroke-width: 0.75"/>
     <use xlink:href="#mdf154058bb" x="834.872727" y="238.331512" style="fill: #9467bd; stroke: #ffffff; stroke-width: 0.75"/>
     <use xlink:href="#mdf154058bb" x="885.6" y="250.49992" style="fill: #9467bd; stroke: #ffffff; stroke-width: 0.75"/>
     <use xlink:href="#mdf154058bb" x="936.327273" y="259.280189" style="fill: #9467bd; stroke: #ffffff; stroke-width: 0.75"/>
     <use xlink:href="#mdf154058bb" x="987.054545" y="274.960552" style="fill: #9467bd; stroke: #ffffff; stroke-width: 0.75"/>
     <use xlink:href="#mdf154058bb" x="1037.781818" y="276.874691" style="fill: #9467bd; stroke: #ffffff; stroke-width: 0.75"/>
     <use xlink:href="#mdf154058bb" x="1088.509091" y="284.015447" style="fill: #9467bd; stroke: #ffffff; stroke-width: 0.75"/>
     <use xlink:href="#mdf154058bb" x="1139.236364" y="289.700195" style="fill: #9467bd; stroke: #ffffff; stroke-width: 0.75"/>
     <use xlink:href="#mdf154058bb" x="1189.963636" y="303.871821" style="fill: #9467bd; stroke: #ffffff; stroke-width: 0.75"/>
     <use xlink:href="#mdf154058bb" x="1240.690909" y="311.43252" style="fill: #9467bd; stroke: #ffffff; stroke-width: 0.75"/>
     <use xlink:href="#mdf154058bb" x="1291.418182" y="313.005191" style="fill: #9467bd; stroke: #ffffff; stroke-width: 0.75"/>
     <use xlink:href="#mdf154058bb" x="1342.145455" y="314.440599" style="fill: #9467bd; stroke: #ffffff; stroke-width: 0.75"/>
     <use xlink:href="#mdf154058bb" x="1392.872727" y="314.834285" style="fill: #9467bd; stroke: #ffffff; stroke-width: 0.75"/>
     <use xlink:href="#mdf154058bb" x="1443.6" y="320.00218" style="fill: #9467bd; stroke: #ffffff; stroke-width: 0.75"/>
     <use xlink:href="#mdf154058bb" x="1494.327273" y="324.858412" style="fill: #9467bd; stroke: #ffffff; stroke-width: 0.75"/>
    </g>
   </g>
   <g id="line2d_19">
    <path d="M 276.872727 102.764044 
L 327.6 122.686641 
L 378.327273 250.326068 
L 429.054545 297.03421 
L 479.781818 323.395011 
L 530.509091 341.023371 
L 581.236364 341.529581 
L 631.963636 342.801199 
L 682.690909 343.457437 
L 733.418182 344.649286 
L 784.145455 345.347295 
L 834.872727 346.790406 
L 885.6 348.442021 
L 936.327273 358.075091 
L 987.054545 367.194362 
L 1037.781818 374.483003 
L 1088.509091 375.197575 
L 1139.236364 378.12433 
L 1189.963636 398.223598 
L 1240.690909 402.139146 
L 1291.418182 402.361575 
L 1342.145455 402.536959 
L 1392.872727 402.955876 
L 1443.6 410.093363 
L 1494.327273 411.338317 
" clip-path="url(#p261179ec49)" style="fill: none; stroke: #8c564b; stroke-width: 1.5; stroke-linecap: square"/>
    <defs>
     <path id="m4536188e10" d="M 0 5 
C 1.326016 5 2.597899 4.473168 3.535534 3.535534 
C 4.473168 2.597899 5 1.326016 5 0 
C 5 -1.326016 4.473168 -2.597899 3.535534 -3.535534 
C 2.597899 -4.473168 1.326016 -5 0 -5 
C -1.326016 -5 -2.597899 -4.473168 -3.535534 -3.535534 
C -4.473168 -2.597899 -5 -1.326016 -5 0 
C -5 1.326016 -4.473168 2.597899 -3.535534 3.535534 
C -2.597899 4.473168 -1.326016 5 0 5 
z
" style="stroke: #ffffff; stroke-width: 0.75"/>
    </defs>
    <g clip-path="url(#p261179ec49)">
     <use xlink:href="#m4536188e10" x="276.872727" y="102.764044" style="fill: #8c564b; stroke: #ffffff; stroke-width: 0.75"/>
     <use xlink:href="#m4536188e10" x="327.6" y="122.686641" style="fill: #8c564b; stroke: #ffffff; stroke-width: 0.75"/>
     <use xlink:href="#m4536188e10" x="378.327273" y="250.326068" style="fill: #8c564b; stroke: #ffffff; stroke-width: 0.75"/>
     <use xlink:href="#m4536188e10" x="429.054545" y="297.03421" style="fill: #8c564b; stroke: #ffffff; stroke-width: 0.75"/>
     <use xlink:href="#m4536188e10" x="479.781818" y="323.395011" style="fill: #8c564b; stroke: #ffffff; stroke-width: 0.75"/>
     <use xlink:href="#m4536188e10" x="530.509091" y="341.023371" style="fill: #8c564b; stroke: #ffffff; stroke-width: 0.75"/>
     <use xlink:href="#m4536188e10" x="581.236364" y="341.529581" style="fill: #8c564b; stroke: #ffffff; stroke-width: 0.75"/>
     <use xlink:href="#m4536188e10" x="631.963636" y="342.801199" style="fill: #8c564b; stroke: #ffffff; stroke-width: 0.75"/>
     <use xlink:href="#m4536188e10" x="682.690909" y="343.457437" style="fill: #8c564b; stroke: #ffffff; stroke-width: 0.75"/>
     <use xlink:href="#m4536188e10" x="733.418182" y="344.649286" style="fill: #8c564b; stroke: #ffffff; stroke-width: 0.75"/>
     <use xlink:href="#m4536188e10" x="784.145455" y="345.347295" style="fill: #8c564b; stroke: #ffffff; stroke-width: 0.75"/>
     <use xlink:href="#m4536188e10" x="834.872727" y="346.790406" style="fill: #8c564b; stroke: #ffffff; stroke-width: 0.75"/>
     <use xlink:href="#m4536188e10" x="885.6" y="348.442021" style="fill: #8c564b; stroke: #ffffff; stroke-width: 0.75"/>
     <use xlink:href="#m4536188e10" x="936.327273" y="358.075091" style="fill: #8c564b; stroke: #ffffff; stroke-width: 0.75"/>
     <use xlink:href="#m4536188e10" x="987.054545" y="367.194362" style="fill: #8c564b; stroke: #ffffff; stroke-width: 0.75"/>
     <use xlink:href="#m4536188e10" x="1037.781818" y="374.483003" style="fill: #8c564b; stroke: #ffffff; stroke-width: 0.75"/>
     <use xlink:href="#m4536188e10" x="1088.509091" y="375.197575" style="fill: #8c564b; stroke: #ffffff; stroke-width: 0.75"/>
     <use xlink:href="#m4536188e10" x="1139.236364" y="378.12433" style="fill: #8c564b; stroke: #ffffff; stroke-width: 0.75"/>
     <use xlink:href="#m4536188e10" x="1189.963636" y="398.223598" style="fill: #8c564b; stroke: #ffffff; stroke-width: 0.75"/>
     <use xlink:href="#m4536188e10" x="1240.690909" y="402.139146" style="fill: #8c564b; stroke: #ffffff; stroke-width: 0.75"/>
     <use xlink:href="#m4536188e10" x="1291.418182" y="402.361575" style="fill: #8c564b; stroke: #ffffff; stroke-width: 0.75"/>
     <use xlink:href="#m4536188e10" x="1342.145455" y="402.536959" style="fill: #8c564b; stroke: #ffffff; stroke-width: 0.75"/>
     <use xlink:href="#m4536188e10" x="1392.872727" y="402.955876" style="fill: #8c564b; stroke: #ffffff; stroke-width: 0.75"/>
     <use xlink:href="#m4536188e10" x="1443.6" y="410.093363" style="fill: #8c564b; stroke: #ffffff; stroke-width: 0.75"/>
     <use xlink:href="#m4536188e10" x="1494.327273" y="411.338317" style="fill: #8c564b; stroke: #ffffff; stroke-width: 0.75"/>
    </g>
   </g>
   <g id="line2d_20"/>
   <g id="line2d_21"/>
   <g id="line2d_22"/>
   <g id="line2d_23"/>
   <g id="line2d_24"/>
   <g id="line2d_25"/>
   <g id="patch_3">
    <path d="M 216 512.64 
L 216 69.12 
" style="fill: none; stroke: #000000; stroke-width: 0.8; stroke-linejoin: miter; stroke-linecap: square"/>
   </g>
   <g id="patch_4">
    <path d="M 1555.2 512.64 
L 1555.2 69.12 
" style="fill: none; stroke: #000000; stroke-width: 0.8; stroke-linejoin: miter; stroke-linecap: square"/>
   </g>
   <g id="patch_5">
    <path d="M 216 512.64 
L 1555.2 512.64 
" style="fill: none; stroke: #000000; stroke-width: 0.8; stroke-linejoin: miter; stroke-linecap: square"/>
   </g>
   <g id="patch_6">
    <path d="M 216 69.12 
L 1555.2 69.12 
" style="fill: none; stroke: #000000; stroke-width: 0.8; stroke-linejoin: miter; stroke-linecap: square"/>
   </g>
   <g id="legend_1">
    <g id="patch_7">
     <path d="M 1392.107813 261.163125 
L 1548.2 261.163125 
Q 1550.2 261.163125 1550.2 259.163125 
L 1550.2 76.12 
Q 1550.2 74.12 1548.2 74.12 
L 1392.107813 74.12 
Q 1390.107813 74.12 1390.107813 76.12 
L 1390.107813 259.163125 
Q 1390.107813 261.163125 1392.107813 261.163125 
z
" style="fill: #ffffff; opacity: 0.3; stroke: #cccccc; stroke-linejoin: miter"/>
    </g>
    <g id="text_16">
     <!-- Num. clusters -->
     <g transform="translate(1394.107813 94.836563) scale(0.22 -0.22)">
      <defs>
       <path id="DejaVuSans-20" transform="scale(0.015625)"/>
       <path id="DejaVuSans-63" d="M 3122 3366 
L 3122 2828 
Q 2878 2963 2633 3030 
Q 2388 3097 2138 3097 
Q 1578 3097 1268 2742 
Q 959 2388 959 1747 
Q 959 1106 1268 751 
Q 1578 397 2138 397 
Q 2388 397 2633 464 
Q 2878 531 3122 666 
L 3122 134 
Q 2881 22 2623 -34 
Q 2366 -91 2075 -91 
Q 1284 -91 818 406 
Q 353 903 353 1747 
Q 353 2603 823 3093 
Q 1294 3584 2113 3584 
Q 2378 3584 2631 3529 
Q 2884 3475 3122 3366 
z
" transform="scale(0.015625)"/>
       <path id="DejaVuSans-6c" d="M 603 4863 
L 1178 4863 
L 1178 0 
L 603 0 
L 603 4863 
z
" transform="scale(0.015625)"/>
      </defs>
      <use xlink:href="#DejaVuSans-4e"/>
      <use xlink:href="#DejaVuSans-75" x="74.804688"/>
      <use xlink:href="#DejaVuSans-6d" x="138.183594"/>
      <use xlink:href="#DejaVuSans-2e" x="235.595703"/>
      <use xlink:href="#DejaVuSans-20" x="267.382812"/>
      <use xlink:href="#DejaVuSans-63" x="299.169922"/>
      <use xlink:href="#DejaVuSans-6c" x="354.150391"/>
      <use xlink:href="#DejaVuSans-75" x="381.933594"/>
      <use xlink:href="#DejaVuSans-73" x="445.3125"/>
      <use xlink:href="#DejaVuSans-74" x="497.412109"/>
      <use xlink:href="#DejaVuSans-65" x="536.621094"/>
      <use xlink:href="#DejaVuSans-72" x="598.144531"/>
      <use xlink:href="#DejaVuSans-73" x="639.257812"/>
     </g>
    </g>
    <g id="line2d_26">
     <path d="M 1409.515625 117.628438 
L 1419.515625 117.628438 
L 1429.515625 117.628438 
" style="fill: none; stroke: #1f77b4; stroke-width: 1.5; stroke-linecap: square"/>
     <g>
      <use xlink:href="#m8ba7f9233d" x="1419.515625" y="117.628438" style="fill: #1f77b4; stroke: #ffffff; stroke-width: 0.75"/>
     </g>
    </g>
    <g id="text_17">
     <!-- 2 -->
     <g transform="translate(1437.515625 121.128438) scale(0.22 -0.22)">
      <use xlink:href="#DejaVuSans-32"/>
     </g>
    </g>
    <g id="line2d_27">
     <path d="M 1409.515625 143.920313 
L 1419.515625 143.920313 
L 1429.515625 143.920313 
" style="fill: none; stroke: #ff7f0e; stroke-width: 1.5; stroke-linecap: square"/>
     <g>
      <use xlink:href="#mab9fec3230" x="1419.515625" y="143.920313" style="fill: #ff7f0e; stroke: #ffffff; stroke-width: 0.75"/>
     </g>
    </g>
    <g id="text_18">
     <!-- 5 -->
     <g transform="translate(1437.515625 147.420313) scale(0.22 -0.22)">
      <use xlink:href="#DejaVuSans-35"/>
     </g>
    </g>
    <g id="line2d_28">
     <path d="M 1409.515625 170.212188 
L 1419.515625 170.212188 
L 1429.515625 170.212188 
" style="fill: none; stroke: #2ca02c; stroke-width: 1.5; stroke-linecap: square"/>
     <g>
      <use xlink:href="#mf398d33d64" x="1419.515625" y="170.212188" style="fill: #2ca02c; stroke: #ffffff; stroke-width: 0.75"/>
     </g>
    </g>
    <g id="text_19">
     <!-- 10 -->
     <g transform="translate(1437.515625 173.712188) scale(0.22 -0.22)">
      <use xlink:href="#DejaVuSans-31"/>
      <use xlink:href="#DejaVuSans-30" x="63.623047"/>
     </g>
    </g>
    <g id="line2d_29">
     <path d="M 1409.515625 196.504063 
L 1419.515625 196.504063 
L 1429.515625 196.504063 
" style="fill: none; stroke: #d62728; stroke-width: 1.5; stroke-linecap: square"/>
     <g>
      <use xlink:href="#mf7f2e040d9" x="1419.515625" y="196.504063" style="fill: #d62728; stroke: #ffffff; stroke-width: 0.75"/>
     </g>
    </g>
    <g id="text_20">
     <!-- 15 -->
     <g transform="translate(1437.515625 200.004063) scale(0.22 -0.22)">
      <use xlink:href="#DejaVuSans-31"/>
      <use xlink:href="#DejaVuSans-35" x="63.623047"/>
     </g>
    </g>
    <g id="line2d_30">
     <path d="M 1409.515625 222.795938 
L 1419.515625 222.795938 
L 1429.515625 222.795938 
" style="fill: none; stroke: #9467bd; stroke-width: 1.5; stroke-linecap: square"/>
     <g>
      <use xlink:href="#mdf154058bb" x="1419.515625" y="222.795938" style="fill: #9467bd; stroke: #ffffff; stroke-width: 0.75"/>
     </g>
    </g>
    <g id="text_21">
     <!-- 25 -->
     <g transform="translate(1437.515625 226.295938) scale(0.22 -0.22)">
      <use xlink:href="#DejaVuSans-32"/>
      <use xlink:href="#DejaVuSans-35" x="63.623047"/>
     </g>
    </g>
    <g id="line2d_31">
     <path d="M 1409.515625 249.087813 
L 1419.515625 249.087813 
L 1429.515625 249.087813 
" style="fill: none; stroke: #8c564b; stroke-width: 1.5; stroke-linecap: square"/>
     <g>
      <use xlink:href="#m4536188e10" x="1419.515625" y="249.087813" style="fill: #8c564b; stroke: #ffffff; stroke-width: 0.75"/>
     </g>
    </g>
    <g id="text_22">
     <!-- Baseline -->
     <g transform="translate(1437.515625 252.587813) scale(0.22 -0.22)">
      <use xlink:href="#DejaVuSans-42"/>
      <use xlink:href="#DejaVuSans-61" x="68.603516"/>
      <use xlink:href="#DejaVuSans-73" x="129.882812"/>
      <use xlink:href="#DejaVuSans-65" x="181.982422"/>
      <use xlink:href="#DejaVuSans-6c" x="243.505859"/>
      <use xlink:href="#DejaVuSans-69" x="271.289062"/>
      <use xlink:href="#DejaVuSans-6e" x="299.072266"/>
      <use xlink:href="#DejaVuSans-65" x="362.451172"/>
     </g>
    </g>
   </g>
  </g>
 </g>
 <defs>
  <clipPath id="p261179ec49">
   <rect x="216" y="69.12" width="1339.2" height="443.52"/>
  </clipPath>
 </defs>
</svg>
