<?xml version="1.0" encoding="utf-8" standalone="no"?>
<!DOCTYPE svg PUBLIC "-//W3C//DTD SVG 1.1//EN"
  "http://www.w3.org/Graphics/SVG/1.1/DTD/svg11.dtd">
<svg xmlns:xlink="http://www.w3.org/1999/xlink" width="1728pt" height="576pt" viewBox="0 0 1728 576" xmlns="http://www.w3.org/2000/svg" version="1.1">
 <metadata>
  <rdf:RDF xmlns:dc="http://purl.org/dc/elements/1.1/" xmlns:cc="http://creativecommons.org/ns#" xmlns:rdf="http://www.w3.org/1999/02/22-rdf-syntax-ns#">
   <cc:Work>
    <dc:type rdf:resource="http://purl.org/dc/dcmitype/StillImage"/>
    <dc:date>2024-04-05T10:28:39.236493</dc:date>
    <dc:format>image/svg+xml</dc:format>
    <dc:creator>
     <cc:Agent>
      <dc:title>Matplotlib v3.8.3, https://matplotlib.org/</dc:title>
     </cc:Agent>
    </dc:creator>
   </cc:Work>
  </rdf:RDF>
 </metadata>
 <defs>
  <style type="text/css">*{stroke-linejoin: round; stroke-linecap: butt}</style>
 </defs>
 <g id="figure_1">
  <g id="patch_1">
   <path d="M 0 576 
L 1728 576 
L 1728 0 
L 0 0 
L 0 576 
z
" style="fill: none"/>
  </g>
  <g id="axes_1">
   <g id="patch_2">
    <path d="M 216 512.64 
L 1555.2 512.64 
L 1555.2 69.12 
L 216 69.12 
L 216 512.64 
z
" style="fill: none"/>
   </g>
   <g id="PolyCollection_1">
    <defs>
     <path id="m28b9dec25d" d="M 276.872727 -425.405213 
L 276.872727 -386.684839 
L 327.6 -378.710656 
L 378.327273 -358.240688 
L 429.054545 -346.103793 
L 479.781818 -342.232325 
L 530.509091 -328.509351 
L 581.236364 -312.105319 
L 631.963636 -298.627216 
L 682.690909 -279.115522 
L 733.418182 -249.99845 
L 784.145455 -235.740254 
L 834.872727 -224.149395 
L 885.6 -201.084203 
L 936.327273 -184.682915 
L 987.054545 -169.056054 
L 1037.781818 -160.106646 
L 1088.509091 -143.811693 
L 1139.236364 -130.206077 
L 1189.963636 -121.330589 
L 1240.690909 -116.427729 
L 1291.418182 -97.40934 
L 1342.145455 -91.029504 
L 1392.872727 -85.571769 
L 1443.6 -85.285509 
L 1494.327273 -83.52 
L 1494.327273 -111.614781 
L 1494.327273 -111.614781 
L 1443.6 -114.263146 
L 1392.872727 -117.748191 
L 1342.145455 -121.906859 
L 1291.418182 -130.979207 
L 1240.690909 -158.116866 
L 1189.963636 -163.605544 
L 1139.236364 -172.853891 
L 1088.509091 -188.946769 
L 1037.781818 -209.552168 
L 987.054545 -220.79863 
L 936.327273 -242.934232 
L 885.6 -259.391877 
L 834.872727 -279.774874 
L 784.145455 -294.029552 
L 733.418182 -311.180124 
L 682.690909 -337.389019 
L 631.963636 -356.548899 
L 581.236364 -374.4215 
L 530.509091 -386.066272 
L 479.781818 -395.23694 
L 429.054545 -402.192617 
L 378.327273 -412.506753 
L 327.6 -418.845905 
L 276.872727 -425.405213 
z
" style="stroke: #1f77b4; stroke-opacity: 0.2"/>
    </defs>
    <g clip-path="url(#pbd7c2404bb)">
     <use xlink:href="#m28b9dec25d" x="0" y="576" style="fill: #1f77b4; fill-opacity: 0.2; stroke: #1f77b4; stroke-opacity: 0.2"/>
    </g>
   </g>
   <g id="PolyCollection_2">
    <defs>
     <path id="m9740081dde" d="M 276.872727 -464.104098 
L 276.872727 -418.746126 
L 327.6 -406.183743 
L 378.327273 -367.585041 
L 429.054545 -357.545213 
L 479.781818 -347.120477 
L 530.509091 -328.570785 
L 581.236364 -321.966412 
L 631.963636 -298.892794 
L 682.690909 -282.799979 
L 733.418182 -259.068938 
L 784.145455 -243.739626 
L 834.872727 -229.70843 
L 885.6 -228.552759 
L 936.327273 -212.80003 
L 987.054545 -197.4922 
L 1037.781818 -174.145948 
L 1088.509091 -162.324014 
L 1139.236364 -150.03399 
L 1189.963636 -135.832516 
L 1240.690909 -125.750641 
L 1291.418182 -116.156931 
L 1342.145455 -105.561196 
L 1392.872727 -105.01799 
L 1443.6 -100.83881 
L 1494.327273 -99.235957 
L 1494.327273 -151.50584 
L 1494.327273 -151.50584 
L 1443.6 -153.957028 
L 1392.872727 -157.846661 
L 1342.145455 -159.108501 
L 1291.418182 -174.463821 
L 1240.690909 -188.997455 
L 1189.963636 -207.593304 
L 1139.236364 -232.053175 
L 1088.509091 -245.789567 
L 1037.781818 -260.358713 
L 987.054545 -285.736765 
L 936.327273 -296.773046 
L 885.6 -312.530393 
L 834.872727 -311.942011 
L 784.145455 -322.925262 
L 733.418182 -339.476324 
L 682.690909 -354.653984 
L 631.963636 -368.68068 
L 581.236364 -387.953938 
L 530.509091 -396.847542 
L 479.781818 -412.729147 
L 429.054545 -421.342474 
L 378.327273 -431.545206 
L 327.6 -453.294316 
L 276.872727 -464.104098 
z
" style="stroke: #ff7f0e; stroke-opacity: 0.2"/>
    </defs>
    <g clip-path="url(#pbd7c2404bb)">
     <use xlink:href="#m9740081dde" x="0" y="576" style="fill: #ff7f0e; fill-opacity: 0.2; stroke: #ff7f0e; stroke-opacity: 0.2"/>
    </g>
   </g>
   <g id="PolyCollection_3">
    <defs>
     <path id="m45cd39b443" d="M 276.872727 -474.617375 
L 276.872727 -428.397537 
L 327.6 -421.98857 
L 378.327273 -380.686921 
L 429.054545 -356.516013 
L 479.781818 -336.286955 
L 530.509091 -322.07257 
L 581.236364 -296.811989 
L 631.963636 -288.162945 
L 682.690909 -258.474593 
L 733.418182 -249.824752 
L 784.145455 -231.651124 
L 834.872727 -218.213623 
L 885.6 -212.159209 
L 936.327273 -197.732765 
L 987.054545 -193.091947 
L 1037.781818 -185.964104 
L 1088.509091 -180.253506 
L 1139.236364 -174.92371 
L 1189.963636 -157.548784 
L 1240.690909 -148.720956 
L 1291.418182 -148.237585 
L 1342.145455 -147.249566 
L 1392.872727 -141.097557 
L 1443.6 -138.30336 
L 1494.327273 -136.582312 
L 1494.327273 -214.243313 
L 1494.327273 -214.243313 
L 1443.6 -215.780169 
L 1392.872727 -222.439891 
L 1342.145455 -224.99586 
L 1291.418182 -227.989652 
L 1240.690909 -227.491551 
L 1189.963636 -236.490051 
L 1139.236364 -262.105517 
L 1088.509091 -271.838585 
L 1037.781818 -281.838892 
L 987.054545 -288.205882 
L 936.327273 -293.008354 
L 885.6 -306.937146 
L 834.872727 -314.676664 
L 784.145455 -325.650296 
L 733.418182 -339.726977 
L 682.690909 -352.948249 
L 631.963636 -371.877356 
L 581.236364 -384.387595 
L 530.509091 -396.122099 
L 479.781818 -413.007806 
L 429.054545 -424.257991 
L 378.327273 -445.538859 
L 327.6 -470.621892 
L 276.872727 -474.617375 
z
" style="stroke: #2ca02c; stroke-opacity: 0.2"/>
    </defs>
    <g clip-path="url(#pbd7c2404bb)">
     <use xlink:href="#m45cd39b443" x="0" y="576" style="fill: #2ca02c; fill-opacity: 0.2; stroke: #2ca02c; stroke-opacity: 0.2"/>
    </g>
   </g>
   <g id="PolyCollection_4">
    <defs>
     <path id="m7eab5c2def" d="M 276.872727 -465.444129 
L 276.872727 -384.538581 
L 327.6 -368.028328 
L 378.327273 -332.928463 
L 429.054545 -305.959701 
L 479.781818 -295.688109 
L 530.509091 -263.40169 
L 581.236364 -253.690307 
L 631.963636 -239.480684 
L 682.690909 -222.786857 
L 733.418182 -216.117842 
L 784.145455 -211.339406 
L 834.872727 -198.562211 
L 885.6 -195.305309 
L 936.327273 -188.544178 
L 987.054545 -184.529855 
L 1037.781818 -179.476526 
L 1088.509091 -164.658846 
L 1139.236364 -158.708364 
L 1189.963636 -154.260092 
L 1240.690909 -152.205129 
L 1291.418182 -154.556452 
L 1342.145455 -147.080375 
L 1392.872727 -139.163881 
L 1443.6 -137.96479 
L 1494.327273 -143.707498 
L 1494.327273 -220.348356 
L 1494.327273 -220.348356 
L 1443.6 -218.784514 
L 1392.872727 -221.461598 
L 1342.145455 -225.442409 
L 1291.418182 -233.724751 
L 1240.690909 -230.266306 
L 1189.963636 -230.02118 
L 1139.236364 -241.649854 
L 1088.509091 -249.682442 
L 1037.781818 -263.975466 
L 987.054545 -270.509799 
L 936.327273 -278.476146 
L 885.6 -282.649777 
L 834.872727 -290.59904 
L 784.145455 -297.056017 
L 733.418182 -301.154439 
L 682.690909 -313.295012 
L 631.963636 -326.905956 
L 581.236364 -341.394382 
L 530.509091 -354.967043 
L 479.781818 -384.99604 
L 429.054545 -390.574383 
L 378.327273 -426.714773 
L 327.6 -456.884909 
L 276.872727 -465.444129 
z
" style="stroke: #d62728; stroke-opacity: 0.2"/>
    </defs>
    <g clip-path="url(#pbd7c2404bb)">
     <use xlink:href="#m7eab5c2def" x="0" y="576" style="fill: #d62728; fill-opacity: 0.2; stroke: #d62728; stroke-opacity: 0.2"/>
    </g>
   </g>
   <g id="PolyCollection_5">
    <defs>
     <path id="m4dab01ef2c" d="M 276.872727 -480.868512 
L 276.872727 -434.770851 
L 327.6 -430.386076 
L 378.327273 -390.319162 
L 429.054545 -372.692807 
L 479.781818 -367.070153 
L 530.509091 -344.017562 
L 581.236364 -326.102523 
L 631.963636 -318.958549 
L 682.690909 -308.388787 
L 733.418182 -298.395198 
L 784.145455 -288.375407 
L 834.872727 -280.475369 
L 885.6 -275.50339 
L 936.327273 -265.684651 
L 987.054545 -265.249426 
L 1037.781818 -256.128211 
L 1088.509091 -245.748856 
L 1139.236364 -242.58196 
L 1189.963636 -223.401321 
L 1240.690909 -221.574195 
L 1291.418182 -218.408375 
L 1342.145455 -217.847056 
L 1392.872727 -211.791182 
L 1443.6 -211.911191 
L 1494.327273 -206.848069 
L 1494.327273 -292.253029 
L 1494.327273 -292.253029 
L 1443.6 -298.1211 
L 1392.872727 -298.787718 
L 1342.145455 -298.523697 
L 1291.418182 -305.362066 
L 1240.690909 -310.295847 
L 1189.963636 -305.176858 
L 1139.236364 -331.969325 
L 1088.509091 -338.35145 
L 1037.781818 -343.965031 
L 987.054545 -347.739099 
L 936.327273 -353.376167 
L 885.6 -354.839728 
L 834.872727 -365.329138 
L 784.145455 -366.940913 
L 733.418182 -370.562321 
L 682.690909 -380.838716 
L 631.963636 -391.013931 
L 581.236364 -397.82888 
L 530.509091 -411.954416 
L 479.781818 -431.128862 
L 429.054545 -433.414426 
L 378.327273 -454.020839 
L 327.6 -476.501873 
L 276.872727 -480.868512 
z
" style="stroke: #9467bd; stroke-opacity: 0.2"/>
    </defs>
    <g clip-path="url(#pbd7c2404bb)">
     <use xlink:href="#m4dab01ef2c" x="0" y="576" style="fill: #9467bd; fill-opacity: 0.2; stroke: #9467bd; stroke-opacity: 0.2"/>
    </g>
   </g>
   <g id="PolyCollection_6">
    <defs>
     <path id="m40f1f4a777" d="M 276.872727 -486.72 
L 276.872727 -486.201313 
L 327.6 -474.146944 
L 378.327273 -453.683393 
L 429.054545 -439.546328 
L 479.781818 -417.909503 
L 530.509091 -399.803501 
L 581.236364 -393.889039 
L 631.963636 -383.23372 
L 682.690909 -380.526073 
L 733.418182 -362.034715 
L 784.145455 -356.067227 
L 834.872727 -345.923231 
L 885.6 -334.096985 
L 936.327273 -312.834317 
L 987.054545 -307.158745 
L 1037.781818 -301.956116 
L 1088.509091 -276.54662 
L 1139.236364 -271.970149 
L 1189.963636 -247.641299 
L 1240.690909 -236.900041 
L 1291.418182 -235.979783 
L 1342.145455 -230.133998 
L 1392.872727 -227.147043 
L 1443.6 -216.74878 
L 1494.327273 -223.732477 
L 1494.327273 -297.246443 
L 1494.327273 -297.246443 
L 1443.6 -301.911576 
L 1392.872727 -308.258193 
L 1342.145455 -310.727734 
L 1291.418182 -315.29536 
L 1240.690909 -315.093413 
L 1189.963636 -326.366617 
L 1139.236364 -354.211319 
L 1088.509091 -357.328576 
L 1037.781818 -379.004962 
L 987.054545 -387.846753 
L 936.327273 -391.813991 
L 885.6 -415.628274 
L 834.872727 -428.246798 
L 784.145455 -432.517863 
L 733.418182 -435.032 
L 682.690909 -446.141564 
L 631.963636 -448.816279 
L 581.236364 -460.810466 
L 530.509091 -464.7939 
L 479.781818 -474.754689 
L 429.054545 -480.943308 
L 378.327273 -481.739849 
L 327.6 -483.401257 
L 276.872727 -486.72 
z
" style="stroke: #8c564b; stroke-opacity: 0.2"/>
    </defs>
    <g clip-path="url(#pbd7c2404bb)">
     <use xlink:href="#m40f1f4a777" x="0" y="576" style="fill: #8c564b; fill-opacity: 0.2; stroke: #8c564b; stroke-opacity: 0.2"/>
    </g>
   </g>
   <g id="matplotlib.axis_1">
    <g id="xtick_1">
     <g id="line2d_1">
      <defs>
       <path id="m12d3d55bfe" d="M 0 0 
L 0 3.5 
" style="stroke: #000000; stroke-width: 0.8"/>
      </defs>
      <g>
       <use xlink:href="#m12d3d55bfe" x="226.145455" y="512.64" style="stroke: #000000; stroke-width: 0.8"/>
      </g>
     </g>
     <g id="text_1">
      <!-- 0 -->
      <g transform="translate(219.146705 536.356562) scale(0.22 -0.22)">
       <defs>
        <path id="DejaVuSans-30" d="M 2034 4250 
Q 1547 4250 1301 3770 
Q 1056 3291 1056 2328 
Q 1056 1369 1301 889 
Q 1547 409 2034 409 
Q 2525 409 2770 889 
Q 3016 1369 3016 2328 
Q 3016 3291 2770 3770 
Q 2525 4250 2034 4250 
z
M 2034 4750 
Q 2819 4750 3233 4129 
Q 3647 3509 3647 2328 
Q 3647 1150 3233 529 
Q 2819 -91 2034 -91 
Q 1250 -91 836 529 
Q 422 1150 422 2328 
Q 422 3509 836 4129 
Q 1250 4750 2034 4750 
z
" transform="scale(0.015625)"/>
       </defs>
       <use xlink:href="#DejaVuSans-30"/>
      </g>
     </g>
    </g>
    <g id="xtick_2">
     <g id="line2d_2">
      <g>
       <use xlink:href="#m12d3d55bfe" x="479.781818" y="512.64" style="stroke: #000000; stroke-width: 0.8"/>
      </g>
     </g>
     <g id="text_2">
      <!-- 5 -->
      <g transform="translate(472.783068 536.356562) scale(0.22 -0.22)">
       <defs>
        <path id="DejaVuSans-35" d="M 691 4666 
L 3169 4666 
L 3169 4134 
L 1269 4134 
L 1269 2991 
Q 1406 3038 1543 3061 
Q 1681 3084 1819 3084 
Q 2600 3084 3056 2656 
Q 3513 2228 3513 1497 
Q 3513 744 3044 326 
Q 2575 -91 1722 -91 
Q 1428 -91 1123 -41 
Q 819 9 494 109 
L 494 744 
Q 775 591 1075 516 
Q 1375 441 1709 441 
Q 2250 441 2565 725 
Q 2881 1009 2881 1497 
Q 2881 1984 2565 2268 
Q 2250 2553 1709 2553 
Q 1456 2553 1204 2497 
Q 953 2441 691 2322 
L 691 4666 
z
" transform="scale(0.015625)"/>
       </defs>
       <use xlink:href="#DejaVuSans-35"/>
      </g>
     </g>
    </g>
    <g id="xtick_3">
     <g id="line2d_3">
      <g>
       <use xlink:href="#m12d3d55bfe" x="733.418182" y="512.64" style="stroke: #000000; stroke-width: 0.8"/>
      </g>
     </g>
     <g id="text_3">
      <!-- 10 -->
      <g transform="translate(719.420682 536.356562) scale(0.22 -0.22)">
       <defs>
        <path id="DejaVuSans-31" d="M 794 531 
L 1825 531 
L 1825 4091 
L 703 3866 
L 703 4441 
L 1819 4666 
L 2450 4666 
L 2450 531 
L 3481 531 
L 3481 0 
L 794 0 
L 794 531 
z
" transform="scale(0.015625)"/>
       </defs>
       <use xlink:href="#DejaVuSans-31"/>
       <use xlink:href="#DejaVuSans-30" x="63.623047"/>
      </g>
     </g>
    </g>
    <g id="xtick_4">
     <g id="line2d_4">
      <g>
       <use xlink:href="#m12d3d55bfe" x="987.054545" y="512.64" style="stroke: #000000; stroke-width: 0.8"/>
      </g>
     </g>
     <g id="text_4">
      <!-- 15 -->
      <g transform="translate(973.057045 536.356562) scale(0.22 -0.22)">
       <use xlink:href="#DejaVuSans-31"/>
       <use xlink:href="#DejaVuSans-35" x="63.623047"/>
      </g>
     </g>
    </g>
    <g id="xtick_5">
     <g id="line2d_5">
      <g>
       <use xlink:href="#m12d3d55bfe" x="1240.690909" y="512.64" style="stroke: #000000; stroke-width: 0.8"/>
      </g>
     </g>
     <g id="text_5">
      <!-- 20 -->
      <g transform="translate(1226.693409 536.356562) scale(0.22 -0.22)">
       <defs>
        <path id="DejaVuSans-32" d="M 1228 531 
L 3431 531 
L 3431 0 
L 469 0 
L 469 531 
Q 828 903 1448 1529 
Q 2069 2156 2228 2338 
Q 2531 2678 2651 2914 
Q 2772 3150 2772 3378 
Q 2772 3750 2511 3984 
Q 2250 4219 1831 4219 
Q 1534 4219 1204 4116 
Q 875 4013 500 3803 
L 500 4441 
Q 881 4594 1212 4672 
Q 1544 4750 1819 4750 
Q 2544 4750 2975 4387 
Q 3406 4025 3406 3419 
Q 3406 3131 3298 2873 
Q 3191 2616 2906 2266 
Q 2828 2175 2409 1742 
Q 1991 1309 1228 531 
z
" transform="scale(0.015625)"/>
       </defs>
       <use xlink:href="#DejaVuSans-32"/>
       <use xlink:href="#DejaVuSans-30" x="63.623047"/>
      </g>
     </g>
    </g>
    <g id="xtick_6">
     <g id="line2d_6">
      <g>
       <use xlink:href="#m12d3d55bfe" x="1494.327273" y="512.64" style="stroke: #000000; stroke-width: 0.8"/>
      </g>
     </g>
     <g id="text_6">
      <!-- 25 -->
      <g transform="translate(1480.329773 536.356562) scale(0.22 -0.22)">
       <use xlink:href="#DejaVuSans-32"/>
       <use xlink:href="#DejaVuSans-35" x="63.623047"/>
      </g>
     </g>
    </g>
    <g id="text_7">
     <!-- Num_Experiments -->
     <g transform="translate(784.896719 561.648438) scale(0.22 -0.22)">
      <defs>
       <path id="DejaVuSans-4e" d="M 628 4666 
L 1478 4666 
L 3547 763 
L 3547 4666 
L 4159 4666 
L 4159 0 
L 3309 0 
L 1241 3903 
L 1241 0 
L 628 0 
L 628 4666 
z
" transform="scale(0.015625)"/>
       <path id="DejaVuSans-75" d="M 544 1381 
L 544 3500 
L 1119 3500 
L 1119 1403 
Q 1119 906 1312 657 
Q 1506 409 1894 409 
Q 2359 409 2629 706 
Q 2900 1003 2900 1516 
L 2900 3500 
L 3475 3500 
L 3475 0 
L 2900 0 
L 2900 538 
Q 2691 219 2414 64 
Q 2138 -91 1772 -91 
Q 1169 -91 856 284 
Q 544 659 544 1381 
z
M 1991 3584 
L 1991 3584 
z
" transform="scale(0.015625)"/>
       <path id="DejaVuSans-6d" d="M 3328 2828 
Q 3544 3216 3844 3400 
Q 4144 3584 4550 3584 
Q 5097 3584 5394 3201 
Q 5691 2819 5691 2113 
L 5691 0 
L 5113 0 
L 5113 2094 
Q 5113 2597 4934 2840 
Q 4756 3084 4391 3084 
Q 3944 3084 3684 2787 
Q 3425 2491 3425 1978 
L 3425 0 
L 2847 0 
L 2847 2094 
Q 2847 2600 2669 2842 
Q 2491 3084 2119 3084 
Q 1678 3084 1418 2786 
Q 1159 2488 1159 1978 
L 1159 0 
L 581 0 
L 581 3500 
L 1159 3500 
L 1159 2956 
Q 1356 3278 1631 3431 
Q 1906 3584 2284 3584 
Q 2666 3584 2933 3390 
Q 3200 3197 3328 2828 
z
" transform="scale(0.015625)"/>
       <path id="DejaVuSans-5f" d="M 3263 -1063 
L 3263 -1509 
L -63 -1509 
L -63 -1063 
L 3263 -1063 
z
" transform="scale(0.015625)"/>
       <path id="DejaVuSans-45" d="M 628 4666 
L 3578 4666 
L 3578 4134 
L 1259 4134 
L 1259 2753 
L 3481 2753 
L 3481 2222 
L 1259 2222 
L 1259 531 
L 3634 531 
L 3634 0 
L 628 0 
L 628 4666 
z
" transform="scale(0.015625)"/>
       <path id="DejaVuSans-78" d="M 3513 3500 
L 2247 1797 
L 3578 0 
L 2900 0 
L 1881 1375 
L 863 0 
L 184 0 
L 1544 1831 
L 300 3500 
L 978 3500 
L 1906 2253 
L 2834 3500 
L 3513 3500 
z
" transform="scale(0.015625)"/>
       <path id="DejaVuSans-70" d="M 1159 525 
L 1159 -1331 
L 581 -1331 
L 581 3500 
L 1159 3500 
L 1159 2969 
Q 1341 3281 1617 3432 
Q 1894 3584 2278 3584 
Q 2916 3584 3314 3078 
Q 3713 2572 3713 1747 
Q 3713 922 3314 415 
Q 2916 -91 2278 -91 
Q 1894 -91 1617 61 
Q 1341 213 1159 525 
z
M 3116 1747 
Q 3116 2381 2855 2742 
Q 2594 3103 2138 3103 
Q 1681 3103 1420 2742 
Q 1159 2381 1159 1747 
Q 1159 1113 1420 752 
Q 1681 391 2138 391 
Q 2594 391 2855 752 
Q 3116 1113 3116 1747 
z
" transform="scale(0.015625)"/>
       <path id="DejaVuSans-65" d="M 3597 1894 
L 3597 1613 
L 953 1613 
Q 991 1019 1311 708 
Q 1631 397 2203 397 
Q 2534 397 2845 478 
Q 3156 559 3463 722 
L 3463 178 
Q 3153 47 2828 -22 
Q 2503 -91 2169 -91 
Q 1331 -91 842 396 
Q 353 884 353 1716 
Q 353 2575 817 3079 
Q 1281 3584 2069 3584 
Q 2775 3584 3186 3129 
Q 3597 2675 3597 1894 
z
M 3022 2063 
Q 3016 2534 2758 2815 
Q 2500 3097 2075 3097 
Q 1594 3097 1305 2825 
Q 1016 2553 972 2059 
L 3022 2063 
z
" transform="scale(0.015625)"/>
       <path id="DejaVuSans-72" d="M 2631 2963 
Q 2534 3019 2420 3045 
Q 2306 3072 2169 3072 
Q 1681 3072 1420 2755 
Q 1159 2438 1159 1844 
L 1159 0 
L 581 0 
L 581 3500 
L 1159 3500 
L 1159 2956 
Q 1341 3275 1631 3429 
Q 1922 3584 2338 3584 
Q 2397 3584 2469 3576 
Q 2541 3569 2628 3553 
L 2631 2963 
z
" transform="scale(0.015625)"/>
       <path id="DejaVuSans-69" d="M 603 3500 
L 1178 3500 
L 1178 0 
L 603 0 
L 603 3500 
z
M 603 4863 
L 1178 4863 
L 1178 4134 
L 603 4134 
L 603 4863 
z
" transform="scale(0.015625)"/>
       <path id="DejaVuSans-6e" d="M 3513 2113 
L 3513 0 
L 2938 0 
L 2938 2094 
Q 2938 2591 2744 2837 
Q 2550 3084 2163 3084 
Q 1697 3084 1428 2787 
Q 1159 2491 1159 1978 
L 1159 0 
L 581 0 
L 581 3500 
L 1159 3500 
L 1159 2956 
Q 1366 3272 1645 3428 
Q 1925 3584 2291 3584 
Q 2894 3584 3203 3211 
Q 3513 2838 3513 2113 
z
" transform="scale(0.015625)"/>
       <path id="DejaVuSans-74" d="M 1172 4494 
L 1172 3500 
L 2356 3500 
L 2356 3053 
L 1172 3053 
L 1172 1153 
Q 1172 725 1289 603 
Q 1406 481 1766 481 
L 2356 481 
L 2356 0 
L 1766 0 
Q 1100 0 847 248 
Q 594 497 594 1153 
L 594 3053 
L 172 3053 
L 172 3500 
L 594 3500 
L 594 4494 
L 1172 4494 
z
" transform="scale(0.015625)"/>
       <path id="DejaVuSans-73" d="M 2834 3397 
L 2834 2853 
Q 2591 2978 2328 3040 
Q 2066 3103 1784 3103 
Q 1356 3103 1142 2972 
Q 928 2841 928 2578 
Q 928 2378 1081 2264 
Q 1234 2150 1697 2047 
L 1894 2003 
Q 2506 1872 2764 1633 
Q 3022 1394 3022 966 
Q 3022 478 2636 193 
Q 2250 -91 1575 -91 
Q 1294 -91 989 -36 
Q 684 19 347 128 
L 347 722 
Q 666 556 975 473 
Q 1284 391 1588 391 
Q 1994 391 2212 530 
Q 2431 669 2431 922 
Q 2431 1156 2273 1281 
Q 2116 1406 1581 1522 
L 1381 1569 
Q 847 1681 609 1914 
Q 372 2147 372 2553 
Q 372 3047 722 3315 
Q 1072 3584 1716 3584 
Q 2034 3584 2315 3537 
Q 2597 3491 2834 3397 
z
" transform="scale(0.015625)"/>
      </defs>
      <use xlink:href="#DejaVuSans-4e"/>
      <use xlink:href="#DejaVuSans-75" x="74.804688"/>
      <use xlink:href="#DejaVuSans-6d" x="138.183594"/>
      <use xlink:href="#DejaVuSans-5f" x="235.595703"/>
      <use xlink:href="#DejaVuSans-45" x="285.595703"/>
      <use xlink:href="#DejaVuSans-78" x="348.779297"/>
      <use xlink:href="#DejaVuSans-70" x="407.958984"/>
      <use xlink:href="#DejaVuSans-65" x="471.435547"/>
      <use xlink:href="#DejaVuSans-72" x="532.958984"/>
      <use xlink:href="#DejaVuSans-69" x="574.072266"/>
      <use xlink:href="#DejaVuSans-6d" x="601.855469"/>
      <use xlink:href="#DejaVuSans-65" x="699.267578"/>
      <use xlink:href="#DejaVuSans-6e" x="760.791016"/>
      <use xlink:href="#DejaVuSans-74" x="824.169922"/>
      <use xlink:href="#DejaVuSans-73" x="863.378906"/>
     </g>
    </g>
   </g>
   <g id="matplotlib.axis_2">
    <g id="ytick_1">
     <g id="line2d_7">
      <defs>
       <path id="m0917c93d76" d="M 0 0 
L -3.5 0 
" style="stroke: #000000; stroke-width: 0.8"/>
      </defs>
      <g>
       <use xlink:href="#m0917c93d76" x="216" y="481.550428" style="stroke: #000000; stroke-width: 0.8"/>
      </g>
     </g>
     <g id="text_8">
      <!-- −3.0 -->
      <g transform="translate(155.577812 489.908709) scale(0.22 -0.22)">
       <defs>
        <path id="DejaVuSans-2212" d="M 678 2272 
L 4684 2272 
L 4684 1741 
L 678 1741 
L 678 2272 
z
" transform="scale(0.015625)"/>
        <path id="DejaVuSans-33" d="M 2597 2516 
Q 3050 2419 3304 2112 
Q 3559 1806 3559 1356 
Q 3559 666 3084 287 
Q 2609 -91 1734 -91 
Q 1441 -91 1130 -33 
Q 819 25 488 141 
L 488 750 
Q 750 597 1062 519 
Q 1375 441 1716 441 
Q 2309 441 2620 675 
Q 2931 909 2931 1356 
Q 2931 1769 2642 2001 
Q 2353 2234 1838 2234 
L 1294 2234 
L 1294 2753 
L 1863 2753 
Q 2328 2753 2575 2939 
Q 2822 3125 2822 3475 
Q 2822 3834 2567 4026 
Q 2313 4219 1838 4219 
Q 1578 4219 1281 4162 
Q 984 4106 628 3988 
L 628 4550 
Q 988 4650 1302 4700 
Q 1616 4750 1894 4750 
Q 2613 4750 3031 4423 
Q 3450 4097 3450 3541 
Q 3450 3153 3228 2886 
Q 3006 2619 2597 2516 
z
" transform="scale(0.015625)"/>
        <path id="DejaVuSans-2e" d="M 684 794 
L 1344 794 
L 1344 0 
L 684 0 
L 684 794 
z
" transform="scale(0.015625)"/>
       </defs>
       <use xlink:href="#DejaVuSans-2212"/>
       <use xlink:href="#DejaVuSans-33" x="83.789062"/>
       <use xlink:href="#DejaVuSans-2e" x="147.412109"/>
       <use xlink:href="#DejaVuSans-30" x="179.199219"/>
      </g>
     </g>
    </g>
    <g id="ytick_2">
     <g id="line2d_8">
      <g>
       <use xlink:href="#m0917c93d76" x="216" y="416.090349" style="stroke: #000000; stroke-width: 0.8"/>
      </g>
     </g>
     <g id="text_9">
      <!-- −2.5 -->
      <g transform="translate(155.577812 424.44863) scale(0.22 -0.22)">
       <use xlink:href="#DejaVuSans-2212"/>
       <use xlink:href="#DejaVuSans-32" x="83.789062"/>
       <use xlink:href="#DejaVuSans-2e" x="147.412109"/>
       <use xlink:href="#DejaVuSans-35" x="179.199219"/>
      </g>
     </g>
    </g>
    <g id="ytick_3">
     <g id="line2d_9">
      <g>
       <use xlink:href="#m0917c93d76" x="216" y="350.63027" style="stroke: #000000; stroke-width: 0.8"/>
      </g>
     </g>
     <g id="text_10">
      <!-- −2.0 -->
      <g transform="translate(155.577812 358.988551) scale(0.22 -0.22)">
       <use xlink:href="#DejaVuSans-2212"/>
       <use xlink:href="#DejaVuSans-32" x="83.789062"/>
       <use xlink:href="#DejaVuSans-2e" x="147.412109"/>
       <use xlink:href="#DejaVuSans-30" x="179.199219"/>
      </g>
     </g>
    </g>
    <g id="ytick_4">
     <g id="line2d_10">
      <g>
       <use xlink:href="#m0917c93d76" x="216" y="285.170191" style="stroke: #000000; stroke-width: 0.8"/>
      </g>
     </g>
     <g id="text_11">
      <!-- −1.5 -->
      <g transform="translate(155.577812 293.528472) scale(0.22 -0.22)">
       <use xlink:href="#DejaVuSans-2212"/>
       <use xlink:href="#DejaVuSans-31" x="83.789062"/>
       <use xlink:href="#DejaVuSans-2e" x="147.412109"/>
       <use xlink:href="#DejaVuSans-35" x="179.199219"/>
      </g>
     </g>
    </g>
    <g id="ytick_5">
     <g id="line2d_11">
      <g>
       <use xlink:href="#m0917c93d76" x="216" y="219.710111" style="stroke: #000000; stroke-width: 0.8"/>
      </g>
     </g>
     <g id="text_12">
      <!-- −1.0 -->
      <g transform="translate(155.577812 228.068393) scale(0.22 -0.22)">
       <use xlink:href="#DejaVuSans-2212"/>
       <use xlink:href="#DejaVuSans-31" x="83.789062"/>
       <use xlink:href="#DejaVuSans-2e" x="147.412109"/>
       <use xlink:href="#DejaVuSans-30" x="179.199219"/>
      </g>
     </g>
    </g>
    <g id="ytick_6">
     <g id="line2d_12">
      <g>
       <use xlink:href="#m0917c93d76" x="216" y="154.250032" style="stroke: #000000; stroke-width: 0.8"/>
      </g>
     </g>
     <g id="text_13">
      <!-- −0.5 -->
      <g transform="translate(155.577812 162.608313) scale(0.22 -0.22)">
       <use xlink:href="#DejaVuSans-2212"/>
       <use xlink:href="#DejaVuSans-30" x="83.789062"/>
       <use xlink:href="#DejaVuSans-2e" x="147.412109"/>
       <use xlink:href="#DejaVuSans-35" x="179.199219"/>
      </g>
     </g>
    </g>
    <g id="ytick_7">
     <g id="line2d_13">
      <g>
       <use xlink:href="#m0917c93d76" x="216" y="88.789953" style="stroke: #000000; stroke-width: 0.8"/>
      </g>
     </g>
     <g id="text_14">
      <!-- 0.0 -->
      <g transform="translate(174.013125 97.148234) scale(0.22 -0.22)">
       <use xlink:href="#DejaVuSans-30"/>
       <use xlink:href="#DejaVuSans-2e" x="63.623047"/>
       <use xlink:href="#DejaVuSans-30" x="95.410156"/>
      </g>
     </g>
    </g>
    <g id="text_15">
     <!-- Target_CumBest -->
     <g transform="translate(146.390625 380.143281) rotate(-90) scale(0.22 -0.22)">
      <defs>
       <path id="DejaVuSans-54" d="M -19 4666 
L 3928 4666 
L 3928 4134 
L 2272 4134 
L 2272 0 
L 1638 0 
L 1638 4134 
L -19 4134 
L -19 4666 
z
" transform="scale(0.015625)"/>
       <path id="DejaVuSans-61" d="M 2194 1759 
Q 1497 1759 1228 1600 
Q 959 1441 959 1056 
Q 959 750 1161 570 
Q 1363 391 1709 391 
Q 2188 391 2477 730 
Q 2766 1069 2766 1631 
L 2766 1759 
L 2194 1759 
z
M 3341 1997 
L 3341 0 
L 2766 0 
L 2766 531 
Q 2569 213 2275 61 
Q 1981 -91 1556 -91 
Q 1019 -91 701 211 
Q 384 513 384 1019 
Q 384 1609 779 1909 
Q 1175 2209 1959 2209 
L 2766 2209 
L 2766 2266 
Q 2766 2663 2505 2880 
Q 2244 3097 1772 3097 
Q 1472 3097 1187 3025 
Q 903 2953 641 2809 
L 641 3341 
Q 956 3463 1253 3523 
Q 1550 3584 1831 3584 
Q 2591 3584 2966 3190 
Q 3341 2797 3341 1997 
z
" transform="scale(0.015625)"/>
       <path id="DejaVuSans-67" d="M 2906 1791 
Q 2906 2416 2648 2759 
Q 2391 3103 1925 3103 
Q 1463 3103 1205 2759 
Q 947 2416 947 1791 
Q 947 1169 1205 825 
Q 1463 481 1925 481 
Q 2391 481 2648 825 
Q 2906 1169 2906 1791 
z
M 3481 434 
Q 3481 -459 3084 -895 
Q 2688 -1331 1869 -1331 
Q 1566 -1331 1297 -1286 
Q 1028 -1241 775 -1147 
L 775 -588 
Q 1028 -725 1275 -790 
Q 1522 -856 1778 -856 
Q 2344 -856 2625 -561 
Q 2906 -266 2906 331 
L 2906 616 
Q 2728 306 2450 153 
Q 2172 0 1784 0 
Q 1141 0 747 490 
Q 353 981 353 1791 
Q 353 2603 747 3093 
Q 1141 3584 1784 3584 
Q 2172 3584 2450 3431 
Q 2728 3278 2906 2969 
L 2906 3500 
L 3481 3500 
L 3481 434 
z
" transform="scale(0.015625)"/>
       <path id="DejaVuSans-43" d="M 4122 4306 
L 4122 3641 
Q 3803 3938 3442 4084 
Q 3081 4231 2675 4231 
Q 1875 4231 1450 3742 
Q 1025 3253 1025 2328 
Q 1025 1406 1450 917 
Q 1875 428 2675 428 
Q 3081 428 3442 575 
Q 3803 722 4122 1019 
L 4122 359 
Q 3791 134 3420 21 
Q 3050 -91 2638 -91 
Q 1578 -91 968 557 
Q 359 1206 359 2328 
Q 359 3453 968 4101 
Q 1578 4750 2638 4750 
Q 3056 4750 3426 4639 
Q 3797 4528 4122 4306 
z
" transform="scale(0.015625)"/>
       <path id="DejaVuSans-42" d="M 1259 2228 
L 1259 519 
L 2272 519 
Q 2781 519 3026 730 
Q 3272 941 3272 1375 
Q 3272 1813 3026 2020 
Q 2781 2228 2272 2228 
L 1259 2228 
z
M 1259 4147 
L 1259 2741 
L 2194 2741 
Q 2656 2741 2882 2914 
Q 3109 3088 3109 3444 
Q 3109 3797 2882 3972 
Q 2656 4147 2194 4147 
L 1259 4147 
z
M 628 4666 
L 2241 4666 
Q 2963 4666 3353 4366 
Q 3744 4066 3744 3513 
Q 3744 3084 3544 2831 
Q 3344 2578 2956 2516 
Q 3422 2416 3680 2098 
Q 3938 1781 3938 1306 
Q 3938 681 3513 340 
Q 3088 0 2303 0 
L 628 0 
L 628 4666 
z
" transform="scale(0.015625)"/>
      </defs>
      <use xlink:href="#DejaVuSans-54"/>
      <use xlink:href="#DejaVuSans-61" x="44.583984"/>
      <use xlink:href="#DejaVuSans-72" x="105.863281"/>
      <use xlink:href="#DejaVuSans-67" x="145.226562"/>
      <use xlink:href="#DejaVuSans-65" x="208.703125"/>
      <use xlink:href="#DejaVuSans-74" x="270.226562"/>
      <use xlink:href="#DejaVuSans-5f" x="309.435547"/>
      <use xlink:href="#DejaVuSans-43" x="359.435547"/>
      <use xlink:href="#DejaVuSans-75" x="429.259766"/>
      <use xlink:href="#DejaVuSans-6d" x="492.638672"/>
      <use xlink:href="#DejaVuSans-42" x="590.050781"/>
      <use xlink:href="#DejaVuSans-65" x="658.654297"/>
      <use xlink:href="#DejaVuSans-73" x="720.177734"/>
      <use xlink:href="#DejaVuSans-74" x="772.277344"/>
     </g>
    </g>
   </g>
   <g id="line2d_14">
    <path d="M 276.872727 168.186302 
L 327.6 177.036482 
L 378.327273 188.677926 
L 429.054545 199.609229 
L 479.781818 204.265786 
L 530.509091 216.27752 
L 581.236364 232.384051 
L 631.963636 247.193054 
L 682.690909 267.250101 
L 733.418182 294.64738 
L 784.145455 310.775643 
L 834.872727 324.631101 
L 885.6 346.685379 
L 936.327273 362.872999 
L 987.054545 382.003451 
L 1037.781818 392.352678 
L 1088.509091 409.580635 
L 1139.236364 423.868286 
L 1189.963636 433.083591 
L 1240.690909 440.60091 
L 1291.418182 463.097363 
L 1342.145455 470.331135 
L 1392.872727 475.364305 
L 1443.6 476.984992 
L 1494.327273 479.36522 
" clip-path="url(#pbd7c2404bb)" style="fill: none; stroke: #1f77b4; stroke-width: 1.5; stroke-linecap: square"/>
    <defs>
     <path id="m57ebb24e7e" d="M 0 5 
C 1.326016 5 2.597899 4.473168 3.535534 3.535534 
C 4.473168 2.597899 5 1.326016 5 0 
C 5 -1.326016 4.473168 -2.597899 3.535534 -3.535534 
C 2.597899 -4.473168 1.326016 -5 0 -5 
C -1.326016 -5 -2.597899 -4.473168 -3.535534 -3.535534 
C -4.473168 -2.597899 -5 -1.326016 -5 0 
C -5 1.326016 -4.473168 2.597899 -3.535534 3.535534 
C -2.597899 4.473168 -1.326016 5 0 5 
z
" style="stroke: #ffffff; stroke-width: 0.75"/>
    </defs>
    <g clip-path="url(#pbd7c2404bb)">
     <use xlink:href="#m57ebb24e7e" x="276.872727" y="168.186302" style="fill: #1f77b4; stroke: #ffffff; stroke-width: 0.75"/>
     <use xlink:href="#m57ebb24e7e" x="327.6" y="177.036482" style="fill: #1f77b4; stroke: #ffffff; stroke-width: 0.75"/>
     <use xlink:href="#m57ebb24e7e" x="378.327273" y="188.677926" style="fill: #1f77b4; stroke: #ffffff; stroke-width: 0.75"/>
     <use xlink:href="#m57ebb24e7e" x="429.054545" y="199.609229" style="fill: #1f77b4; stroke: #ffffff; stroke-width: 0.75"/>
     <use xlink:href="#m57ebb24e7e" x="479.781818" y="204.265786" style="fill: #1f77b4; stroke: #ffffff; stroke-width: 0.75"/>
     <use xlink:href="#m57ebb24e7e" x="530.509091" y="216.27752" style="fill: #1f77b4; stroke: #ffffff; stroke-width: 0.75"/>
     <use xlink:href="#m57ebb24e7e" x="581.236364" y="232.384051" style="fill: #1f77b4; stroke: #ffffff; stroke-width: 0.75"/>
     <use xlink:href="#m57ebb24e7e" x="631.963636" y="247.193054" style="fill: #1f77b4; stroke: #ffffff; stroke-width: 0.75"/>
     <use xlink:href="#m57ebb24e7e" x="682.690909" y="267.250101" style="fill: #1f77b4; stroke: #ffffff; stroke-width: 0.75"/>
     <use xlink:href="#m57ebb24e7e" x="733.418182" y="294.64738" style="fill: #1f77b4; stroke: #ffffff; stroke-width: 0.75"/>
     <use xlink:href="#m57ebb24e7e" x="784.145455" y="310.775643" style="fill: #1f77b4; stroke: #ffffff; stroke-width: 0.75"/>
     <use xlink:href="#m57ebb24e7e" x="834.872727" y="324.631101" style="fill: #1f77b4; stroke: #ffffff; stroke-width: 0.75"/>
     <use xlink:href="#m57ebb24e7e" x="885.6" y="346.685379" style="fill: #1f77b4; stroke: #ffffff; stroke-width: 0.75"/>
     <use xlink:href="#m57ebb24e7e" x="936.327273" y="362.872999" style="fill: #1f77b4; stroke: #ffffff; stroke-width: 0.75"/>
     <use xlink:href="#m57ebb24e7e" x="987.054545" y="382.003451" style="fill: #1f77b4; stroke: #ffffff; stroke-width: 0.75"/>
     <use xlink:href="#m57ebb24e7e" x="1037.781818" y="392.352678" style="fill: #1f77b4; stroke: #ffffff; stroke-width: 0.75"/>
     <use xlink:href="#m57ebb24e7e" x="1088.509091" y="409.580635" style="fill: #1f77b4; stroke: #ffffff; stroke-width: 0.75"/>
     <use xlink:href="#m57ebb24e7e" x="1139.236364" y="423.868286" style="fill: #1f77b4; stroke: #ffffff; stroke-width: 0.75"/>
     <use xlink:href="#m57ebb24e7e" x="1189.963636" y="433.083591" style="fill: #1f77b4; stroke: #ffffff; stroke-width: 0.75"/>
     <use xlink:href="#m57ebb24e7e" x="1240.690909" y="440.60091" style="fill: #1f77b4; stroke: #ffffff; stroke-width: 0.75"/>
     <use xlink:href="#m57ebb24e7e" x="1291.418182" y="463.097363" style="fill: #1f77b4; stroke: #ffffff; stroke-width: 0.75"/>
     <use xlink:href="#m57ebb24e7e" x="1342.145455" y="470.331135" style="fill: #1f77b4; stroke: #ffffff; stroke-width: 0.75"/>
     <use xlink:href="#m57ebb24e7e" x="1392.872727" y="475.364305" style="fill: #1f77b4; stroke: #ffffff; stroke-width: 0.75"/>
     <use xlink:href="#m57ebb24e7e" x="1443.6" y="476.984992" style="fill: #1f77b4; stroke: #ffffff; stroke-width: 0.75"/>
     <use xlink:href="#m57ebb24e7e" x="1494.327273" y="479.36522" style="fill: #1f77b4; stroke: #ffffff; stroke-width: 0.75"/>
    </g>
   </g>
   <g id="line2d_15">
    <path d="M 276.872727 132.272106 
L 327.6 143.420774 
L 378.327273 174.120416 
L 429.054545 184.632621 
L 479.781818 195.13564 
L 530.509091 211.739311 
L 581.236364 219.668864 
L 631.963636 240.534546 
L 682.690909 258.944728 
L 733.418182 276.55915 
L 784.145455 290.598015 
L 834.872727 304.506184 
L 885.6 307.177916 
L 936.327273 323.249214 
L 987.054545 335.351289 
L 1037.781818 360.064281 
L 1088.509091 373.569228 
L 1139.236364 387.120735 
L 1189.963636 406.691888 
L 1240.690909 422.131308 
L 1291.418182 431.734028 
L 1342.145455 446.806975 
L 1392.872727 447.360548 
L 1443.6 450.71544 
L 1494.327273 453.599042 
" clip-path="url(#pbd7c2404bb)" style="fill: none; stroke: #ff7f0e; stroke-width: 1.5; stroke-linecap: square"/>
    <defs>
     <path id="meead706314" d="M 0 5 
C 1.326016 5 2.597899 4.473168 3.535534 3.535534 
C 4.473168 2.597899 5 1.326016 5 0 
C 5 -1.326016 4.473168 -2.597899 3.535534 -3.535534 
C 2.597899 -4.473168 1.326016 -5 0 -5 
C -1.326016 -5 -2.597899 -4.473168 -3.535534 -3.535534 
C -4.473168 -2.597899 -5 -1.326016 -5 0 
C -5 1.326016 -4.473168 2.597899 -3.535534 3.535534 
C -2.597899 4.473168 -1.326016 5 0 5 
z
" style="stroke: #ffffff; stroke-width: 0.75"/>
    </defs>
    <g clip-path="url(#pbd7c2404bb)">
     <use xlink:href="#meead706314" x="276.872727" y="132.272106" style="fill: #ff7f0e; stroke: #ffffff; stroke-width: 0.75"/>
     <use xlink:href="#meead706314" x="327.6" y="143.420774" style="fill: #ff7f0e; stroke: #ffffff; stroke-width: 0.75"/>
     <use xlink:href="#meead706314" x="378.327273" y="174.120416" style="fill: #ff7f0e; stroke: #ffffff; stroke-width: 0.75"/>
     <use xlink:href="#meead706314" x="429.054545" y="184.632621" style="fill: #ff7f0e; stroke: #ffffff; stroke-width: 0.75"/>
     <use xlink:href="#meead706314" x="479.781818" y="195.13564" style="fill: #ff7f0e; stroke: #ffffff; stroke-width: 0.75"/>
     <use xlink:href="#meead706314" x="530.509091" y="211.739311" style="fill: #ff7f0e; stroke: #ffffff; stroke-width: 0.75"/>
     <use xlink:href="#meead706314" x="581.236364" y="219.668864" style="fill: #ff7f0e; stroke: #ffffff; stroke-width: 0.75"/>
     <use xlink:href="#meead706314" x="631.963636" y="240.534546" style="fill: #ff7f0e; stroke: #ffffff; stroke-width: 0.75"/>
     <use xlink:href="#meead706314" x="682.690909" y="258.944728" style="fill: #ff7f0e; stroke: #ffffff; stroke-width: 0.75"/>
     <use xlink:href="#meead706314" x="733.418182" y="276.55915" style="fill: #ff7f0e; stroke: #ffffff; stroke-width: 0.75"/>
     <use xlink:href="#meead706314" x="784.145455" y="290.598015" style="fill: #ff7f0e; stroke: #ffffff; stroke-width: 0.75"/>
     <use xlink:href="#meead706314" x="834.872727" y="304.506184" style="fill: #ff7f0e; stroke: #ffffff; stroke-width: 0.75"/>
     <use xlink:href="#meead706314" x="885.6" y="307.177916" style="fill: #ff7f0e; stroke: #ffffff; stroke-width: 0.75"/>
     <use xlink:href="#meead706314" x="936.327273" y="323.249214" style="fill: #ff7f0e; stroke: #ffffff; stroke-width: 0.75"/>
     <use xlink:href="#meead706314" x="987.054545" y="335.351289" style="fill: #ff7f0e; stroke: #ffffff; stroke-width: 0.75"/>
     <use xlink:href="#meead706314" x="1037.781818" y="360.064281" style="fill: #ff7f0e; stroke: #ffffff; stroke-width: 0.75"/>
     <use xlink:href="#meead706314" x="1088.509091" y="373.569228" style="fill: #ff7f0e; stroke: #ffffff; stroke-width: 0.75"/>
     <use xlink:href="#meead706314" x="1139.236364" y="387.120735" style="fill: #ff7f0e; stroke: #ffffff; stroke-width: 0.75"/>
     <use xlink:href="#meead706314" x="1189.963636" y="406.691888" style="fill: #ff7f0e; stroke: #ffffff; stroke-width: 0.75"/>
     <use xlink:href="#meead706314" x="1240.690909" y="422.131308" style="fill: #ff7f0e; stroke: #ffffff; stroke-width: 0.75"/>
     <use xlink:href="#meead706314" x="1291.418182" y="431.734028" style="fill: #ff7f0e; stroke: #ffffff; stroke-width: 0.75"/>
     <use xlink:href="#meead706314" x="1342.145455" y="446.806975" style="fill: #ff7f0e; stroke: #ffffff; stroke-width: 0.75"/>
     <use xlink:href="#meead706314" x="1392.872727" y="447.360548" style="fill: #ff7f0e; stroke: #ffffff; stroke-width: 0.75"/>
     <use xlink:href="#meead706314" x="1443.6" y="450.71544" style="fill: #ff7f0e; stroke: #ffffff; stroke-width: 0.75"/>
     <use xlink:href="#meead706314" x="1494.327273" y="453.599042" style="fill: #ff7f0e; stroke: #ffffff; stroke-width: 0.75"/>
    </g>
   </g>
   <g id="line2d_16">
    <path d="M 276.872727 122.236285 
L 327.6 127.208828 
L 378.327273 162.254228 
L 429.054545 183.495106 
L 479.781818 199.742494 
L 530.509091 214.584878 
L 581.236364 236.686407 
L 631.963636 245.00177 
L 682.690909 271.301297 
L 733.418182 281.750668 
L 784.145455 297.102799 
L 834.872727 310.933219 
L 885.6 316.960633 
L 936.327273 330.389918 
L 987.054545 336.200304 
L 1037.781818 341.044299 
L 1088.509091 351.648866 
L 1139.236364 358.237609 
L 1189.963636 378.556269 
L 1240.690909 388.065935 
L 1291.418182 389.21937 
L 1342.145455 390.549436 
L 1392.872727 394.271907 
L 1443.6 399.62663 
L 1494.327273 399.762529 
" clip-path="url(#pbd7c2404bb)" style="fill: none; stroke: #2ca02c; stroke-width: 1.5; stroke-linecap: square"/>
    <defs>
     <path id="m178f082e7a" d="M 0 5 
C 1.326016 5 2.597899 4.473168 3.535534 3.535534 
C 4.473168 2.597899 5 1.326016 5 0 
C 5 -1.326016 4.473168 -2.597899 3.535534 -3.535534 
C 2.597899 -4.473168 1.326016 -5 0 -5 
C -1.326016 -5 -2.597899 -4.473168 -3.535534 -3.535534 
C -4.473168 -2.597899 -5 -1.326016 -5 0 
C -5 1.326016 -4.473168 2.597899 -3.535534 3.535534 
C -2.597899 4.473168 -1.326016 5 0 5 
z
" style="stroke: #ffffff; stroke-width: 0.75"/>
    </defs>
    <g clip-path="url(#pbd7c2404bb)">
     <use xlink:href="#m178f082e7a" x="276.872727" y="122.236285" style="fill: #2ca02c; stroke: #ffffff; stroke-width: 0.75"/>
     <use xlink:href="#m178f082e7a" x="327.6" y="127.208828" style="fill: #2ca02c; stroke: #ffffff; stroke-width: 0.75"/>
     <use xlink:href="#m178f082e7a" x="378.327273" y="162.254228" style="fill: #2ca02c; stroke: #ffffff; stroke-width: 0.75"/>
     <use xlink:href="#m178f082e7a" x="429.054545" y="183.495106" style="fill: #2ca02c; stroke: #ffffff; stroke-width: 0.75"/>
     <use xlink:href="#m178f082e7a" x="479.781818" y="199.742494" style="fill: #2ca02c; stroke: #ffffff; stroke-width: 0.75"/>
     <use xlink:href="#m178f082e7a" x="530.509091" y="214.584878" style="fill: #2ca02c; stroke: #ffffff; stroke-width: 0.75"/>
     <use xlink:href="#m178f082e7a" x="581.236364" y="236.686407" style="fill: #2ca02c; stroke: #ffffff; stroke-width: 0.75"/>
     <use xlink:href="#m178f082e7a" x="631.963636" y="245.00177" style="fill: #2ca02c; stroke: #ffffff; stroke-width: 0.75"/>
     <use xlink:href="#m178f082e7a" x="682.690909" y="271.301297" style="fill: #2ca02c; stroke: #ffffff; stroke-width: 0.75"/>
     <use xlink:href="#m178f082e7a" x="733.418182" y="281.750668" style="fill: #2ca02c; stroke: #ffffff; stroke-width: 0.75"/>
     <use xlink:href="#m178f082e7a" x="784.145455" y="297.102799" style="fill: #2ca02c; stroke: #ffffff; stroke-width: 0.75"/>
     <use xlink:href="#m178f082e7a" x="834.872727" y="310.933219" style="fill: #2ca02c; stroke: #ffffff; stroke-width: 0.75"/>
     <use xlink:href="#m178f082e7a" x="885.6" y="316.960633" style="fill: #2ca02c; stroke: #ffffff; stroke-width: 0.75"/>
     <use xlink:href="#m178f082e7a" x="936.327273" y="330.389918" style="fill: #2ca02c; stroke: #ffffff; stroke-width: 0.75"/>
     <use xlink:href="#m178f082e7a" x="987.054545" y="336.200304" style="fill: #2ca02c; stroke: #ffffff; stroke-width: 0.75"/>
     <use xlink:href="#m178f082e7a" x="1037.781818" y="341.044299" style="fill: #2ca02c; stroke: #ffffff; stroke-width: 0.75"/>
     <use xlink:href="#m178f082e7a" x="1088.509091" y="351.648866" style="fill: #2ca02c; stroke: #ffffff; stroke-width: 0.75"/>
     <use xlink:href="#m178f082e7a" x="1139.236364" y="358.237609" style="fill: #2ca02c; stroke: #ffffff; stroke-width: 0.75"/>
     <use xlink:href="#m178f082e7a" x="1189.963636" y="378.556269" style="fill: #2ca02c; stroke: #ffffff; stroke-width: 0.75"/>
     <use xlink:href="#m178f082e7a" x="1240.690909" y="388.065935" style="fill: #2ca02c; stroke: #ffffff; stroke-width: 0.75"/>
     <use xlink:href="#m178f082e7a" x="1291.418182" y="389.21937" style="fill: #2ca02c; stroke: #ffffff; stroke-width: 0.75"/>
     <use xlink:href="#m178f082e7a" x="1342.145455" y="390.549436" style="fill: #2ca02c; stroke: #ffffff; stroke-width: 0.75"/>
     <use xlink:href="#m178f082e7a" x="1392.872727" y="394.271907" style="fill: #2ca02c; stroke: #ffffff; stroke-width: 0.75"/>
     <use xlink:href="#m178f082e7a" x="1443.6" y="399.62663" style="fill: #2ca02c; stroke: #ffffff; stroke-width: 0.75"/>
     <use xlink:href="#m178f082e7a" x="1494.327273" y="399.762529" style="fill: #2ca02c; stroke: #ffffff; stroke-width: 0.75"/>
    </g>
   </g>
   <g id="line2d_17">
    <path d="M 276.872727 149.207503 
L 327.6 160.443851 
L 378.327273 196.159467 
L 429.054545 226.28001 
L 479.781818 234.684585 
L 530.509091 265.891814 
L 581.236364 277.889985 
L 631.963636 292.881268 
L 682.690909 308.028607 
L 733.418182 320.336393 
L 784.145455 324.538211 
L 834.872727 332.445244 
L 885.6 339.840923 
L 936.327273 344.376115 
L 987.054545 350.160557 
L 1037.781818 354.092111 
L 1088.509091 369.125092 
L 1139.236364 375.324356 
L 1189.963636 383.684304 
L 1240.690909 384.543048 
L 1291.418182 384.543048 
L 1342.145455 389.678932 
L 1392.872727 396.849692 
L 1443.6 397.764999 
L 1494.327273 397.975196 
" clip-path="url(#pbd7c2404bb)" style="fill: none; stroke: #d62728; stroke-width: 1.5; stroke-linecap: square"/>
    <defs>
     <path id="m6a9991cf6e" d="M 0 5 
C 1.326016 5 2.597899 4.473168 3.535534 3.535534 
C 4.473168 2.597899 5 1.326016 5 0 
C 5 -1.326016 4.473168 -2.597899 3.535534 -3.535534 
C 2.597899 -4.473168 1.326016 -5 0 -5 
C -1.326016 -5 -2.597899 -4.473168 -3.535534 -3.535534 
C -4.473168 -2.597899 -5 -1.326016 -5 0 
C -5 1.326016 -4.473168 2.597899 -3.535534 3.535534 
C -2.597899 4.473168 -1.326016 5 0 5 
z
" style="stroke: #ffffff; stroke-width: 0.75"/>
    </defs>
    <g clip-path="url(#pbd7c2404bb)">
     <use xlink:href="#m6a9991cf6e" x="276.872727" y="149.207503" style="fill: #d62728; stroke: #ffffff; stroke-width: 0.75"/>
     <use xlink:href="#m6a9991cf6e" x="327.6" y="160.443851" style="fill: #d62728; stroke: #ffffff; stroke-width: 0.75"/>
     <use xlink:href="#m6a9991cf6e" x="378.327273" y="196.159467" style="fill: #d62728; stroke: #ffffff; stroke-width: 0.75"/>
     <use xlink:href="#m6a9991cf6e" x="429.054545" y="226.28001" style="fill: #d62728; stroke: #ffffff; stroke-width: 0.75"/>
     <use xlink:href="#m6a9991cf6e" x="479.781818" y="234.684585" style="fill: #d62728; stroke: #ffffff; stroke-width: 0.75"/>
     <use xlink:href="#m6a9991cf6e" x="530.509091" y="265.891814" style="fill: #d62728; stroke: #ffffff; stroke-width: 0.75"/>
     <use xlink:href="#m6a9991cf6e" x="581.236364" y="277.889985" style="fill: #d62728; stroke: #ffffff; stroke-width: 0.75"/>
     <use xlink:href="#m6a9991cf6e" x="631.963636" y="292.881268" style="fill: #d62728; stroke: #ffffff; stroke-width: 0.75"/>
     <use xlink:href="#m6a9991cf6e" x="682.690909" y="308.028607" style="fill: #d62728; stroke: #ffffff; stroke-width: 0.75"/>
     <use xlink:href="#m6a9991cf6e" x="733.418182" y="320.336393" style="fill: #d62728; stroke: #ffffff; stroke-width: 0.75"/>
     <use xlink:href="#m6a9991cf6e" x="784.145455" y="324.538211" style="fill: #d62728; stroke: #ffffff; stroke-width: 0.75"/>
     <use xlink:href="#m6a9991cf6e" x="834.872727" y="332.445244" style="fill: #d62728; stroke: #ffffff; stroke-width: 0.75"/>
     <use xlink:href="#m6a9991cf6e" x="885.6" y="339.840923" style="fill: #d62728; stroke: #ffffff; stroke-width: 0.75"/>
     <use xlink:href="#m6a9991cf6e" x="936.327273" y="344.376115" style="fill: #d62728; stroke: #ffffff; stroke-width: 0.75"/>
     <use xlink:href="#m6a9991cf6e" x="987.054545" y="350.160557" style="fill: #d62728; stroke: #ffffff; stroke-width: 0.75"/>
     <use xlink:href="#m6a9991cf6e" x="1037.781818" y="354.092111" style="fill: #d62728; stroke: #ffffff; stroke-width: 0.75"/>
     <use xlink:href="#m6a9991cf6e" x="1088.509091" y="369.125092" style="fill: #d62728; stroke: #ffffff; stroke-width: 0.75"/>
     <use xlink:href="#m6a9991cf6e" x="1139.236364" y="375.324356" style="fill: #d62728; stroke: #ffffff; stroke-width: 0.75"/>
     <use xlink:href="#m6a9991cf6e" x="1189.963636" y="383.684304" style="fill: #d62728; stroke: #ffffff; stroke-width: 0.75"/>
     <use xlink:href="#m6a9991cf6e" x="1240.690909" y="384.543048" style="fill: #d62728; stroke: #ffffff; stroke-width: 0.75"/>
     <use xlink:href="#m6a9991cf6e" x="1291.418182" y="384.543048" style="fill: #d62728; stroke: #ffffff; stroke-width: 0.75"/>
     <use xlink:href="#m6a9991cf6e" x="1342.145455" y="389.678932" style="fill: #d62728; stroke: #ffffff; stroke-width: 0.75"/>
     <use xlink:href="#m6a9991cf6e" x="1392.872727" y="396.849692" style="fill: #d62728; stroke: #ffffff; stroke-width: 0.75"/>
     <use xlink:href="#m6a9991cf6e" x="1443.6" y="397.764999" style="fill: #d62728; stroke: #ffffff; stroke-width: 0.75"/>
     <use xlink:href="#m6a9991cf6e" x="1494.327273" y="397.975196" style="fill: #d62728; stroke: #ffffff; stroke-width: 0.75"/>
    </g>
   </g>
   <g id="line2d_18">
    <path d="M 276.872727 115.356263 
L 327.6 118.939635 
L 378.327273 152.057601 
L 429.054545 169.165233 
L 479.781818 175.142175 
L 530.509091 197.990858 
L 581.236364 211.703314 
L 631.963636 220.425669 
L 682.690909 230.372519 
L 733.418182 241.354973 
L 784.145455 246.230889 
L 834.872727 251.446352 
L 885.6 261.204193 
L 936.327273 267.66193 
L 987.054545 267.66193 
L 1037.781818 275.957042 
L 1088.509091 282.580719 
L 1139.236364 285.87752 
L 1189.963636 310.332453 
L 1240.690909 311.396852 
L 1291.418182 315.467828 
L 1342.145455 319.297742 
L 1392.872727 320.204612 
L 1443.6 322.019031 
L 1494.327273 324.619588 
" clip-path="url(#pbd7c2404bb)" style="fill: none; stroke: #9467bd; stroke-width: 1.5; stroke-linecap: square"/>
    <defs>
     <path id="mebdc60fe54" d="M 0 5 
C 1.326016 5 2.597899 4.473168 3.535534 3.535534 
C 4.473168 2.597899 5 1.326016 5 0 
C 5 -1.326016 4.473168 -2.597899 3.535534 -3.535534 
C 2.597899 -4.473168 1.326016 -5 0 -5 
C -1.326016 -5 -2.597899 -4.473168 -3.535534 -3.535534 
C -4.473168 -2.597899 -5 -1.326016 -5 0 
C -5 1.326016 -4.473168 2.597899 -3.535534 3.535534 
C -2.597899 4.473168 -1.326016 5 0 5 
z
" style="stroke: #ffffff; stroke-width: 0.75"/>
    </defs>
    <g clip-path="url(#pbd7c2404bb)">
     <use xlink:href="#mebdc60fe54" x="276.872727" y="115.356263" style="fill: #9467bd; stroke: #ffffff; stroke-width: 0.75"/>
     <use xlink:href="#mebdc60fe54" x="327.6" y="118.939635" style="fill: #9467bd; stroke: #ffffff; stroke-width: 0.75"/>
     <use xlink:href="#mebdc60fe54" x="378.327273" y="152.057601" style="fill: #9467bd; stroke: #ffffff; stroke-width: 0.75"/>
     <use xlink:href="#mebdc60fe54" x="429.054545" y="169.165233" style="fill: #9467bd; stroke: #ffffff; stroke-width: 0.75"/>
     <use xlink:href="#mebdc60fe54" x="479.781818" y="175.142175" style="fill: #9467bd; stroke: #ffffff; stroke-width: 0.75"/>
     <use xlink:href="#mebdc60fe54" x="530.509091" y="197.990858" style="fill: #9467bd; stroke: #ffffff; stroke-width: 0.75"/>
     <use xlink:href="#mebdc60fe54" x="581.236364" y="211.703314" style="fill: #9467bd; stroke: #ffffff; stroke-width: 0.75"/>
     <use xlink:href="#mebdc60fe54" x="631.963636" y="220.425669" style="fill: #9467bd; stroke: #ffffff; stroke-width: 0.75"/>
     <use xlink:href="#mebdc60fe54" x="682.690909" y="230.372519" style="fill: #9467bd; stroke: #ffffff; stroke-width: 0.75"/>
     <use xlink:href="#mebdc60fe54" x="733.418182" y="241.354973" style="fill: #9467bd; stroke: #ffffff; stroke-width: 0.75"/>
     <use xlink:href="#mebdc60fe54" x="784.145455" y="246.230889" style="fill: #9467bd; stroke: #ffffff; stroke-width: 0.75"/>
     <use xlink:href="#mebdc60fe54" x="834.872727" y="251.446352" style="fill: #9467bd; stroke: #ffffff; stroke-width: 0.75"/>
     <use xlink:href="#mebdc60fe54" x="885.6" y="261.204193" style="fill: #9467bd; stroke: #ffffff; stroke-width: 0.75"/>
     <use xlink:href="#mebdc60fe54" x="936.327273" y="267.66193" style="fill: #9467bd; stroke: #ffffff; stroke-width: 0.75"/>
     <use xlink:href="#mebdc60fe54" x="987.054545" y="267.66193" style="fill: #9467bd; stroke: #ffffff; stroke-width: 0.75"/>
     <use xlink:href="#mebdc60fe54" x="1037.781818" y="275.957042" style="fill: #9467bd; stroke: #ffffff; stroke-width: 0.75"/>
     <use xlink:href="#mebdc60fe54" x="1088.509091" y="282.580719" style="fill: #9467bd; stroke: #ffffff; stroke-width: 0.75"/>
     <use xlink:href="#mebdc60fe54" x="1139.236364" y="285.87752" style="fill: #9467bd; stroke: #ffffff; stroke-width: 0.75"/>
     <use xlink:href="#mebdc60fe54" x="1189.963636" y="310.332453" style="fill: #9467bd; stroke: #ffffff; stroke-width: 0.75"/>
     <use xlink:href="#mebdc60fe54" x="1240.690909" y="311.396852" style="fill: #9467bd; stroke: #ffffff; stroke-width: 0.75"/>
     <use xlink:href="#mebdc60fe54" x="1291.418182" y="315.467828" style="fill: #9467bd; stroke: #ffffff; stroke-width: 0.75"/>
     <use xlink:href="#mebdc60fe54" x="1342.145455" y="319.297742" style="fill: #9467bd; stroke: #ffffff; stroke-width: 0.75"/>
     <use xlink:href="#mebdc60fe54" x="1392.872727" y="320.204612" style="fill: #9467bd; stroke: #ffffff; stroke-width: 0.75"/>
     <use xlink:href="#mebdc60fe54" x="1443.6" y="322.019031" style="fill: #9467bd; stroke: #ffffff; stroke-width: 0.75"/>
     <use xlink:href="#mebdc60fe54" x="1494.327273" y="324.619588" style="fill: #9467bd; stroke: #ffffff; stroke-width: 0.75"/>
    </g>
   </g>
   <g id="line2d_19">
    <path d="M 276.872727 89.524122 
L 327.6 97.059454 
L 378.327273 106.001641 
L 429.054545 111.270844 
L 479.781818 126.552777 
L 530.509091 140.201638 
L 581.236364 147.139056 
L 631.963636 155.429785 
L 682.690909 160.379049 
L 733.418182 175.352963 
L 784.145455 179.658114 
L 834.872727 184.879282 
L 885.6 198.497006 
L 936.327273 222.09754 
L 987.054545 226.487734 
L 1037.781818 236.492798 
L 1088.509091 256.978603 
L 1139.236364 260.421651 
L 1189.963636 289.613444 
L 1240.690909 297.872599 
L 1291.418182 300.628183 
L 1342.145455 305.171614 
L 1392.872727 306.289867 
L 1443.6 314.486306 
L 1494.327273 314.486306 
" clip-path="url(#pbd7c2404bb)" style="fill: none; stroke: #8c564b; stroke-width: 1.5; stroke-linecap: square"/>
    <defs>
     <path id="m4030aa7961" d="M 0 5 
C 1.326016 5 2.597899 4.473168 3.535534 3.535534 
C 4.473168 2.597899 5 1.326016 5 0 
C 5 -1.326016 4.473168 -2.597899 3.535534 -3.535534 
C 2.597899 -4.473168 1.326016 -5 0 -5 
C -1.326016 -5 -2.597899 -4.473168 -3.535534 -3.535534 
C -4.473168 -2.597899 -5 -1.326016 -5 0 
C -5 1.326016 -4.473168 2.597899 -3.535534 3.535534 
C -2.597899 4.473168 -1.326016 5 0 5 
z
" style="stroke: #ffffff; stroke-width: 0.75"/>
    </defs>
    <g clip-path="url(#pbd7c2404bb)">
     <use xlink:href="#m4030aa7961" x="276.872727" y="89.524122" style="fill: #8c564b; stroke: #ffffff; stroke-width: 0.75"/>
     <use xlink:href="#m4030aa7961" x="327.6" y="97.059454" style="fill: #8c564b; stroke: #ffffff; stroke-width: 0.75"/>
     <use xlink:href="#m4030aa7961" x="378.327273" y="106.001641" style="fill: #8c564b; stroke: #ffffff; stroke-width: 0.75"/>
     <use xlink:href="#m4030aa7961" x="429.054545" y="111.270844" style="fill: #8c564b; stroke: #ffffff; stroke-width: 0.75"/>
     <use xlink:href="#m4030aa7961" x="479.781818" y="126.552777" style="fill: #8c564b; stroke: #ffffff; stroke-width: 0.75"/>
     <use xlink:href="#m4030aa7961" x="530.509091" y="140.201638" style="fill: #8c564b; stroke: #ffffff; stroke-width: 0.75"/>
     <use xlink:href="#m4030aa7961" x="581.236364" y="147.139056" style="fill: #8c564b; stroke: #ffffff; stroke-width: 0.75"/>
     <use xlink:href="#m4030aa7961" x="631.963636" y="155.429785" style="fill: #8c564b; stroke: #ffffff; stroke-width: 0.75"/>
     <use xlink:href="#m4030aa7961" x="682.690909" y="160.379049" style="fill: #8c564b; stroke: #ffffff; stroke-width: 0.75"/>
     <use xlink:href="#m4030aa7961" x="733.418182" y="175.352963" style="fill: #8c564b; stroke: #ffffff; stroke-width: 0.75"/>
     <use xlink:href="#m4030aa7961" x="784.145455" y="179.658114" style="fill: #8c564b; stroke: #ffffff; stroke-width: 0.75"/>
     <use xlink:href="#m4030aa7961" x="834.872727" y="184.879282" style="fill: #8c564b; stroke: #ffffff; stroke-width: 0.75"/>
     <use xlink:href="#m4030aa7961" x="885.6" y="198.497006" style="fill: #8c564b; stroke: #ffffff; stroke-width: 0.75"/>
     <use xlink:href="#m4030aa7961" x="936.327273" y="222.09754" style="fill: #8c564b; stroke: #ffffff; stroke-width: 0.75"/>
     <use xlink:href="#m4030aa7961" x="987.054545" y="226.487734" style="fill: #8c564b; stroke: #ffffff; stroke-width: 0.75"/>
     <use xlink:href="#m4030aa7961" x="1037.781818" y="236.492798" style="fill: #8c564b; stroke: #ffffff; stroke-width: 0.75"/>
     <use xlink:href="#m4030aa7961" x="1088.509091" y="256.978603" style="fill: #8c564b; stroke: #ffffff; stroke-width: 0.75"/>
     <use xlink:href="#m4030aa7961" x="1139.236364" y="260.421651" style="fill: #8c564b; stroke: #ffffff; stroke-width: 0.75"/>
     <use xlink:href="#m4030aa7961" x="1189.963636" y="289.613444" style="fill: #8c564b; stroke: #ffffff; stroke-width: 0.75"/>
     <use xlink:href="#m4030aa7961" x="1240.690909" y="297.872599" style="fill: #8c564b; stroke: #ffffff; stroke-width: 0.75"/>
     <use xlink:href="#m4030aa7961" x="1291.418182" y="300.628183" style="fill: #8c564b; stroke: #ffffff; stroke-width: 0.75"/>
     <use xlink:href="#m4030aa7961" x="1342.145455" y="305.171614" style="fill: #8c564b; stroke: #ffffff; stroke-width: 0.75"/>
     <use xlink:href="#m4030aa7961" x="1392.872727" y="306.289867" style="fill: #8c564b; stroke: #ffffff; stroke-width: 0.75"/>
     <use xlink:href="#m4030aa7961" x="1443.6" y="314.486306" style="fill: #8c564b; stroke: #ffffff; stroke-width: 0.75"/>
     <use xlink:href="#m4030aa7961" x="1494.327273" y="314.486306" style="fill: #8c564b; stroke: #ffffff; stroke-width: 0.75"/>
    </g>
   </g>
   <g id="line2d_20"/>
   <g id="line2d_21"/>
   <g id="line2d_22"/>
   <g id="line2d_23"/>
   <g id="line2d_24"/>
   <g id="line2d_25"/>
   <g id="patch_3">
    <path d="M 216 512.64 
L 216 69.12 
" style="fill: none; stroke: #000000; stroke-width: 0.8; stroke-linejoin: miter; stroke-linecap: square"/>
   </g>
   <g id="patch_4">
    <path d="M 1555.2 512.64 
L 1555.2 69.12 
" style="fill: none; stroke: #000000; stroke-width: 0.8; stroke-linejoin: miter; stroke-linecap: square"/>
   </g>
   <g id="patch_5">
    <path d="M 216 512.64 
L 1555.2 512.64 
" style="fill: none; stroke: #000000; stroke-width: 0.8; stroke-linejoin: miter; stroke-linecap: square"/>
   </g>
   <g id="patch_6">
    <path d="M 216 69.12 
L 1555.2 69.12 
" style="fill: none; stroke: #000000; stroke-width: 0.8; stroke-linejoin: miter; stroke-linecap: square"/>
   </g>
   <g id="legend_1">
    <g id="patch_7">
     <path d="M 1392.107813 261.163125 
L 1548.2 261.163125 
Q 1550.2 261.163125 1550.2 259.163125 
L 1550.2 76.12 
Q 1550.2 74.12 1548.2 74.12 
L 1392.107813 74.12 
Q 1390.107813 74.12 1390.107813 76.12 
L 1390.107813 259.163125 
Q 1390.107813 261.163125 1392.107813 261.163125 
z
" style="fill: #ffffff; opacity: 0.3; stroke: #cccccc; stroke-linejoin: miter"/>
    </g>
    <g id="text_16">
     <!-- Num. clusters -->
     <g transform="translate(1394.107813 94.836563) scale(0.22 -0.22)">
      <defs>
       <path id="DejaVuSans-20" transform="scale(0.015625)"/>
       <path id="DejaVuSans-63" d="M 3122 3366 
L 3122 2828 
Q 2878 2963 2633 3030 
Q 2388 3097 2138 3097 
Q 1578 3097 1268 2742 
Q 959 2388 959 1747 
Q 959 1106 1268 751 
Q 1578 397 2138 397 
Q 2388 397 2633 464 
Q 2878 531 3122 666 
L 3122 134 
Q 2881 22 2623 -34 
Q 2366 -91 2075 -91 
Q 1284 -91 818 406 
Q 353 903 353 1747 
Q 353 2603 823 3093 
Q 1294 3584 2113 3584 
Q 2378 3584 2631 3529 
Q 2884 3475 3122 3366 
z
" transform="scale(0.015625)"/>
       <path id="DejaVuSans-6c" d="M 603 4863 
L 1178 4863 
L 1178 0 
L 603 0 
L 603 4863 
z
" transform="scale(0.015625)"/>
      </defs>
      <use xlink:href="#DejaVuSans-4e"/>
      <use xlink:href="#DejaVuSans-75" x="74.804688"/>
      <use xlink:href="#DejaVuSans-6d" x="138.183594"/>
      <use xlink:href="#DejaVuSans-2e" x="235.595703"/>
      <use xlink:href="#DejaVuSans-20" x="267.382812"/>
      <use xlink:href="#DejaVuSans-63" x="299.169922"/>
      <use xlink:href="#DejaVuSans-6c" x="354.150391"/>
      <use xlink:href="#DejaVuSans-75" x="381.933594"/>
      <use xlink:href="#DejaVuSans-73" x="445.3125"/>
      <use xlink:href="#DejaVuSans-74" x="497.412109"/>
      <use xlink:href="#DejaVuSans-65" x="536.621094"/>
      <use xlink:href="#DejaVuSans-72" x="598.144531"/>
      <use xlink:href="#DejaVuSans-73" x="639.257812"/>
     </g>
    </g>
    <g id="line2d_26">
     <path d="M 1409.515625 117.628438 
L 1419.515625 117.628438 
L 1429.515625 117.628438 
" style="fill: none; stroke: #1f77b4; stroke-width: 1.5; stroke-linecap: square"/>
     <g>
      <use xlink:href="#m57ebb24e7e" x="1419.515625" y="117.628438" style="fill: #1f77b4; stroke: #ffffff; stroke-width: 0.75"/>
     </g>
    </g>
    <g id="text_17">
     <!-- 2 -->
     <g transform="translate(1437.515625 121.128438) scale(0.22 -0.22)">
      <use xlink:href="#DejaVuSans-32"/>
     </g>
    </g>
    <g id="line2d_27">
     <path d="M 1409.515625 143.920313 
L 1419.515625 143.920313 
L 1429.515625 143.920313 
" style="fill: none; stroke: #ff7f0e; stroke-width: 1.5; stroke-linecap: square"/>
     <g>
      <use xlink:href="#meead706314" x="1419.515625" y="143.920313" style="fill: #ff7f0e; stroke: #ffffff; stroke-width: 0.75"/>
     </g>
    </g>
    <g id="text_18">
     <!-- 5 -->
     <g transform="translate(1437.515625 147.420313) scale(0.22 -0.22)">
      <use xlink:href="#DejaVuSans-35"/>
     </g>
    </g>
    <g id="line2d_28">
     <path d="M 1409.515625 170.212188 
L 1419.515625 170.212188 
L 1429.515625 170.212188 
" style="fill: none; stroke: #2ca02c; stroke-width: 1.5; stroke-linecap: square"/>
     <g>
      <use xlink:href="#m178f082e7a" x="1419.515625" y="170.212188" style="fill: #2ca02c; stroke: #ffffff; stroke-width: 0.75"/>
     </g>
    </g>
    <g id="text_19">
     <!-- 10 -->
     <g transform="translate(1437.515625 173.712188) scale(0.22 -0.22)">
      <use xlink:href="#DejaVuSans-31"/>
      <use xlink:href="#DejaVuSans-30" x="63.623047"/>
     </g>
    </g>
    <g id="line2d_29">
     <path d="M 1409.515625 196.504063 
L 1419.515625 196.504063 
L 1429.515625 196.504063 
" style="fill: none; stroke: #d62728; stroke-width: 1.5; stroke-linecap: square"/>
     <g>
      <use xlink:href="#m6a9991cf6e" x="1419.515625" y="196.504063" style="fill: #d62728; stroke: #ffffff; stroke-width: 0.75"/>
     </g>
    </g>
    <g id="text_20">
     <!-- 15 -->
     <g transform="translate(1437.515625 200.004063) scale(0.22 -0.22)">
      <use xlink:href="#DejaVuSans-31"/>
      <use xlink:href="#DejaVuSans-35" x="63.623047"/>
     </g>
    </g>
    <g id="line2d_30">
     <path d="M 1409.515625 222.795938 
L 1419.515625 222.795938 
L 1429.515625 222.795938 
" style="fill: none; stroke: #9467bd; stroke-width: 1.5; stroke-linecap: square"/>
     <g>
      <use xlink:href="#mebdc60fe54" x="1419.515625" y="222.795938" style="fill: #9467bd; stroke: #ffffff; stroke-width: 0.75"/>
     </g>
    </g>
    <g id="text_21">
     <!-- 25 -->
     <g transform="translate(1437.515625 226.295938) scale(0.22 -0.22)">
      <use xlink:href="#DejaVuSans-32"/>
      <use xlink:href="#DejaVuSans-35" x="63.623047"/>
     </g>
    </g>
    <g id="line2d_31">
     <path d="M 1409.515625 249.087813 
L 1419.515625 249.087813 
L 1429.515625 249.087813 
" style="fill: none; stroke: #8c564b; stroke-width: 1.5; stroke-linecap: square"/>
     <g>
      <use xlink:href="#m4030aa7961" x="1419.515625" y="249.087813" style="fill: #8c564b; stroke: #ffffff; stroke-width: 0.75"/>
     </g>
    </g>
    <g id="text_22">
     <!-- Baseline -->
     <g transform="translate(1437.515625 252.587813) scale(0.22 -0.22)">
      <use xlink:href="#DejaVuSans-42"/>
      <use xlink:href="#DejaVuSans-61" x="68.603516"/>
      <use xlink:href="#DejaVuSans-73" x="129.882812"/>
      <use xlink:href="#DejaVuSans-65" x="181.982422"/>
      <use xlink:href="#DejaVuSans-6c" x="243.505859"/>
      <use xlink:href="#DejaVuSans-69" x="271.289062"/>
      <use xlink:href="#DejaVuSans-6e" x="299.072266"/>
      <use xlink:href="#DejaVuSans-65" x="362.451172"/>
     </g>
    </g>
   </g>
  </g>
 </g>
 <defs>
  <clipPath id="pbd7c2404bb">
   <rect x="216" y="69.12" width="1339.2" height="443.52"/>
  </clipPath>
 </defs>
</svg>
